<svg width="683" height="514" viewBox="0 0 683 514" fill="none" xmlns="http://www.w3.org/2000/svg">
<rect x="476" y="322" width="72" height="72" rx="20" fill="#F9F9FF"/>
<path d="M512.097 372.096C507.409 372.096 502.722 372.096 498.034 372.096C497.805 372.096 497.573 372.096 497.343 372.072C496.169 371.963 495.698 371.172 496.198 370.103C496.632 369.18 497.106 368.281 497.566 367.368C499.737 363.069 501.909 358.771 504.08 354.474C504.147 354.343 504.218 354.211 504.295 354.086C504.842 353.209 505.731 353.086 506.43 353.842C506.924 354.371 507.341 354.965 507.782 355.539C510.019 358.462 512.256 361.387 514.493 364.313C515.47 365.587 516.701 365.656 517.849 364.511C518.419 363.942 518.975 363.359 519.552 362.795C520.591 361.779 521.77 361.84 522.619 363.025C524.323 365.404 525.984 367.814 527.653 370.217C527.784 370.405 527.883 370.613 527.949 370.833C528.111 371.384 527.882 371.828 527.322 371.975C526.972 372.059 526.611 372.098 526.251 372.091C521.535 372.099 516.817 372.101 512.097 372.096Z" fill="#D4D2E3"/>
<path d="M522.609 348.541C522.608 349.458 522.335 350.355 521.823 351.117C521.312 351.879 520.586 352.472 519.737 352.82C518.889 353.169 517.955 353.258 517.056 353.076C516.157 352.893 515.332 352.448 514.686 351.797C514.04 351.145 513.602 350.316 513.428 349.415C513.253 348.515 513.35 347.582 513.707 346.737C514.063 345.891 514.662 345.17 515.428 344.666C516.195 344.161 517.093 343.895 518.011 343.902C519.233 343.918 520.399 344.413 521.26 345.28C522.12 346.148 522.605 347.319 522.609 348.541Z" fill="#D4D2E3"/>
<path d="M449.453 433H445.253V414.24H461.129V418.02H449.453V422.248H460.709V426H449.453V433ZM470.365 433.28C465.689 433.28 462.497 430.984 462.497 426C462.497 421.52 465.661 418.692 470.281 418.692C474.873 418.692 477.925 421.1 477.925 425.496C477.925 426 477.869 426.364 477.813 426.84H466.389C466.501 428.996 467.509 429.92 470.225 429.92C472.717 429.92 473.585 429.276 473.585 428.072V427.792H477.785V428.1C477.785 431.152 474.817 433.28 470.365 433.28ZM470.197 421.968C467.705 421.968 466.641 422.808 466.445 424.628H473.893C473.781 422.78 472.661 421.968 470.197 421.968ZM484.018 433.28C480.994 433.28 479.174 431.88 479.174 429.528C479.174 427.456 480.714 426.168 483.71 425.86L489.73 425.244V424.712C489.73 422.892 488.918 422.388 486.678 422.388C484.55 422.388 483.682 422.948 483.682 424.544V424.656H479.454V424.572C479.454 421.1 482.366 418.692 486.986 418.692C491.662 418.692 493.874 421.1 493.874 424.768V433H489.954V429.78H489.73C489.086 431.964 487.126 433.28 484.018 433.28ZM483.402 429.248C483.402 430.004 483.99 430.312 485.222 430.312C488.078 430.312 489.618 429.64 489.73 427.652L484.858 428.212C483.85 428.296 483.402 428.576 483.402 429.248ZM505.887 433H502.415C499.139 433 497.151 431.46 497.151 427.932V422.444H494.939V418.972H497.151V416.256H501.351V418.972H505.887V422.444H501.351V427.456C501.351 428.856 501.883 429.22 503.367 429.22H505.887V433ZM513.256 433.28C509.308 433.28 507.432 430.844 507.432 427.708V418.972H511.632V426.308C511.632 428.576 512.584 429.528 515.244 429.528C517.988 429.528 518.968 428.464 518.968 426.084V418.972H523.168V433H519.248V428.716H519.024C518.66 431.068 516.952 433.28 513.256 433.28ZM529.515 433H525.315V418.972H529.207V422.696H529.459C529.851 420.428 531.335 418.692 534.163 418.692C537.299 418.692 538.587 420.848 538.587 423.592V425.916H534.387V424.46C534.387 422.92 533.771 422.248 532.063 422.248C530.187 422.248 529.515 423.116 529.515 424.88V433ZM547.556 433.28C542.88 433.28 539.688 430.984 539.688 426C539.688 421.52 542.852 418.692 547.472 418.692C552.064 418.692 555.116 421.1 555.116 425.496C555.116 426 555.06 426.364 555.004 426.84H543.58C543.692 428.996 544.7 429.92 547.416 429.92C549.908 429.92 550.776 429.276 550.776 428.072V427.792H554.976V428.1C554.976 431.152 552.008 433.28 547.556 433.28ZM547.388 421.968C544.896 421.968 543.832 422.808 543.636 424.628H551.084C550.972 422.78 549.852 421.968 547.388 421.968ZM576.618 433H572.418V429.416H560.518V426.56L571.746 414.24H576.618V425.636H579.474V429.416H576.618V433ZM566.37 425.636H572.418V419.084H572.11L566.37 425.328V425.636Z" fill="black"/>
<rect x="133.5" y="322" width="72" height="72" rx="20" fill="#F9F9FF"/>
<path d="M169.597 372.096C164.909 372.096 160.222 372.096 155.534 372.096C155.305 372.096 155.073 372.096 154.843 372.072C153.669 371.963 153.198 371.172 153.698 370.103C154.132 369.18 154.606 368.281 155.066 367.368C157.237 363.069 159.409 358.771 161.58 354.474C161.647 354.343 161.718 354.211 161.795 354.086C162.342 353.209 163.231 353.086 163.93 353.842C164.424 354.371 164.841 354.965 165.282 355.539C167.519 358.462 169.756 361.387 171.993 364.313C172.97 365.587 174.201 365.656 175.349 364.511C175.919 363.942 176.475 363.359 177.052 362.795C178.091 361.779 179.27 361.84 180.119 363.025C181.823 365.404 183.484 367.814 185.153 370.217C185.284 370.405 185.383 370.613 185.449 370.833C185.611 371.384 185.382 371.828 184.822 371.975C184.472 372.059 184.111 372.098 183.751 372.091C179.035 372.099 174.317 372.101 169.597 372.096Z" fill="#D4D2E3"/>
<path d="M180.109 348.541C180.108 349.458 179.835 350.355 179.323 351.117C178.812 351.879 178.086 352.472 177.237 352.82C176.389 353.169 175.455 353.258 174.556 353.076C173.657 352.893 172.832 352.448 172.186 351.797C171.54 351.145 171.102 350.316 170.928 349.415C170.753 348.515 170.85 347.582 171.207 346.737C171.563 345.891 172.162 345.17 172.928 344.666C173.695 344.161 174.593 343.895 175.511 343.902C176.733 343.918 177.899 344.413 178.76 345.28C179.62 346.148 180.105 347.319 180.109 348.541Z" fill="#D4D2E3"/>
<path d="M107.445 433H103.245V414.24H119.121V418.02H107.445V422.248H118.701V426H107.445V433ZM128.357 433.28C123.681 433.28 120.489 430.984 120.489 426C120.489 421.52 123.653 418.692 128.273 418.692C132.865 418.692 135.917 421.1 135.917 425.496C135.917 426 135.861 426.364 135.805 426.84H124.381C124.493 428.996 125.501 429.92 128.217 429.92C130.709 429.92 131.577 429.276 131.577 428.072V427.792H135.777V428.1C135.777 431.152 132.809 433.28 128.357 433.28ZM128.189 421.968C125.697 421.968 124.633 422.808 124.437 424.628H131.885C131.773 422.78 130.653 421.968 128.189 421.968ZM142.01 433.28C138.986 433.28 137.166 431.88 137.166 429.528C137.166 427.456 138.706 426.168 141.702 425.86L147.722 425.244V424.712C147.722 422.892 146.91 422.388 144.67 422.388C142.542 422.388 141.674 422.948 141.674 424.544V424.656H137.446V424.572C137.446 421.1 140.358 418.692 144.978 418.692C149.654 418.692 151.866 421.1 151.866 424.768V433H147.946V429.78H147.722C147.078 431.964 145.118 433.28 142.01 433.28ZM141.394 429.248C141.394 430.004 141.982 430.312 143.214 430.312C146.07 430.312 147.61 429.64 147.722 427.652L142.85 428.212C141.842 428.296 141.394 428.576 141.394 429.248ZM163.879 433H160.407C157.131 433 155.143 431.46 155.143 427.932V422.444H152.931V418.972H155.143V416.256H159.343V418.972H163.879V422.444H159.343V427.456C159.343 428.856 159.875 429.22 161.359 429.22H163.879V433ZM171.248 433.28C167.3 433.28 165.424 430.844 165.424 427.708V418.972H169.624V426.308C169.624 428.576 170.576 429.528 173.236 429.528C175.98 429.528 176.96 428.464 176.96 426.084V418.972H181.16V433H177.24V428.716H177.016C176.652 431.068 174.944 433.28 171.248 433.28ZM187.508 433H183.308V418.972H187.2V422.696H187.452C187.844 420.428 189.328 418.692 192.156 418.692C195.292 418.692 196.579 420.848 196.579 423.592V425.916H192.38V424.46C192.38 422.92 191.764 422.248 190.056 422.248C188.18 422.248 187.508 423.116 187.508 424.88V433ZM205.548 433.28C200.872 433.28 197.68 430.984 197.68 426C197.68 421.52 200.844 418.692 205.464 418.692C210.056 418.692 213.108 421.1 213.108 425.496C213.108 426 213.052 426.364 212.996 426.84H201.572C201.684 428.996 202.692 429.92 205.408 429.92C207.9 429.92 208.768 429.276 208.768 428.072V427.792H212.968V428.1C212.968 431.152 210 433.28 205.548 433.28ZM205.38 421.968C202.888 421.968 201.824 422.808 201.628 424.628H209.076C208.964 422.78 207.844 421.968 205.38 421.968ZM227.694 433.28C221.562 433.28 218.79 430.788 218.79 426.644V426.196H223.242V426.644C223.242 428.548 223.774 429.248 227.498 429.248C231.026 429.248 232.118 428.688 232.118 427.064C232.118 425.664 231.222 425.076 229.458 425.076H224.054V421.632H229.066C230.69 421.632 231.418 421.044 231.418 419.868C231.418 418.552 230.634 417.992 227.442 417.992C224.082 417.992 223.242 418.692 223.242 420.596V420.736H218.79V420.596C218.79 416.648 221.702 413.96 227.806 413.96C232.818 413.96 235.59 415.668 235.59 418.972C235.59 421.128 234.302 422.584 231.866 422.892V423.2C234.61 423.592 236.402 424.992 236.402 427.736C236.402 431.376 233.154 433.28 227.694 433.28Z" fill="black"/>
<rect x="129.5" y="52" width="72" height="72" rx="20" fill="#F9F9FF"/>
<path d="M165.597 102.096C160.909 102.096 156.222 102.096 151.534 102.096C151.305 102.096 151.073 102.096 150.843 102.072C149.669 101.963 149.198 101.172 149.698 100.103C150.132 99.1803 150.606 98.2811 151.066 97.3681C153.237 93.0694 155.409 88.7713 157.58 84.4738C157.647 84.3426 157.718 84.2113 157.795 84.0859C158.342 83.2095 159.231 83.0861 159.93 83.8421C160.424 84.3712 160.841 84.9654 161.282 85.5388C163.519 88.4623 165.756 91.3872 167.993 94.3133C168.97 95.5866 170.201 95.6557 171.349 94.5107C171.919 93.9422 172.475 93.3589 173.052 92.7953C174.091 91.7787 175.27 91.8399 176.119 93.0253C177.823 95.404 179.484 97.8143 181.153 100.217C181.284 100.405 181.383 100.613 181.449 100.833C181.611 101.384 181.382 101.828 180.822 101.975C180.472 102.059 180.111 102.098 179.751 102.091C175.035 102.099 170.317 102.101 165.597 102.096Z" fill="#D4D2E3"/>
<path d="M176.109 78.5409C176.108 79.4585 175.835 80.355 175.323 81.1168C174.812 81.8787 174.086 82.4715 173.237 82.8203C172.389 83.169 171.455 83.2578 170.556 83.0756C169.657 82.8933 168.832 82.4482 168.186 81.7965C167.54 81.1449 167.102 80.3161 166.928 79.4153C166.753 78.5145 166.85 77.5822 167.207 76.7366C167.563 75.891 168.162 75.1702 168.928 74.6655C169.695 74.1609 170.593 73.8951 171.511 73.902C172.733 73.9175 173.899 74.4125 174.76 75.2803C175.62 76.148 176.105 77.3191 176.109 78.5409Z" fill="#D4D2E3"/>
<path d="M107.629 163H103.429V144.24H119.305V148.02H107.629V152.248H118.885V156H107.629V163ZM128.541 163.28C123.865 163.28 120.673 160.984 120.673 156C120.673 151.52 123.837 148.692 128.457 148.692C133.049 148.692 136.101 151.1 136.101 155.496C136.101 156 136.045 156.364 135.989 156.84H124.565C124.677 158.996 125.685 159.92 128.401 159.92C130.893 159.92 131.761 159.276 131.761 158.072V157.792H135.961V158.1C135.961 161.152 132.993 163.28 128.541 163.28ZM128.373 151.968C125.881 151.968 124.817 152.808 124.621 154.628H132.069C131.957 152.78 130.837 151.968 128.373 151.968ZM142.194 163.28C139.17 163.28 137.35 161.88 137.35 159.528C137.35 157.456 138.89 156.168 141.886 155.86L147.906 155.244V154.712C147.906 152.892 147.094 152.388 144.854 152.388C142.726 152.388 141.858 152.948 141.858 154.544V154.656H137.63V154.572C137.63 151.1 140.542 148.692 145.162 148.692C149.838 148.692 152.05 151.1 152.05 154.768V163H148.13V159.78H147.906C147.262 161.964 145.302 163.28 142.194 163.28ZM141.578 159.248C141.578 160.004 142.166 160.312 143.398 160.312C146.254 160.312 147.794 159.64 147.906 157.652L143.034 158.212C142.026 158.296 141.578 158.576 141.578 159.248ZM164.063 163H160.591C157.315 163 155.327 161.46 155.327 157.932V152.444H153.115V148.972H155.327V146.256H159.527V148.972H164.063V152.444H159.527V157.456C159.527 158.856 160.059 159.22 161.543 159.22H164.063V163ZM171.432 163.28C167.484 163.28 165.608 160.844 165.608 157.708V148.972H169.808V156.308C169.808 158.576 170.76 159.528 173.42 159.528C176.164 159.528 177.144 158.464 177.144 156.084V148.972H181.344V163H177.424V158.716H177.2C176.836 161.068 175.128 163.28 171.432 163.28ZM187.691 163H183.491V148.972H187.383V152.696H187.635C188.027 150.428 189.511 148.692 192.339 148.692C195.475 148.692 196.763 150.848 196.763 153.592V155.916H192.563V154.46C192.563 152.92 191.947 152.248 190.239 152.248C188.363 152.248 187.691 153.116 187.691 154.88V163ZM205.732 163.28C201.056 163.28 197.864 160.984 197.864 156C197.864 151.52 201.028 148.692 205.648 148.692C210.24 148.692 213.292 151.1 213.292 155.496C213.292 156 213.236 156.364 213.18 156.84H201.756C201.868 158.996 202.876 159.92 205.592 159.92C208.084 159.92 208.952 159.276 208.952 158.072V157.792H213.152V158.1C213.152 161.152 210.184 163.28 205.732 163.28ZM205.564 151.968C203.072 151.968 202.008 152.808 201.812 154.628H209.26C209.148 152.78 208.028 151.968 205.564 151.968ZM227.569 163H223.369V149.448H218.553V146.564H219.337C221.409 146.564 222.809 146.088 223.733 144.24H227.569V163Z" fill="black"/>
<rect x="475" y="52" width="72" height="72" rx="20" fill="#F9F9FF"/>
<path d="M511.097 102.096C506.409 102.096 501.722 102.096 497.034 102.096C496.805 102.096 496.573 102.096 496.343 102.072C495.169 101.963 494.698 101.172 495.198 100.103C495.632 99.1803 496.106 98.2811 496.566 97.3681C498.737 93.0694 500.909 88.7713 503.08 84.4738C503.147 84.3426 503.218 84.2113 503.295 84.0859C503.842 83.2095 504.731 83.0861 505.43 83.8421C505.924 84.3712 506.341 84.9654 506.782 85.5388C509.019 88.4623 511.256 91.3872 513.493 94.3133C514.47 95.5866 515.701 95.6557 516.849 94.5107C517.419 93.9422 517.975 93.3589 518.552 92.7953C519.591 91.7787 520.77 91.8399 521.619 93.0253C523.323 95.404 524.984 97.8143 526.653 100.217C526.784 100.405 526.883 100.613 526.949 100.833C527.111 101.384 526.882 101.828 526.322 101.975C525.972 102.059 525.611 102.098 525.251 102.091C520.535 102.099 515.817 102.101 511.097 102.096Z" fill="#D4D2E3"/>
<path d="M521.609 78.5409C521.608 79.4585 521.335 80.355 520.823 81.1168C520.312 81.8787 519.586 82.4715 518.737 82.8203C517.889 83.169 516.955 83.2578 516.056 83.0756C515.157 82.8933 514.332 82.4482 513.686 81.7965C513.04 81.1449 512.602 80.3161 512.428 79.4153C512.253 78.5145 512.35 77.5822 512.707 76.7366C513.063 75.891 513.662 75.1702 514.428 74.6655C515.195 74.1609 516.093 73.8951 517.011 73.902C518.233 73.9175 519.399 74.4125 520.26 75.2803C521.12 76.148 521.605 77.3191 521.609 78.5409Z" fill="#D4D2E3"/>
<path d="M449.328 163H445.128V144.24H461.004V148.02H449.328V152.248H460.584V156H449.328V163ZM470.24 163.28C465.564 163.28 462.372 160.984 462.372 156C462.372 151.52 465.536 148.692 470.156 148.692C474.748 148.692 477.8 151.1 477.8 155.496C477.8 156 477.744 156.364 477.688 156.84H466.264C466.376 158.996 467.384 159.92 470.1 159.92C472.592 159.92 473.46 159.276 473.46 158.072V157.792H477.66V158.1C477.66 161.152 474.692 163.28 470.24 163.28ZM470.072 151.968C467.58 151.968 466.516 152.808 466.32 154.628H473.768C473.656 152.78 472.536 151.968 470.072 151.968ZM483.893 163.28C480.869 163.28 479.049 161.88 479.049 159.528C479.049 157.456 480.589 156.168 483.585 155.86L489.605 155.244V154.712C489.605 152.892 488.793 152.388 486.553 152.388C484.425 152.388 483.557 152.948 483.557 154.544V154.656H479.329V154.572C479.329 151.1 482.241 148.692 486.861 148.692C491.537 148.692 493.749 151.1 493.749 154.768V163H489.829V159.78H489.605C488.961 161.964 487.001 163.28 483.893 163.28ZM483.277 159.248C483.277 160.004 483.865 160.312 485.097 160.312C487.953 160.312 489.493 159.64 489.605 157.652L484.733 158.212C483.725 158.296 483.277 158.576 483.277 159.248ZM505.762 163H502.29C499.014 163 497.026 161.46 497.026 157.932V152.444H494.814V148.972H497.026V146.256H501.226V148.972H505.762V152.444H501.226V157.456C501.226 158.856 501.758 159.22 503.242 159.22H505.762V163ZM513.131 163.28C509.183 163.28 507.307 160.844 507.307 157.708V148.972H511.507V156.308C511.507 158.576 512.459 159.528 515.119 159.528C517.863 159.528 518.843 158.464 518.843 156.084V148.972H523.043V163H519.123V158.716H518.899C518.535 161.068 516.827 163.28 513.131 163.28ZM529.39 163H525.19V148.972H529.082V152.696H529.334C529.726 150.428 531.21 148.692 534.038 148.692C537.174 148.692 538.462 150.848 538.462 153.592V155.916H534.262V154.46C534.262 152.92 533.646 152.248 531.938 152.248C530.062 152.248 529.39 153.116 529.39 154.88V163ZM547.431 163.28C542.755 163.28 539.563 160.984 539.563 156C539.563 151.52 542.727 148.692 547.347 148.692C551.939 148.692 554.991 151.1 554.991 155.496C554.991 156 554.935 156.364 554.879 156.84H543.455C543.567 158.996 544.575 159.92 547.291 159.92C549.783 159.92 550.651 159.276 550.651 158.072V157.792H554.851V158.1C554.851 161.152 551.883 163.28 547.431 163.28ZM547.263 151.968C544.771 151.968 543.707 152.808 543.511 154.628H550.959C550.847 152.78 549.727 151.968 547.263 151.968ZM577.277 163H560.617V160.312C560.617 157.008 562.045 155.3 565.993 153.984L570.809 152.416C572.489 151.828 573.105 151.268 573.105 150.036C573.105 148.608 572.321 147.796 569.241 147.796C565.797 147.796 564.761 148.832 564.761 150.904V151.268H560.645V150.904C560.645 147.264 563.137 143.96 569.381 143.96C575.037 143.96 577.333 146.536 577.333 150.092C577.333 153.424 575.149 155.076 571.817 156L567.729 157.12C565.909 157.68 565.041 158.212 565.041 159.696L569.941 159.22H577.277V163Z" fill="black"/>
<line x1="341.5" y1="0.333252" x2="341.5" y2="513.833" stroke="black"/>
<line x1="-4.37114e-08" y1="255.833" x2="683" y2="255.833" stroke="black"/>
</svg>
