<svg width="683" height="514" viewBox="0 0 683 514" fill="none" xmlns="http://www.w3.org/2000/svg">
<path d="M123.765 312C123.765 310.895 124.661 310 125.765 310H167.858L186.506 332.144V389.923C186.506 391.028 185.61 391.923 184.506 391.923H125.765C124.661 391.923 123.765 391.028 123.765 389.923V312Z" fill="white" stroke="black" stroke-width="2"/>
<path d="M184.657 399C192.708 399 199.235 392.473 199.235 384.422C199.235 376.371 192.708 369.844 184.657 369.844C176.606 369.844 170.079 376.371 170.079 384.422C170.079 392.473 176.606 399 184.657 399Z" fill="#00B18F" stroke="black" stroke-linecap="round" stroke-linejoin="round"/>
<path fill-rule="evenodd" clip-rule="evenodd" d="M134.551 347.602H175.814H134.551Z" fill="white"/>
<path d="M134.551 347.602H175.814" stroke="black" stroke-width="2" stroke-miterlimit="10" stroke-linecap="round" stroke-linejoin="round"/>
<path fill-rule="evenodd" clip-rule="evenodd" d="M134.551 357.307H175.814H134.551Z" fill="white"/>
<path d="M134.551 357.307H175.814" stroke="black" stroke-width="2" stroke-miterlimit="10" stroke-linecap="round" stroke-linejoin="round"/>
<path fill-rule="evenodd" clip-rule="evenodd" d="M134.551 367.011H175.814H134.551Z" fill="white"/>
<path d="M134.551 367.011H175.814" stroke="black" stroke-width="2" stroke-miterlimit="10" stroke-linecap="round" stroke-linejoin="round"/>
<path d="M168.323 331.853V310.199L186.1 331.853H168.323Z" fill="white" stroke="black" stroke-width="2" stroke-linejoin="round"/>
<path d="M176.341 385.444L179.174 382.611L182.077 385.515L182.148 385.586L182.219 385.515L190.14 377.587L192.973 380.419L182.148 391.258L176.341 385.444ZM190.211 379.348L190.14 379.277L190.069 379.348L182.148 387.283L179.244 384.414L179.175 384.346L179.105 384.414L178.111 385.372L178.038 385.443L178.11 385.515L182.077 389.476L182.148 389.546L182.219 389.475L191.204 380.49L191.275 380.42L191.205 380.349L190.211 379.348Z" fill="black" stroke="#00B18F" stroke-width="0.2"/>
<path d="M191.435 380.408L182.141 389.702C180.475 388.037 177.867 385.437 177.867 385.437L179.162 384.18L182.136 387.114L190.139 379.111L191.435 380.408Z" fill="white"/>
<path d="M60.424 443H57.4V424.24H66.584C70.756 424.24 73.612 426.62 73.612 430.792C73.612 434.936 70.756 437.344 66.584 437.344H60.424V443ZM66.304 426.956H60.424V434.628H66.304C69.132 434.628 70.588 433.564 70.588 430.792C70.588 428.02 69.132 426.956 66.304 426.956ZM78.4435 443H75.4195V424.24H78.4435V443ZM85.3318 443.28C82.4478 443.28 80.6278 441.936 80.6278 439.64C80.6278 437.484 82.3638 436.364 85.1078 436.056L91.4358 435.384V434.572C91.4358 432.276 90.4278 431.464 87.7678 431.464C85.1918 431.464 83.9318 432.304 83.9318 434.348V434.46H80.9358V434.348C80.9358 431.184 83.5678 428.804 87.9918 428.804C92.4158 428.804 94.4038 431.212 94.4038 434.544V443H91.6318V439.528H91.4358C90.7078 441.88 88.4958 443.28 85.3318 443.28ZM83.6518 439.444C83.6518 440.564 84.4078 441.096 86.1438 441.096C89.3078 441.096 91.4358 439.92 91.4358 437.176L85.9758 437.792C84.4078 437.988 83.6518 438.352 83.6518 439.444ZM103.151 441.74C99.0071 441.74 96.5431 439.136 96.5431 435.272C96.5431 431.408 99.1191 428.804 103.347 428.804C106.259 428.804 108.443 430.12 108.947 432.556H109.115V429.084H111.887V441.376C111.887 446.052 108.975 448.04 104.411 448.04C100.295 448.04 97.4391 446.108 97.4391 442.748H100.435C100.435 444.764 101.611 445.52 104.579 445.52C107.743 445.52 108.891 444.652 108.891 441.544V438.128H108.695C108.191 440.228 106.315 441.74 103.151 441.74ZM99.5951 435.272C99.5951 438.128 101.275 439.136 104.131 439.136C107.211 439.136 108.891 437.848 108.891 435.384V434.992C108.891 432.64 107.155 431.436 104.215 431.436C101.303 431.436 99.5951 432.416 99.5951 435.272ZM117.709 427.46H114.685V424.24H117.709V427.46ZM117.709 443H114.685V429.084H117.709V443ZM124.597 443.28C121.713 443.28 119.893 441.936 119.893 439.64C119.893 437.484 121.629 436.364 124.373 436.056L130.701 435.384V434.572C130.701 432.276 129.693 431.464 127.033 431.464C124.457 431.464 123.197 432.304 123.197 434.348V434.46H120.201V434.348C120.201 431.184 122.833 428.804 127.257 428.804C131.681 428.804 133.669 431.212 133.669 434.544V443H130.897V439.528H130.701C129.973 441.88 127.761 443.28 124.597 443.28ZM122.917 439.444C122.917 440.564 123.673 441.096 125.409 441.096C128.573 441.096 130.701 439.92 130.701 437.176L125.241 437.792C123.673 437.988 122.917 438.352 122.917 439.444ZM139.393 443H136.369V429.084H139.141V432.836H139.337C139.757 430.596 141.269 428.804 144.125 428.804C147.289 428.804 148.661 431.072 148.661 433.704V435.524H145.665V434.292C145.665 432.304 144.825 431.38 142.753 431.38C140.373 431.38 139.393 432.696 139.393 435.188V443ZM153.584 427.46H150.56V424.24H153.584V427.46ZM153.584 443H150.56V429.084H153.584V443ZM162.964 443.28C158.484 443.28 155.936 441.516 155.936 438.296V438.212H158.96V438.436C158.96 440.256 160.052 440.844 162.964 440.844C165.68 440.844 166.492 440.284 166.492 439.052C166.492 437.904 165.82 437.54 163.832 437.26L160.024 436.756C157.392 436.42 155.796 435.3 155.796 432.976C155.796 430.54 158.008 428.804 162.292 428.804C166.548 428.804 169.124 430.512 169.124 433.816V433.9H166.128V433.732C166.128 432.08 165.288 431.212 162.208 431.212C159.66 431.212 158.764 431.772 158.764 433.088C158.764 434.18 159.324 434.572 161.424 434.852L164.644 435.3C167.948 435.72 169.46 436.84 169.46 439.136C169.46 441.74 166.884 443.28 162.964 443.28ZM174.666 443H171.642V429.084H174.414V433.284H174.582C174.946 430.96 176.458 428.804 179.93 428.804C183.094 428.804 184.802 430.736 185.194 433.396H185.362C185.726 431.016 187.294 428.804 190.822 428.804C194.434 428.804 196.254 431.268 196.254 434.628V443H193.258V435.44C193.258 432.696 192.166 431.52 189.478 431.52C186.51 431.52 185.446 433.032 185.446 436.112V443H182.45V435.44C182.45 432.696 181.386 431.52 178.698 431.52C175.702 431.52 174.666 433.032 174.666 436.112V443ZM207.303 436.056H198.399V433.48H207.303V436.056ZM213.629 443H210.605V431.604H208.505V429.084H210.633C210.969 426.032 213.293 424.24 217.241 424.24H218.613V426.48H216.765C214.553 426.48 213.405 427.068 213.573 429.084H218.613V431.604H213.629V443ZM223.311 443H220.287V429.084H223.059V432.836H223.255C223.675 430.596 225.187 428.804 228.043 428.804C231.207 428.804 232.579 431.072 232.579 433.704V435.524H229.583V434.292C229.583 432.304 228.743 431.38 226.671 431.38C224.291 431.38 223.311 432.696 223.311 435.188V443ZM241.478 443.28C236.914 443.28 233.918 440.704 233.918 436.056C233.918 431.716 236.886 428.804 241.422 428.804C245.734 428.804 248.674 431.184 248.674 435.412C248.674 435.916 248.646 436.308 248.562 436.728H236.746C236.858 439.416 238.174 440.844 241.394 440.844C244.306 440.844 245.51 439.892 245.51 438.24V438.016H248.534V438.268C248.534 441.236 245.622 443.28 241.478 443.28ZM241.366 431.184C238.286 431.184 236.942 432.556 236.774 435.048H245.818V434.992C245.818 432.416 244.334 431.184 241.366 431.184ZM257.939 443.28C253.375 443.28 250.379 440.704 250.379 436.056C250.379 431.716 253.347 428.804 257.883 428.804C262.195 428.804 265.135 431.184 265.135 435.412C265.135 435.916 265.107 436.308 265.023 436.728H253.207C253.319 439.416 254.635 440.844 257.855 440.844C260.767 440.844 261.971 439.892 261.971 438.24V438.016H264.995V438.268C264.995 441.236 262.083 443.28 257.939 443.28ZM257.827 431.184C254.747 431.184 253.403 432.556 253.235 435.048H262.279V434.992C262.279 432.416 260.795 431.184 257.827 431.184ZM124.13 473.28C118.25 473.28 114.358 469.472 114.358 463.62C114.358 457.768 118.25 453.96 124.13 453.96C130.066 453.96 133.93 457.768 133.93 463.62C133.93 469.472 130.066 473.28 124.13 473.28ZM124.13 470.368C128.582 470.368 130.738 468.296 130.738 463.62C130.738 458.944 128.582 456.844 124.13 456.844C119.678 456.844 117.55 458.944 117.55 463.62C117.55 468.296 119.678 470.368 124.13 470.368ZM141.96 473.28C138.04 473.28 136.136 470.676 136.136 467.456V459.084H139.132V466.644C139.132 469.248 140.336 470.564 143.276 470.564C146.356 470.564 147.784 468.996 147.784 465.972V459.084H150.78V473H148.008V468.688H147.84C147.392 471.04 145.544 473.28 141.96 473.28ZM162.655 473H159.463C156.467 473 154.619 471.684 154.619 468.296V461.604H152.267V459.084H154.619V456.032H157.615V459.084H162.655V461.604H157.615V468.128C157.615 469.836 158.399 470.284 160.135 470.284H162.655V473ZM167.57 473H164.546V454.24H167.57V473ZM173.395 457.46H170.371V454.24H173.395V457.46ZM173.395 473H170.371V459.084H173.395V473ZM179.219 473H176.195V459.084H178.967V463.396H179.163C179.583 461.044 181.431 458.804 184.959 458.804C188.823 458.804 190.727 461.408 190.727 464.628V473H187.703V465.44C187.703 462.836 186.527 461.52 183.643 461.52C180.591 461.52 179.219 463.088 179.219 466.112V473ZM200.421 473.28C195.857 473.28 192.861 470.704 192.861 466.056C192.861 461.716 195.829 458.804 200.365 458.804C204.677 458.804 207.617 461.184 207.617 465.412C207.617 465.916 207.589 466.308 207.505 466.728H195.689C195.801 469.416 197.117 470.844 200.337 470.844C203.249 470.844 204.453 469.892 204.453 468.24V468.016H207.477V468.268C207.477 471.236 204.565 473.28 200.421 473.28ZM200.309 461.184C197.229 461.184 195.885 462.556 195.717 465.048H204.761V464.992C204.761 462.416 203.277 461.184 200.309 461.184Z" fill="black"/>
<rect x="458.98" y="329.077" width="49.8097" height="7" rx="3.5" fill="black"/>
<rect x="452.508" y="344.5" width="56.2819" height="7" rx="3.5" fill="black"/>
<rect x="445.419" y="359.923" width="63.3705" height="7" rx="3.5" fill="black"/>
<ellipse cx="528.581" cy="348" rx="45" ry="45" fill="white"/>
<circle cx="528.581" cy="348" r="38.815" fill="#F3EA79"/>
<path d="M528.581 386.815C550.018 386.815 567.396 369.437 567.396 348C567.396 326.563 550.018 309.185 528.581 309.185C507.144 309.185 489.766 326.563 489.766 348C489.766 369.437 507.144 386.815 528.581 386.815Z" stroke="black" stroke-width="2" stroke-linecap="round" stroke-linejoin="round"/>
<path d="M524.268 330.749V352.313H545.832" stroke="black" stroke-width="2" stroke-linecap="round" stroke-linejoin="round"/>
<path d="M396.182 437H393.158V418.24H408.082V420.956H396.182V426.78H407.662V429.468H396.182V437ZM414.418 437.28C411.534 437.28 409.714 435.936 409.714 433.64C409.714 431.484 411.45 430.364 414.194 430.056L420.522 429.384V428.572C420.522 426.276 419.514 425.464 416.854 425.464C414.278 425.464 413.018 426.304 413.018 428.348V428.46H410.022V428.348C410.022 425.184 412.654 422.804 417.078 422.804C421.502 422.804 423.49 425.212 423.49 428.544V437H420.718V433.528H420.522C419.794 435.88 417.582 437.28 414.418 437.28ZM412.738 433.444C412.738 434.564 413.494 435.096 415.23 435.096C418.394 435.096 420.522 433.92 420.522 431.176L415.062 431.792C413.494 431.988 412.738 432.352 412.738 433.444ZM432.769 437.28C428.289 437.28 425.741 435.516 425.741 432.296V432.212H428.765V432.436C428.765 434.256 429.857 434.844 432.769 434.844C435.485 434.844 436.297 434.284 436.297 433.052C436.297 431.904 435.625 431.54 433.637 431.26L429.829 430.756C427.197 430.42 425.601 429.3 425.601 426.976C425.601 424.54 427.813 422.804 432.097 422.804C436.353 422.804 438.929 424.512 438.929 427.816V427.9H435.933V427.732C435.933 426.08 435.093 425.212 432.013 425.212C429.465 425.212 428.569 425.772 428.569 427.088C428.569 428.18 429.129 428.572 431.229 428.852L434.449 429.3C437.753 429.72 439.265 430.84 439.265 433.136C439.265 435.74 436.689 437.28 432.769 437.28ZM450.575 437H447.383C444.387 437 442.539 435.684 442.539 432.296V425.604H440.187V423.084H442.539V420.032H445.535V423.084H450.575V425.604H445.535V432.128C445.535 433.836 446.319 434.284 448.055 434.284H450.575V437ZM466.576 437H463.58V420.956H456.188V418.24H473.94V420.956H466.576V437ZM481.505 437.28C477.585 437.28 475.681 434.676 475.681 431.456V423.084H478.677V430.644C478.677 433.248 479.881 434.564 482.821 434.564C485.901 434.564 487.329 432.996 487.329 429.972V423.084H490.325V437H487.553V432.688H487.385C486.937 435.04 485.089 437.28 481.505 437.28ZM496.096 437H493.072V423.084H495.844V426.836H496.04C496.46 424.596 497.972 422.804 500.828 422.804C503.992 422.804 505.364 425.072 505.364 427.704V429.524H502.368V428.292C502.368 426.304 501.528 425.38 499.456 425.38C497.076 425.38 496.096 426.696 496.096 429.188V437ZM510.287 437H507.263V423.084H510.035V427.396H510.231C510.651 425.044 512.499 422.804 516.027 422.804C519.891 422.804 521.795 425.408 521.795 428.628V437H518.771V429.44C518.771 426.836 517.595 425.52 514.711 425.52C511.659 425.52 510.287 427.088 510.287 430.112V437ZM528.578 437.28C525.694 437.28 523.874 435.936 523.874 433.64C523.874 431.484 525.61 430.364 528.354 430.056L534.682 429.384V428.572C534.682 426.276 533.674 425.464 531.014 425.464C528.438 425.464 527.178 426.304 527.178 428.348V428.46H524.182V428.348C524.182 425.184 526.814 422.804 531.238 422.804C535.662 422.804 537.65 425.212 537.65 428.544V437H534.878V433.528H534.682C533.954 435.88 531.742 437.28 528.578 437.28ZM526.898 433.444C526.898 434.564 527.654 435.096 529.39 435.096C532.554 435.096 534.682 433.92 534.682 431.176L529.222 431.792C527.654 431.988 526.898 432.352 526.898 433.444ZM543.373 437H540.349V423.084H543.121V426.836H543.317C543.737 424.596 545.249 422.804 548.105 422.804C551.269 422.804 552.641 425.072 552.641 427.704V429.524H549.645V428.292C549.645 426.304 548.805 425.38 546.733 425.38C544.353 425.38 543.373 426.696 543.373 429.188V437ZM561.653 437.28C557.033 437.28 553.925 434.34 553.925 430.056C553.925 425.716 557.033 422.804 561.653 422.804C566.301 422.804 569.409 425.716 569.409 430.056C569.409 434.34 566.301 437.28 561.653 437.28ZM561.653 434.592C565.041 434.592 566.441 432.996 566.441 430.056C566.441 427.088 565.041 425.464 561.653 425.464C558.293 425.464 556.893 427.088 556.893 430.056C556.893 432.996 558.293 434.592 561.653 434.592ZM577.399 437.28C573.479 437.28 571.575 434.676 571.575 431.456V423.084H574.571V430.644C574.571 433.248 575.775 434.564 578.715 434.564C581.795 434.564 583.223 432.996 583.223 429.972V423.084H586.219V437H583.447V432.688H583.279C582.831 435.04 580.983 437.28 577.399 437.28ZM591.99 437H588.966V423.084H591.738V427.396H591.934C592.354 425.044 594.202 422.804 597.73 422.804C601.594 422.804 603.498 425.408 603.498 428.628V437H600.474V429.44C600.474 426.836 599.298 425.52 596.414 425.52C593.362 425.52 591.99 427.088 591.99 430.112V437ZM612.325 437.28C607.929 437.28 605.493 434.34 605.493 430.056C605.493 425.716 607.901 422.804 612.129 422.804C615.433 422.804 617.309 424.512 617.869 426.864H618.037V418.24H621.061V437H618.289V432.996H618.093C617.505 435.768 615.461 437.28 612.325 437.28ZM608.545 430.056C608.545 433.388 610.253 434.508 613.249 434.508C616.217 434.508 618.037 433.108 618.037 430.196V429.972C618.037 427.004 616.301 425.548 613.193 425.548C610.281 425.548 608.545 426.696 608.545 430.056ZM486.195 467H483.199V450.956H475.807V448.24H493.559V450.956H486.195V467ZM498.352 451.46H495.328V448.24H498.352V451.46ZM498.352 467H495.328V453.084H498.352V467ZM504.176 467H501.152V453.084H503.924V457.284H504.092C504.456 454.96 505.968 452.804 509.44 452.804C512.604 452.804 514.312 454.736 514.704 457.396H514.872C515.236 455.016 516.804 452.804 520.332 452.804C523.944 452.804 525.764 455.268 525.764 458.628V467H522.768V459.44C522.768 456.696 521.676 455.52 518.988 455.52C516.02 455.52 514.956 457.032 514.956 460.112V467H511.96V459.44C511.96 456.696 510.896 455.52 508.208 455.52C505.212 455.52 504.176 457.032 504.176 460.112V467ZM535.468 467.28C530.904 467.28 527.908 464.704 527.908 460.056C527.908 455.716 530.876 452.804 535.412 452.804C539.724 452.804 542.664 455.184 542.664 459.412C542.664 459.916 542.636 460.308 542.552 460.728H530.736C530.848 463.416 532.164 464.844 535.384 464.844C538.296 464.844 539.5 463.892 539.5 462.24V462.016H542.524V462.268C542.524 465.236 539.612 467.28 535.468 467.28ZM535.356 455.184C532.276 455.184 530.932 456.556 530.764 459.048H539.808V458.992C539.808 456.416 538.324 455.184 535.356 455.184Z" fill="black"/>
<mask id="path-21-inside-1_1_184" fill="white">
<path d="M155 101.321L140 86.3213L145.287 81.0338L155 90.7088L179.713 65.9963L185 71.3213M162.5 41.3213L128.75 56.3213V78.8213C128.75 99.6338 143.15 119.096 162.5 123.821C181.85 119.096 196.25 99.6338 196.25 78.8213V56.3213L162.5 41.3213Z"/>
</mask>
<path d="M155 101.321L140 86.3213L145.287 81.0338L155 90.7088L179.713 65.9963L185 71.3213M162.5 41.3213L128.75 56.3213V78.8213C128.75 99.6338 143.15 119.096 162.5 123.821C181.85 119.096 196.25 99.6338 196.25 78.8213V56.3213L162.5 41.3213Z" fill="#5EA7FF"/>
<path d="M140 86.3213L138.586 84.9071L137.172 86.3213L138.586 87.7355L140 86.3213ZM145.287 81.0338L146.699 79.6168L145.285 78.2081L143.873 79.6196L145.287 81.0338ZM155 90.7088L153.589 92.1257L155.003 93.5345L156.414 92.123L155 90.7088ZM179.713 65.9963L181.132 64.5871L179.718 63.1629L178.298 64.5821L179.713 65.9963ZM162.5 41.3213L163.312 39.4937L162.5 39.1327L161.688 39.4937L162.5 41.3213ZM128.75 56.3213L127.938 54.4937L126.75 55.0215V56.3213H128.75ZM162.5 123.821L162.026 125.764L162.5 125.88L162.974 125.764L162.5 123.821ZM196.25 56.3213H198.25V55.0215L197.062 54.4937L196.25 56.3213ZM156.414 99.9071L141.414 84.9071L138.586 87.7355L153.586 102.736L156.414 99.9071ZM141.414 87.7355L146.702 82.448L143.873 79.6196L138.586 84.9071L141.414 87.7355ZM143.876 82.4507L153.589 92.1257L156.411 89.2918L146.699 79.6168L143.876 82.4507ZM156.414 92.123L181.127 67.4105L178.298 64.5821L153.586 89.2946L156.414 92.123ZM178.293 67.4055L183.581 72.7305L186.419 69.9121L181.132 64.5871L178.293 67.4055ZM161.688 39.4937L127.938 54.4937L129.562 58.1489L163.312 43.1489L161.688 39.4937ZM126.75 56.3213V78.8213H130.75V56.3213H126.75ZM126.75 78.8213C126.75 100.473 141.702 120.801 162.026 125.764L162.974 121.878C144.598 117.391 130.75 98.7949 130.75 78.8213H126.75ZM162.974 125.764C183.298 120.801 198.25 100.473 198.25 78.8213H194.25C194.25 98.7949 180.402 117.391 162.026 121.878L162.974 125.764ZM198.25 78.8213V56.3213H194.25V78.8213H198.25ZM197.062 54.4937L163.312 39.4937L161.688 43.1489L195.438 58.1489L197.062 54.4937Z" fill="black" mask="url(#path-21-inside-1_1_184)"/>
<path d="M154.253 102.741L186.743 70.2505" stroke="black" stroke-width="2"/>
<path d="M45.8459 171.571H42.8219V152.811H52.0059C56.1779 152.811 59.0339 155.191 59.0339 159.363C59.0339 163.507 56.1779 165.915 52.0059 165.915H45.8459V171.571ZM51.7259 155.527H45.8459V163.199H51.7259C54.5539 163.199 56.0099 162.135 56.0099 159.363C56.0099 156.591 54.5539 155.527 51.7259 155.527ZM63.8654 171.571H60.8414V157.655H63.6134V161.407H63.8094C64.2294 159.167 65.7414 157.375 68.5974 157.375C71.7614 157.375 73.1334 159.643 73.1334 162.275V164.095H70.1374V162.863C70.1374 160.875 69.2974 159.951 67.2254 159.951C64.8454 159.951 63.8654 161.267 63.8654 163.759V171.571ZM82.0328 171.851C77.4688 171.851 74.4728 169.275 74.4728 164.627C74.4728 160.287 77.4408 157.375 81.9768 157.375C86.2888 157.375 89.2288 159.755 89.2288 163.983C89.2288 164.487 89.2008 164.879 89.1168 165.299H77.3008C77.4128 167.987 78.7288 169.415 81.9488 169.415C84.8608 169.415 86.0648 168.463 86.0648 166.811V166.587H89.0888V166.839C89.0888 169.807 86.1768 171.851 82.0328 171.851ZM81.9208 159.755C78.8408 159.755 77.4968 161.127 77.3288 163.619H86.3728V163.563C86.3728 160.987 84.8888 159.755 81.9208 159.755ZM94.5178 171.571H91.4938V157.655H94.2658V161.855H94.4338C94.7978 159.531 96.3098 157.375 99.7818 157.375C102.946 157.375 104.654 159.307 105.046 161.967H105.214C105.578 159.587 107.146 157.375 110.674 157.375C114.286 157.375 116.106 159.839 116.106 163.199V171.571H113.11V164.011C113.11 161.267 112.018 160.091 109.33 160.091C106.362 160.091 105.298 161.603 105.298 164.683V171.571H102.302V164.011C102.302 161.267 101.238 160.091 98.5498 160.091C95.5538 160.091 94.5178 161.603 94.5178 164.683V171.571ZM121.834 156.031H118.81V152.811H121.834V156.031ZM121.834 171.571H118.81V157.655H121.834V171.571ZM130.43 171.851C126.51 171.851 124.606 169.247 124.606 166.027V157.655H127.602V165.215C127.602 167.819 128.806 169.135 131.746 169.135C134.826 169.135 136.254 167.567 136.254 164.543V157.655H139.25V171.571H136.478V167.259H136.31C135.862 169.611 134.014 171.851 130.43 171.851ZM145.022 171.571H141.998V157.655H144.77V161.855H144.938C145.302 159.531 146.814 157.375 150.286 157.375C153.45 157.375 155.158 159.307 155.55 161.967H155.718C156.082 159.587 157.65 157.375 161.178 157.375C164.79 157.375 166.61 159.839 166.61 163.199V171.571H163.614V164.011C163.614 161.267 162.522 160.091 159.834 160.091C156.866 160.091 155.802 161.603 155.802 164.683V171.571H152.806V164.011C152.806 161.267 151.742 160.091 149.054 160.091C146.058 160.091 145.022 161.603 145.022 164.683V171.571ZM187.284 171.571H182.832L177.876 152.811H181.236L184.288 164.683L185.128 168.659H185.352L186.36 164.683L190.14 152.811H194.536L198.568 164.683L199.632 168.659H199.856L200.64 164.683L203.44 152.811H206.744L202.04 171.571H197.588L193.808 160.651L192.436 155.835H192.184L190.84 160.651L187.284 171.571ZM211.549 171.571H208.525V157.655H211.297V161.407H211.493C211.913 159.167 213.425 157.375 216.281 157.375C219.445 157.375 220.817 159.643 220.817 162.275V164.095H217.821V162.863C217.821 160.875 216.981 159.951 214.909 159.951C212.529 159.951 211.549 161.267 211.549 163.759V171.571ZM225.74 156.031H222.716V152.811H225.74V156.031ZM225.74 171.571H222.716V157.655H225.74V171.571ZM237.669 171.571H234.477C231.481 171.571 229.633 170.255 229.633 166.867V160.175H227.281V157.655H229.633V154.603H232.629V157.655H237.669V160.175H232.629V166.699C232.629 168.407 233.413 168.855 235.149 168.855H237.669V171.571ZM242.584 156.031H239.56V152.811H242.584V156.031ZM242.584 171.571H239.56V157.655H242.584V171.571ZM248.408 171.571H245.384V157.655H248.156V161.967H248.352C248.772 159.615 250.62 157.375 254.148 157.375C258.012 157.375 259.916 159.979 259.916 163.199V171.571H256.892V164.011C256.892 161.407 255.716 160.091 252.832 160.091C249.78 160.091 248.408 161.659 248.408 164.683V171.571ZM268.659 170.311C264.515 170.311 262.051 167.707 262.051 163.843C262.051 159.979 264.627 157.375 268.855 157.375C271.767 157.375 273.951 158.691 274.455 161.127H274.623V157.655H277.395V169.947C277.395 174.623 274.483 176.611 269.919 176.611C265.803 176.611 262.947 174.679 262.947 171.319H265.943C265.943 173.335 267.119 174.091 270.087 174.091C273.251 174.091 274.399 173.223 274.399 170.115V166.699H274.203C273.699 168.799 271.823 170.311 268.659 170.311ZM265.103 163.843C265.103 166.699 266.783 167.707 269.639 167.707C272.719 167.707 274.399 166.419 274.399 163.955V163.563C274.399 161.211 272.663 160.007 269.723 160.007C266.811 160.007 265.103 160.987 265.103 163.843ZM111.967 201.851C106.367 201.851 103.511 199.387 103.511 195.439V195.271H106.535V195.719C106.535 197.959 107.851 199.079 111.967 199.079C115.551 199.079 116.811 198.295 116.811 196.531C116.811 194.907 115.859 194.291 113.479 193.843L108.887 193.087C105.723 192.527 103.483 191.071 103.483 187.991C103.483 185.275 105.723 182.531 111.547 182.531C117.035 182.531 119.527 185.275 119.527 188.943V189.111H116.531V188.747C116.531 186.451 115.159 185.303 111.267 185.303C107.851 185.303 106.507 186.143 106.507 187.823C106.507 189.447 107.459 189.979 109.671 190.455L114.235 191.239C117.987 191.911 119.835 193.619 119.835 196.363C119.835 199.219 117.511 201.851 111.967 201.851ZM128.982 201.851C124.418 201.851 121.422 199.275 121.422 194.627C121.422 190.287 124.39 187.375 128.926 187.375C133.238 187.375 136.178 189.755 136.178 193.983C136.178 194.487 136.15 194.879 136.066 195.299H124.25C124.362 197.987 125.678 199.415 128.898 199.415C131.81 199.415 133.014 198.463 133.014 196.811V196.587H136.038V196.839C136.038 199.807 133.126 201.851 128.982 201.851ZM128.87 189.755C125.79 189.755 124.446 191.127 124.278 193.619H133.322V193.563C133.322 190.987 131.838 189.755 128.87 189.755ZM141.467 201.571H138.443V187.655H141.215V191.407H141.411C141.831 189.167 143.343 187.375 146.199 187.375C149.363 187.375 150.735 189.643 150.735 192.275V194.095H147.739V192.863C147.739 190.875 146.899 189.951 144.827 189.951C142.447 189.951 141.467 191.267 141.467 193.759V201.571ZM161.566 201.571H157.87L151.374 187.655H154.706L159.662 198.631H159.886L164.842 187.655H168.118L161.566 201.571ZM172.694 186.031H169.67V182.811H172.694V186.031ZM172.694 201.571H169.67V187.655H172.694V201.571ZM182.522 201.851C177.93 201.851 174.934 198.911 174.934 194.627C174.934 190.287 177.93 187.375 182.522 187.375C186.694 187.375 189.746 189.727 189.746 193.199V193.479H186.75V193.311C186.75 191.155 185.182 190.091 182.466 190.091C179.33 190.091 177.93 191.575 177.93 194.627C177.93 197.623 179.33 199.135 182.466 199.135C185.182 199.135 186.75 198.071 186.75 195.915V195.719H189.746V196.027C189.746 199.499 186.694 201.851 182.522 201.851ZM198.982 201.851C194.418 201.851 191.422 199.275 191.422 194.627C191.422 190.287 194.39 187.375 198.926 187.375C203.238 187.375 206.178 189.755 206.178 193.983C206.178 194.487 206.15 194.879 206.066 195.299H194.25C194.362 197.987 195.678 199.415 198.898 199.415C201.81 199.415 203.014 198.463 203.014 196.811V196.587H206.038V196.839C206.038 199.807 203.126 201.851 198.982 201.851ZM198.87 189.755C195.79 189.755 194.446 191.127 194.278 193.619H203.322V193.563C203.322 190.987 201.838 189.755 198.87 189.755ZM215.023 201.851C210.543 201.851 207.995 200.087 207.995 196.867V196.783H211.019V197.007C211.019 198.827 212.111 199.415 215.023 199.415C217.739 199.415 218.551 198.855 218.551 197.623C218.551 196.475 217.879 196.111 215.891 195.831L212.083 195.327C209.451 194.991 207.855 193.871 207.855 191.547C207.855 189.111 210.067 187.375 214.351 187.375C218.607 187.375 221.183 189.083 221.183 192.387V192.471H218.187V192.303C218.187 190.651 217.347 189.783 214.267 189.783C211.719 189.783 210.823 190.343 210.823 191.659C210.823 192.751 211.383 193.143 213.483 193.423L216.703 193.871C220.007 194.291 221.519 195.411 221.519 197.707C221.519 200.311 218.943 201.851 215.023 201.851Z" fill="black"/>
<path d="M523.6 63.2838V64.7838H525.1H553.9C555.063 64.7838 556 65.721 556 66.8838V113.684C556 114.847 555.063 115.784 553.9 115.784H507.1C505.937 115.784 505 114.847 505 113.684V100.971V99.4713H503.5H475.6H474.1V100.971V130.071H469V43.0713H474.1V46.9713V48.4713H475.6H521.5C522.663 48.4713 523.6 49.4085 523.6 50.5713V63.2838ZM474.1 92.8713V94.3713H475.6H517H518.5V92.8713V55.0713V53.5713H517H475.6H474.1V55.0713V92.8713ZM549.4 110.684H550.9V109.184V71.3838V69.8838H549.4H525.1H523.6V71.3838V99.4713H511.6H510.1V100.971V109.184V110.684H511.6H549.4Z" fill="black" stroke="white" stroke-width="3"/>
<rect x="472.61" y="52.0763" width="47.3898" height="43.7721" fill="#00B18F"/>
<path d="M522.107 68.3699H552.404V112.143H508.594V97.979H522.107V68.3699Z" fill="#00B18F"/>
<path d="M396.643 170.851C391.043 170.851 388.187 168.387 388.187 164.439V164.271H391.211V164.719C391.211 166.959 392.527 168.079 396.643 168.079C400.227 168.079 401.487 167.295 401.487 165.531C401.487 163.907 400.535 163.291 398.155 162.843L393.563 162.087C390.399 161.527 388.159 160.071 388.159 156.991C388.159 154.275 390.399 151.531 396.223 151.531C401.711 151.531 404.203 154.275 404.203 157.943V158.111H401.207V157.747C401.207 155.451 399.835 154.303 395.943 154.303C392.527 154.303 391.183 155.143 391.183 156.823C391.183 158.447 392.135 158.979 394.347 159.455L398.911 160.239C402.663 160.911 404.511 162.619 404.511 165.363C404.511 168.219 402.187 170.851 396.643 170.851ZM415.786 170.571H412.594C409.598 170.571 407.75 169.255 407.75 165.867V159.175H405.398V156.655H407.75V153.603H410.746V156.655H415.786V159.175H410.746V165.699C410.746 167.407 411.53 167.855 413.266 167.855H415.786V170.571ZM420.701 170.571H417.677V156.655H420.449V160.407H420.645C421.065 158.167 422.577 156.375 425.433 156.375C428.597 156.375 429.969 158.643 429.969 161.275V163.095H426.973V161.863C426.973 159.875 426.133 158.951 424.061 158.951C421.681 158.951 420.701 160.267 420.701 162.759V170.571ZM435.957 170.851C433.073 170.851 431.253 169.507 431.253 167.211C431.253 165.055 432.989 163.935 435.733 163.627L442.061 162.955V162.143C442.061 159.847 441.053 159.035 438.393 159.035C435.817 159.035 434.557 159.875 434.557 161.919V162.031H431.561V161.919C431.561 158.755 434.193 156.375 438.617 156.375C443.041 156.375 445.029 158.783 445.029 162.115V170.571H442.257V167.099H442.061C441.333 169.451 439.121 170.851 435.957 170.851ZM434.277 167.015C434.277 168.135 435.033 168.667 436.769 168.667C439.933 168.667 442.061 167.491 442.061 164.747L436.601 165.363C435.033 165.559 434.277 165.923 434.277 167.015ZM456.856 170.571H453.664C450.668 170.571 448.82 169.255 448.82 165.867V159.175H446.468V156.655H448.82V153.603H451.816V156.655H456.856V159.175H451.816V165.699C451.816 167.407 452.6 167.855 454.336 167.855H456.856V170.571ZM465.748 170.851C461.184 170.851 458.188 168.275 458.188 163.627C458.188 159.287 461.156 156.375 465.692 156.375C470.004 156.375 472.944 158.755 472.944 162.983C472.944 163.487 472.916 163.879 472.832 164.299H461.016C461.128 166.987 462.444 168.415 465.664 168.415C468.576 168.415 469.78 167.463 469.78 165.811V165.587H472.804V165.839C472.804 168.807 469.892 170.851 465.748 170.851ZM465.636 158.755C462.556 158.755 461.212 160.127 461.044 162.619H470.088V162.563C470.088 159.987 468.604 158.755 465.636 158.755ZM481.257 169.311C477.113 169.311 474.649 166.707 474.649 162.843C474.649 158.979 477.225 156.375 481.453 156.375C484.365 156.375 486.549 157.691 487.053 160.127H487.221V156.655H489.993V168.947C489.993 173.623 487.081 175.611 482.517 175.611C478.401 175.611 475.545 173.679 475.545 170.319H478.541C478.541 172.335 479.717 173.091 482.685 173.091C485.849 173.091 486.997 172.223 486.997 169.115V165.699H486.801C486.297 167.799 484.421 169.311 481.257 169.311ZM477.701 162.843C477.701 165.699 479.381 166.707 482.237 166.707C485.317 166.707 486.997 165.419 486.997 162.955V162.563C486.997 160.211 485.261 159.007 482.321 159.007C479.409 159.007 477.701 159.987 477.701 162.843ZM495.815 155.031H492.791V151.811H495.815V155.031ZM495.815 170.571H492.791V156.655H495.815V170.571ZM505.643 170.851C501.051 170.851 498.055 167.911 498.055 163.627C498.055 159.287 501.051 156.375 505.643 156.375C509.815 156.375 512.867 158.727 512.867 162.199V162.479H509.871V162.311C509.871 160.155 508.303 159.091 505.587 159.091C502.451 159.091 501.051 160.575 501.051 163.627C501.051 166.623 502.451 168.135 505.587 168.135C508.303 168.135 509.871 167.071 509.871 164.915V164.719H512.867V165.027C512.867 168.499 509.815 170.851 505.643 170.851ZM529.1 170.851C523.22 170.851 519.328 167.043 519.328 161.191C519.328 155.339 523.22 151.531 529.1 151.531C535.036 151.531 538.9 155.339 538.9 161.191C538.9 167.043 535.036 170.851 529.1 170.851ZM529.1 167.939C533.552 167.939 535.708 165.867 535.708 161.191C535.708 156.515 533.552 154.415 529.1 154.415C524.648 154.415 522.52 156.515 522.52 161.191C522.52 165.867 524.648 167.939 529.1 167.939ZM546.93 170.851C543.01 170.851 541.106 168.247 541.106 165.027V156.655H544.102V164.215C544.102 166.819 545.306 168.135 548.246 168.135C551.326 168.135 552.754 166.567 552.754 163.543V156.655H555.75V170.571H552.978V166.259H552.81C552.362 168.611 550.514 170.851 546.93 170.851ZM567.626 170.571H564.434C561.438 170.571 559.59 169.255 559.59 165.867V159.175H557.238V156.655H559.59V153.603H562.586V156.655H567.626V159.175H562.586V165.699C562.586 167.407 563.37 167.855 565.106 167.855H567.626V170.571ZM572.541 170.571H569.517V151.811H572.541V170.571ZM578.365 155.031H575.341V151.811H578.365V155.031ZM578.365 170.571H575.341V156.655H578.365V170.571ZM584.19 170.571H581.166V156.655H583.938V160.967H584.134C584.554 158.615 586.402 156.375 589.93 156.375C593.794 156.375 595.698 158.979 595.698 162.199V170.571H592.674V163.011C592.674 160.407 591.498 159.091 588.614 159.091C585.562 159.091 584.19 160.659 584.19 163.683V170.571ZM601.416 155.031H598.392V151.811H601.416V155.031ZM601.416 170.571H598.392V156.655H601.416V170.571ZM607.24 170.571H604.216V156.655H606.988V160.967H607.184C607.604 158.615 609.452 156.375 612.98 156.375C616.844 156.375 618.748 158.979 618.748 162.199V170.571H615.724V163.011C615.724 160.407 614.548 159.091 611.664 159.091C608.612 159.091 607.24 160.659 607.24 163.683V170.571ZM627.491 169.311C623.347 169.311 620.883 166.707 620.883 162.843C620.883 158.979 623.459 156.375 627.687 156.375C630.599 156.375 632.783 157.691 633.287 160.127H633.455V156.655H636.227V168.947C636.227 173.623 633.315 175.611 628.751 175.611C624.635 175.611 621.779 173.679 621.779 170.319H624.775C624.775 172.335 625.951 173.091 628.919 173.091C632.083 173.091 633.231 172.223 633.231 169.115V165.699H633.035C632.531 167.799 630.655 169.311 627.491 169.311ZM623.935 162.843C623.935 165.699 625.615 166.707 628.471 166.707C631.551 166.707 633.231 165.419 633.231 162.955V162.563C633.231 160.211 631.495 159.007 628.555 159.007C625.643 159.007 623.935 159.987 623.935 162.843Z" fill="black"/>
<line x1="341.5" y1="0.333252" x2="341.5" y2="513.833" stroke="black"/>
<line x1="-4.37114e-08" y1="255.833" x2="683" y2="255.833" stroke="black"/>
</svg>
