<svg width="122" height="81" viewBox="0 0 122 81" fill="none" xmlns="http://www.w3.org/2000/svg">
<path fill-rule="evenodd" clip-rule="evenodd" d="M85.5116 56.2182C87.2597 57.9585 88.6001 60.1847 90.6696 59.1029C91.4691 58.6875 92.3235 58.0917 93.0604 57.3862C94.2832 56.2182 95.7569 54.2742 94.5811 52.7221C90.5128 48.8106 82.6975 42.2338 82.674 42.2181L85.1432 39.4197C85.151 39.4275 86.8285 40.9012 89.0077 42.955C91.8454 45.6358 95.8196 48.2462 97.7402 50.927C98.8219 52.4321 98.5946 55.0894 98.0224 56.6494C97.5677 57.9036 96.6819 59.0872 95.6315 60.0906C94.6438 61.0391 93.4758 61.8543 92.3784 62.4187C91.2731 62.991 90.16 63.3202 89.2115 63.328C89.1802 63.477 89.141 63.6337 89.1018 63.7827C88.7882 64.8409 88.1141 65.7659 87.2675 66.5263C86.5071 67.2082 85.59 67.7726 84.6729 68.1803C83.6695 68.6192 82.6191 68.8701 81.6784 68.8857C81.6471 69.1915 81.5844 69.4893 81.4981 69.7872C81.1846 70.8454 80.5105 71.7704 79.6639 72.5308C78.9035 73.2128 77.9864 73.7772 77.0692 74.1848C75.7209 74.7805 74.2786 75.0235 73.1498 74.8276C73.1106 75.2273 73.0322 75.6114 72.9225 75.972V75.9799C72.5854 77.0851 71.9426 78.018 71.1196 78.7078C70.2965 79.3976 69.2931 79.8444 68.2271 79.9933C66.9336 80.1736 65.5619 79.9149 64.339 79.1154C64.0019 78.8959 63.6335 78.6137 63.2024 78.2688L62.9594 78.0807L59.3143 75.2665L61.5876 72.3191L65.2326 75.1333L65.4756 75.3214C65.8127 75.5801 66.0949 75.8074 66.3849 75.9877C66.8082 76.2699 67.2786 76.3561 67.7175 76.3013C68.086 76.2464 68.4309 76.0896 68.7209 75.8466C69.0031 75.6114 69.2304 75.2822 69.348 74.8981C69.4969 74.3886 69.4734 73.7536 69.1991 73.0168C66.0871 68.6741 59.5808 63.4064 59.5652 63.3907L61.9168 60.4982C61.9325 60.5061 64.5663 62.6461 67.3883 65.4053C68.1408 66.1422 68.9717 66.9574 69.8418 67.7334C69.9986 67.8745 70.1632 68.0156 70.32 68.1567C70.3514 68.1881 70.3906 68.2194 70.4219 68.2508C70.6257 68.4311 70.8295 68.6192 71.0333 68.8074C71.7232 69.4266 72.4051 70.0537 73.1185 70.6024C73.9651 71.206 73.9494 71.3314 74.9135 71.0414C75.1174 70.9787 75.3369 70.869 75.572 70.7671C76.1521 70.5162 76.7165 70.1635 77.1711 69.7559C77.5396 69.4188 77.8217 69.066 77.9237 68.7211C78.002 68.4468 77.9472 68.1175 77.6807 67.7491C74.553 63.3986 65.9538 55.842 65.9303 55.8185L68.3995 53.02C68.4152 53.0357 73.1969 57.2373 77.0927 61.3448C78.151 62.3874 79.7266 63.814 80.8632 64.6998C81.2787 64.9977 81.5687 65.3818 82.1958 65.1623C82.4623 65.0682 82.7994 64.935 83.1757 64.7704C83.7557 64.5195 84.3201 64.1668 84.7748 63.7592C85.1432 63.4299 85.4254 63.0693 85.5273 62.7244C85.6057 62.4501 85.5508 62.1209 85.2843 61.7446C82.1566 57.3941 73.5574 49.8375 73.5339 49.8139L76.0032 47.0155C76.011 47.0155 81.506 51.852 85.5116 56.2182Z" fill="#212121"/>
<path fill-rule="evenodd" clip-rule="evenodd" d="M120.692 43.0098L109.154 2.27941L108.652 0.5L106.873 0.986006L92.1043 5.03867L90.2857 5.54035L90.7952 7.34328L91.4929 9.80466C84.4066 10.4474 77.5006 8.93456 71.0571 7.53141C58.2328 4.73295 47.1174 2.31076 38.5339 15.9895C36.2136 19.6972 33.6817 24.1026 33.0938 27.4733C32.2864 32.059 34.0814 34.9986 41.3402 33.666C45.8005 32.8507 48.5519 30.6089 51.1152 28.5159C54.0155 26.1486 56.6259 24.0243 61.6897 25.5293C64.3471 26.6267 64.5901 26.7286 66.6674 28.4767C73.5734 34.2696 89.9878 48.5754 90.1838 48.74L93.5858 51.7344L94.5343 52.5653L95.6553 51.9931L102.475 48.5284L102.89 49.9942L104.678 49.4847L119.407 45.3145L121.202 44.8049L120.692 43.0098ZM95.0909 48.0894L92.6373 45.9337H92.6295C92.5825 45.8945 75.7682 31.236 69.0504 25.6077C66.5341 23.4991 66.2519 23.3815 63.0537 22.0567L62.9753 22.0254L62.8028 21.9626C55.8263 19.854 52.4791 22.5898 48.7635 25.6234C46.553 27.4263 44.1935 29.3546 40.6739 29.9974C37.3816 30.601 36.5036 29.6604 36.778 28.1083C37.264 25.3412 39.5686 21.3591 41.6929 17.9649V17.957C48.8654 6.50453 58.805 8.66804 70.2654 11.1686C77.187 12.6737 84.6182 14.2963 92.5276 13.434L101.432 44.8676L95.0909 48.0894ZM105.454 45.385L94.9028 8.12748L106.073 5.06251L116.601 42.2263L105.454 45.385Z" fill="#212121"/>
<path fill-rule="evenodd" clip-rule="evenodd" d="M31.197 7.33544L30.4523 9.9536C33.7916 10.0241 40.1175 9.96928 45.3852 8.77778L46.2005 12.415C40.0078 13.8181 32.5453 13.7554 29.4097 13.6535L21.0849 43.0412C24.244 44.0367 30.1936 46.6235 30.6718 52.095L26.9484 52.4164C26.6583 49.1006 22.4646 47.3525 20.0659 46.6157L19.6191 48.1913L19.1095 49.9864L17.3223 49.4769L2.59318 45.3066L0.798096 44.7971L1.30762 43.0098L12.8463 2.27941L13.348 0.5L15.1274 0.986006L29.8957 5.03867L31.7143 5.54035L31.197 7.33544ZM16.5463 45.385L27.0973 8.12715L15.927 5.06219L5.39947 42.226L16.5463 45.385Z" fill="#212121"/>
<path fill-rule="evenodd" clip-rule="evenodd" d="M59.2047 69.8735C58.8441 69.607 58.4051 69.5207 57.9818 69.5834C57.5586 69.6462 57.1666 69.8656 56.9001 70.2184L54.0154 74.13H54.0233C53.7567 74.4905 53.6627 74.9373 53.7254 75.3528C53.7881 75.7683 54.0076 76.1602 54.3603 76.4267L54.4152 76.4738C54.7601 76.7089 55.1834 76.7873 55.5832 76.7246C56.0065 76.6619 56.3984 76.4424 56.6649 76.0897L59.5574 72.1703C59.824 71.8097 59.9102 71.3707 59.8475 70.9474C59.7769 70.5319 59.5575 70.14 59.2047 69.8735ZM38.1892 46.8823C39.5688 47.9013 40.4154 49.3907 40.6506 50.9663C40.7525 51.6404 40.7446 52.3302 40.6192 53.0044C41.2385 52.6908 41.9048 52.4792 42.5868 52.3773C44.2251 52.1343 45.9496 52.5027 47.3841 53.5609V53.5688C48.8265 54.627 49.6966 56.1712 49.9396 57.8096C50.0415 58.4602 50.0336 59.1265 49.9317 59.7849C50.1277 59.7379 50.3158 59.6987 50.5118 59.6674C51.9933 59.4479 53.5611 59.7849 54.8545 60.7413L54.9486 60.8197C56.1949 61.776 56.9553 63.1478 57.1748 64.5823C57.2453 65.0291 57.261 65.4837 57.2218 65.9384C57.2924 65.9227 57.3551 65.9149 57.4256 65.907C58.7739 65.7032 60.2162 66.0168 61.4077 66.8947C62.6071 67.7805 63.3282 69.0582 63.5321 70.4144C63.7359 71.7626 63.4223 73.205 62.5365 74.3965L59.644 78.3159C58.7582 79.5152 57.4805 80.2364 56.1244 80.4402C54.7761 80.644 53.3416 80.3304 52.1423 79.4525V79.4603C50.9508 78.5824 50.2218 77.2968 50.0179 75.9329C49.9944 75.7761 49.9788 75.6193 49.9709 75.4625C49.6417 75.5723 49.3046 75.6585 48.9676 75.7056C47.4939 75.925 45.9261 75.588 44.6249 74.6238C43.3236 73.6596 42.5319 72.2643 42.3124 70.7906C42.2654 70.4927 42.2419 70.1949 42.2497 69.8892C41.7558 70.093 41.2463 70.2419 40.7211 70.3203C39.0828 70.5633 37.3583 70.1949 35.9238 69.1366C34.4893 68.0784 33.6113 66.5263 33.3683 64.888C33.2429 64.0806 33.2743 63.2497 33.4702 62.4423C32.9529 62.6775 32.4042 62.8342 31.8476 62.9205C30.272 63.1556 28.6102 62.795 27.2305 61.7838C25.8509 60.7648 25.0043 59.2754 24.7692 57.6998C24.534 56.1242 24.8946 54.4624 25.9058 53.0828H25.9136L29.5038 48.2149C30.5228 46.8274 32.0122 45.9886 33.58 45.7535C35.1399 45.5026 36.8017 45.8632 38.1892 46.8823ZM36.9585 51.515C36.8644 50.8801 36.5274 50.2843 35.9865 49.8845V49.8767C35.4378 49.4769 34.7715 49.3358 34.1287 49.4299C33.4859 49.5239 32.8902 49.861 32.4904 50.4019L28.9002 55.2619H28.908C28.5004 55.8107 28.3593 56.4848 28.4534 57.1197C28.5475 57.7547 28.8845 58.3504 29.4254 58.7502C29.9741 59.1578 30.6483 59.2989 31.2832 59.2049C31.9181 59.1108 32.5139 58.7737 32.9137 58.2329H32.9215L36.5117 53.3728H36.5038C36.9036 52.8241 37.0526 52.1499 36.9585 51.515ZM46.2472 58.3583C46.1453 57.6606 45.7768 57.0022 45.1811 56.5632V56.571C44.5775 56.1242 43.8406 55.9674 43.143 56.0693C42.4375 56.1791 41.7869 56.5397 41.3401 57.1354L37.5461 62.2777C37.1071 62.8813 36.9503 63.6181 37.0522 64.3158C37.1541 65.0134 37.5226 65.664 38.1183 66.1109C38.7219 66.5577 39.4588 66.7144 40.1564 66.6125C40.8619 66.5106 41.5125 66.1422 41.9593 65.5465L45.7533 60.4042C46.2001 59.8006 46.3569 59.0638 46.2472 58.3583ZM53.4824 65.131C53.404 64.5823 53.1218 64.0728 52.6593 63.7357V63.7435C52.189 63.3986 51.6167 63.2732 51.0759 63.3594C50.535 63.4378 50.0255 63.72 49.6884 64.1903L49.6257 64.2687L46.3961 68.6506V68.6585C46.0512 69.121 45.9336 69.6932 46.0198 70.2341C46.1061 70.7828 46.3883 71.2923 46.8507 71.6294C47.3132 71.9743 47.8855 72.0919 48.4342 72.0056C48.9829 71.9194 49.4924 71.6372 49.8295 71.1747L53.1221 66.7144C53.4432 66.252 53.5686 65.6797 53.4824 65.131Z" fill="#212121"/>
</svg>
