<svg width="122" height="91" viewBox="0 0 122 91" fill="none" xmlns="http://www.w3.org/2000/svg">
<path fill-rule="evenodd" clip-rule="evenodd" d="M70.15 43.5657L84.985 54.3273C87.436 56.0465 88.0301 59.4322 86.3109 61.8832C84.5915 64.3343 81.2059 64.9283 78.7548 63.2091L64.9708 53.25L77.4824 62.3509C79.9335 64.0701 80.5275 67.4558 78.8083 69.9069C77.089 72.3578 73.7032 72.9519 71.2523 71.2327L58.2208 61.9006L69.6726 70.1303C72.1236 71.8495 72.7176 75.2352 70.9984 77.6862C69.2792 80.1371 65.8934 80.7311 63.4424 79.012L59.3717 76.1567L59.3458 76.1907L24.4708 52.5657V46.5068C24.4708 44.9986 23.958 43.5353 23.0167 42.357L20.3875 39.0657L37.3543 15.9388L39.7485 17.8938C40.782 18.7376 42.0736 19.2013 43.4078 19.2078L54.8458 19.2622L88.5958 37.9407L85.7764 41.6276L92.2017 46.1347C94.6528 47.8539 95.2468 51.2396 93.5275 53.6907C91.8083 56.1417 88.4226 56.7357 85.9716 55.0165L70.15 43.5657Z" fill="#FFF3DD" stroke="black" stroke-width="1.5" stroke-miterlimit="1.5" stroke-linecap="round" stroke-linejoin="round"/>
<path fill-rule="evenodd" clip-rule="evenodd" d="M38.4553 54.512C40.5148 51.7964 39.9821 47.9197 37.2664 45.8601C34.5507 43.8006 30.6739 44.3333 28.6145 47.049L21.7366 56.1181C19.6771 58.8338 20.2099 62.7105 22.9255 64.77C25.6412 66.8295 29.518 66.2969 31.5775 63.5812L38.4553 54.512Z" fill="#FFF3DD" stroke="black" stroke-width="1.5" stroke-miterlimit="1.5" stroke-linecap="round" stroke-linejoin="round"/>
<path fill-rule="evenodd" clip-rule="evenodd" d="M46.8021 62.265C48.6856 59.7814 48.1984 56.2359 45.7147 54.3524C43.2311 52.4689 39.6856 52.956 37.8021 55.4396L31.1274 64.2408C29.2439 66.7245 29.7311 70.2699 32.2147 72.1535C34.6984 74.037 38.2439 73.5499 40.1274 71.0663L46.8021 62.265Z" fill="#FFF3DD" stroke="black" stroke-width="1.5" stroke-miterlimit="1.5" stroke-linecap="round" stroke-linejoin="round"/>
<path fill-rule="evenodd" clip-rule="evenodd" d="M54.6439 69.472C56.4046 67.1504 55.9491 63.8363 53.6276 62.0757C51.306 60.3151 47.9919 60.7705 46.2313 63.0921L41.0675 69.901C39.3069 72.2226 39.7623 75.5367 42.0838 77.2973C44.4054 79.0579 47.7195 78.6025 49.4802 76.281L54.6439 69.472Z" fill="#FFF3DD" stroke="black" stroke-width="1.5" stroke-miterlimit="1.5" stroke-linecap="round" stroke-linejoin="round"/>
<path fill-rule="evenodd" clip-rule="evenodd" d="M62.9276 76.5842C64.7405 74.1937 64.2716 70.7812 61.8811 68.9683C59.4906 67.1554 56.078 67.6243 54.2651 70.0147L50.5929 74.8569C48.78 77.2474 49.2489 80.66 51.6394 82.4729C54.0299 84.2858 57.4425 83.8168 59.2554 81.4264L62.9276 76.5842Z" fill="#FFF3DD" stroke="black" stroke-width="1.5" stroke-miterlimit="1.5" stroke-linecap="round" stroke-linejoin="round"/>
<path fill-rule="evenodd" clip-rule="evenodd" d="M39.3746 17.7771C40.798 15.8665 40.4025 13.16 38.4921 11.7367L31.5692 6.5789C29.6589 5.15561 26.9523 5.55095 25.5288 7.4615L7.57897 31.5539C6.15553 33.4644 6.55107 36.171 8.46144 37.5943L15.3843 42.7521C17.2947 44.1754 20.0013 43.78 21.4247 41.8695L39.3746 17.7771Z" fill="#5EA7FF" stroke="black" stroke-width="1.5" stroke-miterlimit="1.5" stroke-linecap="round" stroke-linejoin="round"/>
<path fill-rule="evenodd" clip-rule="evenodd" d="M88.5957 14.8441C88.5957 14.8441 86.4797 16.0856 84.783 17.081C83.4345 17.8721 81.8566 18.1799 80.3097 17.9535C75.7846 17.2914 66.0043 15.8606 61.3629 15.1815C59.7583 14.9468 58.1313 15.4264 56.9107 16.494C48.2243 24.0674 43.1759 27.2436 45.8457 30.5938C49.8865 35.6644 56.0026 33.1147 61.1307 29.8771C62.8167 28.8263 64.976 28.9236 66.5607 30.1219C71.3017 33.6996 81.0606 41.0801 86.2778 45.0257C88.5039 46.7093 91.2939 47.4686 94.0663 47.1454C97.6273 46.7303 102.096 46.2094 102.096 46.2094L88.5957 14.8441Z" fill="#FFF3DD" stroke="black" stroke-width="1.5" stroke-miterlimit="1.5" stroke-linecap="round" stroke-linejoin="round"/>
<path fill-rule="evenodd" clip-rule="evenodd" d="M86.9413 15.5507C85.9918 13.2114 87.1201 10.5414 89.4592 9.59196L97.9358 6.15122C100.275 5.20175 102.945 6.32995 103.894 8.6692L116.125 38.8014C117.075 41.1407 115.947 43.8107 113.608 44.7602L105.131 48.2009C102.792 49.1504 100.122 48.0222 99.1723 45.6829L86.9413 15.5507Z" fill="#00B18F" stroke="black" stroke-width="1.5" stroke-miterlimit="1.5" stroke-linecap="round" stroke-linejoin="round"/>
</svg>
