<svg width="60" height="91" viewBox="0 0 60 91" fill="none" xmlns="http://www.w3.org/2000/svg">
<path d="M4.59678 9.70972H55.4032C57.5322 9.70972 59.2581 11.4356 59.2581 13.5646V86.1452C59.2581 88.2742 57.5322 90 55.4032 90H4.59678C2.46781 90 0.741943 88.2742 0.741943 86.1452V13.5646C0.741943 11.4356 2.46781 9.70972 4.59678 9.70972Z" fill="#5EA7FF" stroke="black"/>
<path d="M33.129 4.12903C33.129 5.85715 31.7281 7.25806 30 7.25806C28.2719 7.25806 26.871 5.85715 26.871 4.12903C26.871 2.40092 28.2719 1 30 1C31.7281 1 33.129 2.40092 33.129 4.12903Z" fill="#F3EA79" stroke="black"/>
<path d="M6.54846 15.5161H53.4517V84.1935H6.54846V15.5161Z" fill="white" stroke="black"/>
<path d="M29.9999 64.371C37.6161 64.371 43.7902 58.1968 43.7902 50.5807C43.7902 42.9645 37.6161 36.7903 29.9999 36.7903C22.3837 36.7903 16.2096 42.9645 16.2096 50.5807C16.2096 58.1968 22.3837 64.371 29.9999 64.371Z" stroke="black" stroke-linecap="round" stroke-dasharray="2.93 2.93"/>
<path d="M15.5 10C15.5 6.93908 17.8567 4.5 20.7134 4.5H39.2866C42.1427 4.5 44.5 6.94546 44.5 10V15.5H15.5V10Z" fill="#F3EA79" stroke="black"/>
<path d="M24.1195 51.9727L28.9795 55.2083L35.0879 45.4999" stroke="#00B18F" stroke-width="2" stroke-linecap="round" stroke-linejoin="round"/>
</svg>
