<svg width="150" height="91" viewBox="0 0 150 91" fill="none" xmlns="http://www.w3.org/2000/svg">
<path d="M148.701 90.1774H1.09988C0.930808 90.1774 0.768663 90.1102 0.649114 89.9906C0.529564 89.8711 0.462402 89.7089 0.462402 89.5399C0.462402 89.3708 0.529564 89.2087 0.649114 89.0891C0.768663 88.9696 0.930808 88.9024 1.09988 88.9024H148.701C148.87 88.9024 149.032 88.9696 149.151 89.0891C149.271 89.2087 149.338 89.3708 149.338 89.5399C149.338 89.7089 149.271 89.8711 149.151 89.9906C149.032 90.1102 148.87 90.1774 148.701 90.1774Z" fill="black"/>
<path d="M117.05 7.22284H22.4681C18.5848 7.22284 15.4368 10.3709 15.4368 14.2542V82.5021C15.4368 86.3854 18.5848 89.5335 22.4681 89.5335H117.05C120.933 89.5335 124.081 86.3854 124.081 82.5021V14.2542C124.081 10.3709 120.933 7.22284 117.05 7.22284Z" fill="white"/>
<path d="M117.05 90.1773H22.468C20.4392 90.1773 18.4935 89.3713 17.0589 87.9367C15.6243 86.5021 14.8184 84.5564 14.8184 82.5276V14.2669C14.8184 12.2381 15.6243 10.2923 17.0589 8.85773C18.4935 7.42313 20.4392 6.61719 22.468 6.61719H117.05C119.079 6.61719 121.025 7.42313 122.459 8.85773C123.894 10.2923 124.7 12.2381 124.7 14.2669V82.5085C124.702 83.5146 124.506 84.5114 124.123 85.4417C123.74 86.3721 123.177 87.2176 122.466 87.93C121.755 88.6423 120.911 89.2075 119.982 89.5932C119.053 89.9788 118.056 90.1773 117.05 90.1773ZM22.468 7.89214C20.7774 7.89214 19.1559 8.56376 17.9604 9.75925C16.7649 10.9547 16.0933 12.5762 16.0933 14.2669V82.5085C16.0933 84.1992 16.7649 85.8206 17.9604 87.0161C19.1559 88.2116 20.7774 88.8832 22.468 88.8832H117.05C118.741 88.8832 120.362 88.2116 121.558 87.0161C122.753 85.8206 123.425 84.1992 123.425 82.5085V14.2669C123.425 12.5762 122.753 10.9547 121.558 9.75925C120.362 8.56376 118.741 7.89214 117.05 7.89214H22.468Z" fill="black"/>
<path d="M124.081 14.2669V23.0641H15.4368V14.2669C15.4368 12.4072 16.1756 10.6236 17.4906 9.30856C18.8056 7.99351 20.5892 7.25473 22.449 7.25473H117.05C117.973 7.25221 118.886 7.43173 119.739 7.783C120.592 8.13427 121.368 8.65039 122.021 9.30178C122.674 9.95318 123.192 10.727 123.546 11.5791C123.899 12.4311 124.081 13.3445 124.081 14.2669Z" fill="#F3EA79"/>
<path d="M124.081 23.7015H15.4368C15.2677 23.7015 15.1056 23.6343 14.986 23.5148C14.8665 23.3952 14.7993 23.2331 14.7993 23.064V14.2669C14.7993 12.2381 15.6053 10.2923 17.0399 8.85773C18.4745 7.42313 20.4202 6.61719 22.449 6.61719H117.05C119.079 6.61719 121.025 7.42313 122.459 8.85773C123.894 10.2923 124.7 12.2381 124.7 14.2669V23.064C124.7 23.2298 124.635 23.3891 124.52 23.5082C124.404 23.6272 124.247 23.6965 124.081 23.7015ZM16.0743 22.4265H123.444V14.2669C123.444 12.5762 122.772 10.9547 121.577 9.75925C120.381 8.56376 118.76 7.89214 117.069 7.89214H22.4681C20.7774 7.89214 19.156 8.56376 17.9605 9.75925C16.765 10.9547 16.0934 12.5762 16.0934 14.2669L16.0743 22.4265Z" fill="black"/>
<path d="M45.5574 32.4158H56.8407V43.6991H45.5574V32.4158Z" fill="white"/>
<path d="M56.8471 44.3366H45.5574C45.3883 44.3366 45.2262 44.2694 45.1066 44.1498C44.9871 44.0303 44.9199 43.8682 44.9199 43.6991V32.4158C44.9199 32.2467 44.9871 32.0846 45.1066 31.965C45.2262 31.8455 45.3883 31.7783 45.5574 31.7783H56.8471C57.0161 31.7783 57.1783 31.8455 57.2978 31.965C57.4174 32.0846 57.4845 32.2467 57.4845 32.4158V43.6991C57.4845 43.8682 57.4174 44.0303 57.2978 44.1498C57.1783 44.2694 57.0161 44.3366 56.8471 44.3366ZM46.1949 43.0616H56.2096V33.0533H46.1949V43.0616Z" fill="#DFEAEF"/>
<path d="M64.1143 32.4158H75.3975V43.6991H64.1143V32.4158Z" fill="white"/>
<path d="M75.4039 44.3366H64.1143C63.9452 44.3366 63.7831 44.2694 63.6635 44.1498C63.544 44.0303 63.4768 43.8682 63.4768 43.6991V32.4158C63.4768 32.2467 63.544 32.0846 63.6635 31.965C63.7831 31.8455 63.9452 31.7783 64.1143 31.7783H75.4039C75.573 31.7783 75.7352 31.8455 75.8547 31.965C75.9743 32.0846 76.0414 32.2467 76.0414 32.4158V43.6991C76.0414 43.8682 75.9743 44.0303 75.8547 44.1498C75.7352 44.2694 75.573 44.3366 75.4039 44.3366ZM64.7518 43.0616H74.7665V33.0533H64.7518V43.0616Z" fill="#DFEAEF"/>
<path d="M82.6711 32.4158H93.9544V43.6991H82.6711V32.4158Z" fill="white"/>
<path d="M93.9545 44.3366H82.6712C82.5021 44.3366 82.34 44.2694 82.2204 44.1498C82.1009 44.0303 82.0337 43.8682 82.0337 43.6991V32.4158C82.0337 32.2467 82.1009 32.0846 82.2204 31.965C82.34 31.8455 82.5021 31.7783 82.6712 31.7783H93.9545C94.1235 31.7783 94.2857 31.8455 94.4052 31.965C94.5248 32.0846 94.5919 32.2467 94.5919 32.4158V43.6991C94.5919 43.8682 94.5248 44.0303 94.4052 44.1498C94.2857 44.2694 94.1235 44.3366 93.9545 44.3366ZM83.3086 43.0616H93.317V33.0533H83.3086V43.0616Z" fill="#DFEAEF"/>
<path d="M101.228 32.4158H112.511V43.6991H101.228V32.4158Z" fill="#6C8BE9"/>
<path d="M112.511 44.3366H101.228C101.059 44.3366 100.897 44.2694 100.777 44.1498C100.658 44.0303 100.591 43.8682 100.591 43.6991V32.4158C100.591 32.2467 100.658 32.0846 100.777 31.965C100.897 31.8455 101.059 31.7783 101.228 31.7783H112.511C112.68 31.7783 112.843 31.8455 112.962 31.965C113.082 32.0846 113.149 32.2467 113.149 32.4158V43.6991C113.149 43.8682 113.082 44.0303 112.962 44.1498C112.843 44.2694 112.68 44.3366 112.511 44.3366ZM101.866 43.0616H111.874V33.0533H101.866V43.0616Z" fill="black"/>
<path d="M27.0071 49.5575H38.2904V60.8408H27.0071V49.5575Z" fill="white"/>
<path d="M38.2904 61.4782H27.0071C26.838 61.4782 26.6759 61.4111 26.5563 61.2915C26.4368 61.172 26.3696 61.0098 26.3696 60.8407V49.5575C26.3696 49.3884 26.4368 49.2262 26.5563 49.1067C26.6759 48.9871 26.838 48.92 27.0071 48.92H38.2904C38.4595 48.92 38.6216 48.9871 38.7412 49.1067C38.8607 49.2262 38.9279 49.3884 38.9279 49.5575V60.8407C38.9279 61.0098 38.8607 61.172 38.7412 61.2915C38.6216 61.4111 38.4595 61.4782 38.2904 61.4782ZM27.6446 60.2033H37.6529V50.1949H27.6446V60.2033Z" fill="#DFEAEF"/>
<path d="M45.5574 49.5575H56.8407V60.8408H45.5574V49.5575Z" fill="white"/>
<path d="M56.8471 61.4782H45.5574C45.3883 61.4782 45.2262 61.4111 45.1066 61.2915C44.9871 61.172 44.9199 61.0098 44.9199 60.8407V49.5575C44.9199 49.3884 44.9871 49.2262 45.1066 49.1067C45.2262 48.9871 45.3883 48.92 45.5574 48.92H56.8471C57.0161 48.92 57.1783 48.9871 57.2978 49.1067C57.4174 49.2262 57.4845 49.3884 57.4845 49.5575V60.8407C57.4845 61.0098 57.4174 61.172 57.2978 61.2915C57.1783 61.4111 57.0161 61.4782 56.8471 61.4782ZM46.1949 60.2033H56.2096V50.1949H46.1949V60.2033Z" fill="#DFEAEF"/>
<path d="M64.1143 49.5575H75.3975V60.8408H64.1143V49.5575Z" fill="white"/>
<path d="M75.4039 61.4782H64.1143C63.9452 61.4782 63.7831 61.4111 63.6635 61.2915C63.544 61.172 63.4768 61.0098 63.4768 60.8407V49.5575C63.4768 49.3884 63.544 49.2262 63.6635 49.1067C63.7831 48.9871 63.9452 48.92 64.1143 48.92H75.4039C75.573 48.92 75.7352 48.9871 75.8547 49.1067C75.9743 49.2262 76.0414 49.3884 76.0414 49.5575V60.8407C76.0414 61.0098 75.9743 61.172 75.8547 61.2915C75.7352 61.4111 75.573 61.4782 75.4039 61.4782ZM64.7518 60.2033H74.7665V50.1949H64.7518V60.2033Z" fill="#DFEAEF"/>
<path d="M82.6711 49.5575H93.9544V60.8408H82.6711V49.5575Z" fill="white"/>
<path d="M93.9545 61.4782H82.6712C82.5021 61.4782 82.34 61.4111 82.2204 61.2915C82.1009 61.172 82.0337 61.0098 82.0337 60.8407V49.5575C82.0337 49.3884 82.1009 49.2262 82.2204 49.1067C82.34 48.9871 82.5021 48.92 82.6712 48.92H93.9545C94.1235 48.92 94.2857 48.9871 94.4052 49.1067C94.5248 49.2262 94.5919 49.3884 94.5919 49.5575V60.8407C94.5919 61.0098 94.5248 61.172 94.4052 61.2915C94.2857 61.4111 94.1235 61.4782 93.9545 61.4782ZM83.3086 60.2033H93.317V50.1949H83.3086V60.2033Z" fill="#DFEAEF"/>
<path d="M101.228 49.5575H112.511V60.8408H101.228V49.5575Z" fill="#6C8BE9"/>
<path d="M112.511 61.4782H101.228C101.059 61.4782 100.897 61.4111 100.777 61.2915C100.658 61.172 100.591 61.0098 100.591 60.8407V49.5575C100.591 49.3884 100.658 49.2262 100.777 49.1067C100.897 48.9871 101.059 48.92 101.228 48.92H112.511C112.68 48.92 112.843 48.9871 112.962 49.1067C113.082 49.2262 113.149 49.3884 113.149 49.5575V60.8407C113.149 61.0098 113.082 61.172 112.962 61.2915C112.843 61.4111 112.68 61.4782 112.511 61.4782ZM101.866 60.2033H111.874V50.1949H101.866V60.2033Z" fill="black"/>
<path d="M27.0071 66.6991H38.2904V77.9824H27.0071V66.6991Z" fill="white"/>
<path d="M38.2904 78.6518H27.0071C26.838 78.6518 26.6759 78.5846 26.5563 78.4651C26.4368 78.3455 26.3696 78.1834 26.3696 78.0143V66.731C26.3696 66.562 26.4368 66.3998 26.5563 66.2803C26.6759 66.1607 26.838 66.0936 27.0071 66.0936H38.2904C38.4595 66.0936 38.6216 66.1607 38.7412 66.2803C38.8607 66.3998 38.9279 66.562 38.9279 66.731V78.0143C38.9279 78.1834 38.8607 78.3455 38.7412 78.4651C38.6216 78.5846 38.4595 78.6518 38.2904 78.6518ZM27.6446 77.3769H37.6529V67.3685H27.6446V77.3769Z" fill="#DFEAEF"/>
<path d="M45.5574 66.6991H56.8407V77.9824H45.5574V66.6991Z" fill="white"/>
<path d="M56.8471 78.6518H45.5574C45.3883 78.6518 45.2262 78.5846 45.1066 78.4651C44.9871 78.3455 44.9199 78.1834 44.9199 78.0143V66.731C44.9199 66.562 44.9871 66.3998 45.1066 66.2803C45.2262 66.1607 45.3883 66.0936 45.5574 66.0936H56.8471C57.0161 66.0936 57.1783 66.1607 57.2978 66.2803C57.4174 66.3998 57.4845 66.562 57.4845 66.731V78.0143C57.4845 78.1834 57.4174 78.3455 57.2978 78.4651C57.1783 78.5846 57.0161 78.6518 56.8471 78.6518ZM46.1949 77.3769H56.2096V67.3685H46.1949V77.3769Z" fill="black"/>
<path d="M64.1143 66.6991H75.3975V77.9824H64.1143V66.6991Z" fill="white"/>
<path d="M75.4039 78.6518H64.1143C63.9452 78.6518 63.7831 78.5846 63.6635 78.4651C63.544 78.3455 63.4768 78.1834 63.4768 78.0143V66.731C63.4768 66.562 63.544 66.3998 63.6635 66.2803C63.7831 66.1607 63.9452 66.0936 64.1143 66.0936H75.4039C75.573 66.0936 75.7352 66.1607 75.8547 66.2803C75.9743 66.3998 76.0414 66.562 76.0414 66.731V78.0143C76.0414 78.1834 75.9743 78.3455 75.8547 78.4651C75.7352 78.5846 75.573 78.6518 75.4039 78.6518ZM64.7518 77.3769H74.7665V67.3685H64.7518V77.3769Z" fill="#DFEAEF"/>
<path d="M82.6711 66.6991H93.9544V77.9824H82.6711V66.6991Z" fill="white"/>
<path d="M93.9545 78.6518H82.6712C82.5021 78.6518 82.34 78.5846 82.2204 78.4651C82.1009 78.3455 82.0337 78.1834 82.0337 78.0143V66.731C82.0337 66.562 82.1009 66.3998 82.2204 66.2803C82.34 66.1607 82.5021 66.0936 82.6712 66.0936H93.9545C94.1235 66.0936 94.2857 66.1607 94.4052 66.2803C94.5248 66.3998 94.5919 66.562 94.5919 66.731V78.0143C94.5919 78.1834 94.5248 78.3455 94.4052 78.4651C94.2857 78.5846 94.1235 78.6518 93.9545 78.6518ZM83.3086 77.3769H93.317V67.3685H83.3086V77.3769Z" fill="#DFEAEF"/>
<path d="M42.2109 17.4415C43.8621 17.4415 45.2007 16.1029 45.2007 14.4517C45.2007 12.8005 43.8621 11.462 42.2109 11.462C40.5598 11.462 39.2212 12.8005 39.2212 14.4517C39.2212 16.1029 40.5598 17.4415 42.2109 17.4415Z" fill="black"/>
<path d="M42.2108 18.0917C41.4931 18.093 40.7912 17.8813 40.1938 17.4835C39.5965 17.0857 39.1306 16.5197 38.8551 15.857C38.5796 15.1943 38.5068 14.4648 38.6461 13.7608C38.7853 13.0567 39.1303 12.4098 39.6373 11.9019C40.1443 11.394 40.7906 11.0479 41.4944 10.9074C42.1982 10.767 42.9278 10.8384 43.591 11.1128C44.2541 11.3871 44.821 11.852 45.2199 12.4487C45.6187 13.0453 45.8316 13.7468 45.8316 14.4645C45.8316 15.4254 45.4503 16.347 44.7715 17.0271C44.0926 17.7071 43.1717 18.09 42.2108 18.0917ZM42.2108 12.1122C41.7452 12.111 41.2898 12.2478 40.9022 12.5056C40.5145 12.7633 40.212 13.1302 40.033 13.5599C39.854 13.9896 39.8065 14.4628 39.8965 14.9195C39.9866 15.3762 40.2101 15.7959 40.5388 16.1255C40.8675 16.4552 41.2866 16.6798 41.7431 16.7711C42.1996 16.8624 42.6729 16.8162 43.1031 16.6383C43.5333 16.4605 43.901 16.159 44.1598 15.772C44.4185 15.3851 44.5567 14.93 44.5567 14.4645C44.5583 14.1551 44.4989 13.8483 44.3819 13.5619C44.2648 13.2754 44.0924 13.0149 43.8745 12.7952C43.6565 12.5755 43.3974 12.401 43.1119 12.2816C42.8264 12.1622 42.5202 12.1003 42.2108 12.0995V12.1122Z" fill="black"/>
<path d="M44.2505 3.43624C44.2505 2.30611 43.3344 1.38995 42.2042 1.38995C41.0741 1.38995 40.158 2.30611 40.158 3.43624V13.5848C40.158 14.715 41.0741 15.6311 42.2042 15.6311C43.3344 15.6311 44.2505 14.715 44.2505 13.5848V3.43624Z" fill="white"/>
<path d="M42.2109 16.2686C41.4996 16.2669 40.818 15.9836 40.315 15.4806C39.8121 14.9777 39.5288 14.2961 39.5271 13.5848V3.42983C39.5607 2.73984 39.8585 2.08923 40.3587 1.61279C40.8589 1.13635 41.5232 0.870605 42.2141 0.870605C42.9049 0.870605 43.5692 1.13635 44.0694 1.61279C44.5696 2.08923 44.8674 2.73984 44.901 3.42983V13.5848C44.8993 14.2972 44.6151 14.9798 44.1108 15.4829C43.6065 15.986 42.9232 16.2686 42.2109 16.2686ZM42.2109 2.02739C41.8388 2.02905 41.4824 2.17714 41.2188 2.43961C40.9551 2.70208 40.8054 3.05781 40.802 3.42983V13.5848C40.8261 13.9429 40.9854 14.2785 41.2475 14.5236C41.5097 14.7687 41.8552 14.9051 42.2141 14.9051C42.5729 14.9051 42.9184 14.7687 43.1806 14.5236C43.4428 14.2785 43.602 13.9429 43.6261 13.5848V3.42983C43.6227 3.05671 43.4721 2.70002 43.2071 2.43737C42.942 2.17472 42.584 2.02737 42.2109 2.02739Z" fill="black"/>
<path d="M97.3076 17.4415C98.9588 17.4415 100.297 16.1029 100.297 14.4517C100.297 12.8005 98.9588 11.462 97.3076 11.462C95.6564 11.462 94.3179 12.8005 94.3179 14.4517C94.3179 16.1029 95.6564 17.4415 97.3076 17.4415Z" fill="black"/>
<path d="M97.3076 18.0917C96.5903 18.0917 95.889 17.879 95.2925 17.4804C94.696 17.0819 94.2311 16.5154 93.9565 15.8526C93.682 15.1898 93.6102 14.4605 93.7501 13.7569C93.8901 13.0533 94.2355 12.4069 94.7428 11.8997C95.2501 11.3924 95.8964 11.0469 96.6 10.907C97.3036 10.767 98.0329 10.8389 98.6957 11.1134C99.3585 11.3879 99.925 11.8528 100.324 12.4493C100.722 13.0458 100.935 13.7471 100.935 14.4645C100.935 15.4265 100.553 16.3491 99.8725 17.0293C99.1922 17.7096 98.2696 18.0917 97.3076 18.0917ZM97.3076 12.1122C96.8424 12.1122 96.3876 12.2502 96.0008 12.5087C95.614 12.7671 95.3125 13.1345 95.1344 13.5643C94.9564 13.9942 94.9098 14.4671 95.0006 14.9234C95.0913 15.3797 95.3154 15.7989 95.6443 16.1278C95.9733 16.4568 96.3924 16.6808 96.8487 16.7716C97.305 16.8624 97.778 16.8158 98.2078 16.6377C98.6377 16.4597 99.005 16.1582 99.2635 15.7714C99.522 15.3845 99.6599 14.9297 99.6599 14.4645C99.6616 14.1545 99.602 13.8473 99.4845 13.5604C99.3671 13.2735 99.1941 13.0127 98.9755 12.7929C98.7569 12.5732 98.497 12.3988 98.2108 12.2797C97.9246 12.1607 97.6176 12.0995 97.3076 12.0995V12.1122Z" fill="black"/>
<path d="M99.3538 3.43624C99.3538 2.30611 98.4377 1.38995 97.3075 1.38995C96.1774 1.38995 95.2612 2.30611 95.2612 3.43624V13.5848C95.2612 14.715 96.1774 15.6311 97.3075 15.6311C98.4377 15.6311 99.3538 14.715 99.3538 13.5848V3.43624Z" fill="white"/>
<path d="M97.3075 16.2686C96.5963 16.2669 95.9146 15.9836 95.4117 15.4807C94.9088 14.9777 94.6255 14.2961 94.6238 13.5848V3.42986C94.6238 2.71808 94.9065 2.03545 95.4098 1.53215C95.9131 1.02885 96.5958 0.746094 97.3075 0.746094C98.0193 0.746094 98.702 1.02885 99.2053 1.53215C99.7086 2.03545 99.9913 2.71808 99.9913 3.42986V13.5848C99.9896 14.2961 99.7063 14.9777 99.2034 15.4807C98.7005 15.9836 98.0188 16.2669 97.3075 16.2686ZM97.3075 2.02742C96.935 2.02741 96.5776 2.17497 96.3136 2.43779C96.0496 2.70062 95.9004 3.05732 95.8987 3.42986V13.5848C95.8987 13.9585 96.0472 14.3168 96.3114 14.581C96.5756 14.8452 96.9339 14.9936 97.3075 14.9936C97.6812 14.9936 98.0395 14.8452 98.3037 14.581C98.5679 14.3168 98.7164 13.9585 98.7164 13.5848V3.42986C98.7147 3.05732 98.5655 2.70062 98.3015 2.43779C98.0375 2.17497 97.6801 2.02741 97.3075 2.02742Z" fill="black"/>
<path d="M50.2236 75.9425C50.144 75.9413 50.0648 75.9306 49.9877 75.9106C49.845 75.8735 49.713 75.8034 49.6023 75.7059C49.4916 75.6085 49.4053 75.4865 49.3502 75.3497L47.4378 70.779C47.3863 70.6625 47.3586 70.5368 47.3564 70.4095C47.3541 70.2821 47.3773 70.1555 47.4246 70.0373C47.4719 69.919 47.5424 69.8114 47.6319 69.7207C47.7214 69.6301 47.8281 69.5582 47.9458 69.5093C48.0634 69.4605 48.1897 69.4357 48.317 69.4363C48.4444 69.4369 48.5704 69.4629 48.6876 69.5129C48.8048 69.5629 48.9108 69.6358 48.9994 69.7273C49.088 69.8189 49.1574 69.9272 49.2036 70.0459L50.5997 73.4245L58.8231 66.68C58.9197 66.5961 59.0321 66.5325 59.1537 66.4928C59.2753 66.4532 59.4036 66.4383 59.531 66.4491C59.6585 66.4599 59.7825 66.4962 59.8957 66.5558C60.0088 66.6154 60.1089 66.6971 60.19 66.796C60.271 66.895 60.3314 67.0092 60.3675 67.1319C60.4036 67.2546 60.4147 67.3833 60.4002 67.5104C60.3857 67.6375 60.3458 67.7604 60.283 67.8718C60.2201 67.9832 60.1356 68.0808 60.0343 68.159L50.8164 75.7258C50.6488 75.8626 50.4399 75.939 50.2236 75.9425Z" fill="#00B18F"/>
<path d="M2.0068 29.5852L4.13305 27.7074C4.66528 27.2373 5.36245 26.9979 6.07117 27.0419C6.7799 27.0859 7.44213 27.4096 7.91218 27.9418L36.3203 60.1079L30.1805 65.5304L1.77657 33.3691C1.54284 33.1057 1.36336 32.7988 1.24841 32.466C1.13346 32.1331 1.0853 31.7809 1.10669 31.4294C1.12808 31.0779 1.21858 30.7341 1.37304 30.4176C1.5275 30.1012 1.74286 29.8183 2.0068 29.5852Z" fill="#F3EA79"/>
<path d="M30.1817 66.1828H30.137C29.9706 66.1721 29.815 66.0965 29.7036 65.9724L1.27859 33.7991C0.989234 33.4729 0.767081 33.0928 0.624862 32.6805C0.482643 32.2683 0.423151 31.8321 0.449799 31.3969C0.476447 30.9616 0.588711 30.5359 0.780155 30.1441C0.971599 29.7523 1.23846 29.4021 1.56546 29.1137L3.69462 27.2395C4.35315 26.6571 5.21607 26.3601 6.09356 26.4139C6.97105 26.4677 7.79123 26.8678 8.37368 27.5263L36.7795 59.6997C36.891 59.8265 36.9475 59.9924 36.9367 60.1609C36.926 60.3295 36.8488 60.4868 36.7222 60.5985L30.6024 66.0234C30.4862 66.1259 30.3366 66.1825 30.1817 66.1828ZM5.90666 27.6857C5.40895 27.6846 4.9281 27.866 4.55521 28.1957L2.43242 30.0699C2.23061 30.2468 2.0658 30.4619 1.94751 30.7027C1.82921 30.9436 1.75977 31.2055 1.74317 31.4734C1.72658 31.7412 1.76317 32.0097 1.85083 32.2634C1.93849 32.517 2.07549 32.7508 2.25393 32.9512L30.2327 64.6273L35.4217 60.0503L7.4366 28.3614C7.24459 28.1461 7.00871 27.9744 6.74482 27.8579C6.48092 27.7413 6.19513 27.6826 5.90666 27.6857Z" fill="black"/>
<path d="M36.3205 60.114L38.9788 66.6035L41.0442 71.6523L36.2887 68.9813L30.1753 65.5453L36.3205 60.114Z" fill="white"/>
<path d="M41.0441 72.277C40.9345 72.2767 40.827 72.2482 40.7317 72.1942L29.8946 66.0872C29.8062 66.0367 29.7311 65.9659 29.6756 65.8805C29.6202 65.7951 29.586 65.6976 29.5759 65.5963C29.5655 65.4958 29.5791 65.3942 29.6157 65.3C29.6523 65.2058 29.7108 65.1216 29.7863 65.0544L35.9315 59.6232C36.008 59.5562 36.0995 59.5086 36.1982 59.4842C36.2969 59.4598 36.4 59.4594 36.4989 59.4829C36.5978 59.5056 36.6899 59.5515 36.7675 59.6169C36.8452 59.6823 36.906 59.7653 36.9451 59.859L41.6624 71.3973C41.713 71.5197 41.7243 71.6549 41.6946 71.784C41.6649 71.9131 41.5957 72.0297 41.4967 72.1177C41.3723 72.2277 41.2099 72.2849 41.0441 72.277ZM31.2716 65.4178L39.7564 70.1861L36.0718 61.1722L31.2716 65.4178Z" fill="black"/>
<path d="M38.5454 65.5453L41.0443 71.6524L35.1541 68.3439L38.5454 65.5453Z" fill="#00B18F"/>
<path d="M41.0441 72.277C40.9346 72.2767 40.8271 72.2481 40.7318 72.1941L34.8415 68.8856C34.751 68.8354 34.6741 68.7638 34.6175 68.6772C34.5609 68.5906 34.5262 68.4915 34.5164 68.3884C34.5073 68.2853 34.5234 68.1814 34.5634 68.0859C34.6033 67.9904 34.666 67.906 34.7459 67.8402L38.1373 65.0417C38.2142 64.9783 38.3049 64.9338 38.4022 64.9119C38.4994 64.8899 38.6005 64.8911 38.6972 64.9153C38.7939 64.9395 38.8836 64.986 38.959 65.0511C39.0345 65.1162 39.0937 65.1981 39.1317 65.2903L41.6306 71.3973C41.6813 71.5197 41.6925 71.6548 41.6628 71.7839C41.6331 71.913 41.5639 72.0297 41.4649 72.1176C41.3487 72.2201 41.1991 72.2768 41.0441 72.277ZM36.2758 68.229L39.7564 70.1861L38.252 66.5907L36.2758 68.229Z" fill="black"/>
<path d="M133.873 78.1291C133.873 78.1291 128.104 66.3677 128.907 58.4184C128.907 58.4184 133.548 60.5157 135.785 66.7056C139.202 76.1784 138.412 78.1355 138.412 78.1355L133.873 78.1291Z" fill="#00B18F"/>
<path d="M138.412 78.7793H133.873C133.755 78.7783 133.639 78.7444 133.539 78.6814C133.439 78.6183 133.358 78.5286 133.306 78.4223C133.064 77.9378 127.46 66.4059 128.27 58.3674C128.28 58.266 128.314 58.1686 128.37 58.0832C128.425 57.9978 128.5 57.9269 128.589 57.8765C128.678 57.8306 128.778 57.8067 128.879 57.8067C128.979 57.8067 129.079 57.8306 129.169 57.8765C129.366 57.9658 134.084 60.1587 136.385 66.5334C139.713 75.764 139.152 78.0526 139.005 78.4159C138.952 78.5274 138.868 78.621 138.762 78.6856C138.657 78.7501 138.535 78.7826 138.412 78.7793ZM134.281 77.5043H137.857C137.857 76.5609 137.653 73.7687 135.186 66.9286C134.132 63.8904 132.118 61.2773 129.449 59.4829C129.258 66.3294 133.382 75.5792 134.281 77.498V77.5043Z" fill="black"/>
<path d="M136.621 77.5617C136.621 77.5617 132.286 60.7898 138.533 49.5575C138.533 49.5575 142.122 53.6628 142.995 63.5819C143.447 68.3082 142.548 73.0657 140.401 77.3004L136.621 77.5617Z" fill="#00B18F"/>
<path d="M136.621 78.1992C136.476 78.2038 136.334 78.1589 136.218 78.072C136.102 77.9851 136.019 77.8613 135.983 77.7211C135.223 74.4676 134.757 71.152 134.594 67.8147C134.313 62.6193 134.67 55.1864 137.959 49.2515C138.009 49.1618 138.08 49.0855 138.165 49.0289C138.251 48.9723 138.348 48.9371 138.45 48.9264C138.552 48.9157 138.656 48.9298 138.751 48.9676C138.846 49.0053 138.931 49.0655 138.999 49.1431C139.145 49.3152 142.728 53.5162 143.595 63.5437C144.071 68.4034 143.142 73.2976 140.917 77.6446C140.865 77.7335 140.792 77.8084 140.704 77.8628C140.616 77.9172 140.517 77.9495 140.414 77.9569L136.659 78.2056L136.621 78.1992ZM138.597 50.7878C133.81 60.5411 136.487 74.113 137.112 76.9242L139.974 76.733C141.914 72.6729 142.726 68.1658 142.326 63.6839C141.708 56.4613 139.611 52.3815 138.597 50.775V50.7878Z" fill="black"/>
<path d="M138.489 77.039C138.489 77.039 139.834 65.8386 148.886 58.5522C148.886 58.5522 151.557 66.8968 144.073 78.0526L138.489 77.039Z" fill="#00B18F"/>
<path d="M144.073 78.6517H143.964L138.38 77.6637C138.22 77.6355 138.077 77.5472 137.979 77.4168C137.882 77.2865 137.839 77.1239 137.857 76.9624C137.915 76.4971 139.336 65.4178 148.484 58.0358C148.565 57.9702 148.661 57.9255 148.763 57.9055C148.865 57.8855 148.971 57.8908 149.07 57.9211C149.169 57.9511 149.258 58.0045 149.332 58.0766C149.405 58.1488 149.46 58.2376 149.491 58.3354C149.606 58.6861 152.169 67.1007 144.602 78.384C144.542 78.4682 144.462 78.5365 144.37 78.5831C144.278 78.6298 144.176 78.6533 144.073 78.6517ZM139.221 76.5098L143.773 77.313C149.287 68.892 148.873 62.122 148.484 59.6869C141.58 65.7748 139.61 74.2213 139.221 76.5226V76.5098Z" fill="black"/>
<path d="M144.691 89.6163H133.299L131.61 75.7513H146.374L144.691 89.6163Z" fill="white"/>
<path d="M144.71 90.2538H133.299C133.143 90.255 132.991 90.1984 132.874 90.0949C132.756 89.9915 132.681 89.8484 132.662 89.6929L130.972 75.8278C130.962 75.7384 130.971 75.6478 130.999 75.5621C131.026 75.4764 131.072 75.3975 131.132 75.3306C131.192 75.2626 131.265 75.2081 131.348 75.1707C131.43 75.1333 131.519 75.1139 131.61 75.1138H146.367C146.458 75.1139 146.547 75.1333 146.63 75.1707C146.712 75.2081 146.786 75.2626 146.846 75.3306C146.906 75.3975 146.951 75.4764 146.979 75.5621C147.006 75.6478 147.015 75.7384 147.005 75.8278L145.348 89.6929C145.329 89.8484 145.253 89.9915 145.136 90.0949C145.018 90.1984 144.867 90.255 144.71 90.2538ZM133.873 88.9789H144.13L145.666 76.3888H132.33L133.873 88.9789Z" fill="black"/>
</svg>
