<svg width="37" height="52" viewBox="0 0 37 52" fill="none" xmlns="http://www.w3.org/2000/svg">
<path fill-rule="evenodd" clip-rule="evenodd" d="M17.7021 35.4509C15.983 35.6203 14.6389 37.0718 14.6389 38.8346C14.6389 40.5974 15.983 42.0486 17.7021 42.2179V51.0023C17.7021 51.311 17.5088 51.5865 17.2187 51.6919C16.9286 51.797 16.6031 51.7094 16.4054 51.4723L0.448446 32.3641C-0.0206562 31.8027 -0.131229 31.0245 0.161746 30.3547L6.89334 14.9677V14.9673C12.8628 14.9673 17.7021 19.8063 17.7021 25.7756V35.4509Z" fill="#00B18F"/>
<path fill-rule="evenodd" clip-rule="evenodd" d="M18.4227 35.4559V25.7756C18.4227 19.8063 23.2619 14.9673 29.2314 14.9673L35.963 30.3547C36.256 31.0245 36.1454 31.8027 35.6763 32.3641L19.7194 51.4723C19.5216 51.7094 19.1962 51.797 18.906 51.6919C18.6159 51.5865 18.4227 51.311 18.4227 51.0023V42.213C20.119 42.0223 21.4391 40.5814 21.4391 38.8346C21.4391 37.0878 20.119 35.6469 18.4227 35.4559Z" fill="#00B18F"/>
<path fill-rule="evenodd" clip-rule="evenodd" d="M27.8937 13.8056H27.1168C27.3749 13.795 27.6343 13.7949 27.8937 13.8056ZM8.22846 13.8056C8.48849 13.7949 8.74724 13.795 9.00535 13.8056H8.22846ZM8.22846 13.8056H6.8938V3.02432C6.8938 1.49991 8.13006 0.26416 9.65446 0.26416H14.2762V6.44988C15.4953 5.95883 17.0088 4.14788 18.1396 1.28818C19.1612 4.14788 20.5278 5.95883 21.628 6.44988V0.26416H26.4702C27.9946 0.26416 29.2309 1.49991 29.2309 3.02432V13.8056H27.8937L27.6132 13.7941C22.2752 13.5745 18.0611 9.1834 18.0611 3.84115C18.0611 9.1834 13.8469 13.5745 8.50893 13.7941L8.22846 13.8056Z" fill="#00B18F"/>
</svg>
