<svg width="283" height="70" viewBox="0 0 283 70" fill="none" xmlns="http://www.w3.org/2000/svg">
<path fill-rule="evenodd" clip-rule="evenodd" d="M34.1401 44.451C32.421 44.6204 31.0769 46.0719 31.0769 47.8347C31.0769 49.5975 32.421 51.0487 34.1401 51.218V60.0024C34.1401 60.3111 33.9468 60.5866 33.6567 60.692C33.3666 60.7971 33.0411 60.7095 32.8433 60.4724L16.8864 41.3642C16.4173 40.8028 16.3068 40.0246 16.5997 39.3548L23.3313 23.9678V23.9674C29.3008 23.9674 34.1401 28.8064 34.1401 34.7757V44.451Z" fill="#246AF3"/>
<path fill-rule="evenodd" clip-rule="evenodd" d="M34.8607 44.456V34.7757C34.8607 28.8064 39.6999 23.9674 45.6694 23.9674L52.401 39.3548C52.694 40.0246 52.5834 40.8028 52.1143 41.3642L36.1574 60.4724C35.9596 60.7095 35.6342 60.7971 35.344 60.692C35.0539 60.5866 34.8607 60.3111 34.8607 60.0024V51.2131C36.557 51.0224 37.8771 49.5815 37.8771 47.8347C37.8771 46.0879 36.557 44.647 34.8607 44.456Z" fill="#246AF3"/>
<path fill-rule="evenodd" clip-rule="evenodd" d="M44.3317 22.8057H43.5548C43.8129 22.7951 44.0723 22.7949 44.3317 22.8057ZM24.6665 22.8057C24.9265 22.7949 25.1853 22.7951 25.4434 22.8057H24.6665ZM24.6665 22.8057H23.3318V12.0244C23.3318 10.5 24.5681 9.26422 26.0925 9.26422H30.7143V15.4499C31.9333 14.9589 33.4468 13.1479 34.5777 10.2882C35.5993 13.1479 36.9659 14.9589 38.0661 15.4499V9.26422H42.9083C44.4327 9.26422 45.6689 10.5 45.6689 12.0244V22.8057H44.3317L44.0512 22.7941C38.7133 22.5746 34.4991 18.1835 34.4991 12.8412C34.4991 18.1835 30.285 22.5746 24.947 22.7941L24.6665 22.8057Z" fill="#246AF3"/>
<path d="M83.5639 32.5H75.5359L69.8479 8.38H75.8959L78.8119 22.06L79.6399 27.352H80.0359L81.1519 22.06L85.1839 8.38H93.2119L97.2079 22.06L98.3239 27.352H98.7199L99.5479 22.06L102.464 8.38H108.368L102.644 32.5H94.6159L91.0159 20.44L89.3239 13.492H88.9279L87.2359 20.44L83.5639 32.5ZM115.632 32.5H110.232V8.38H123.552C129.492 8.38 132.876 11.008 132.876 15.616C132.876 19.54 130.608 21.88 126.072 22.312V22.6C128.232 23.176 129.06 24.328 129.96 26.02L133.452 32.5H127.188L123.876 26.236C122.904 24.364 122.004 23.752 119.196 23.752H115.632V32.5ZM115.632 13.24V19.684H123.516C126.072 19.684 127.224 18.964 127.224 16.444C127.224 14.068 126.072 13.24 123.516 13.24H115.632ZM149.45 32.5H144.014V24.508L133.322 8.38H139.982L144.59 15.436L146.606 18.676H147.002L149.018 15.436L153.626 8.38H160.322L149.45 24.544V32.5ZM174.777 32.5H169.377V13.24H160.413V8.38H183.741V13.24H174.777V32.5ZM198.097 32.86C190.105 32.86 185.137 27.964 185.137 20.44C185.137 12.916 190.105 8.02 198.097 8.02C206.269 8.02 211.201 12.916 211.201 20.44C211.201 27.964 206.269 32.86 198.097 32.86ZM198.097 27.676C203.389 27.676 205.441 25.804 205.441 20.44C205.441 15.076 203.389 13.204 198.097 13.204C192.805 13.204 190.861 15.076 190.861 20.44C190.861 25.804 192.805 27.676 198.097 27.676ZM218.956 32.5H213.556V8.38H226.156C231.736 8.38 235.336 11.548 235.336 17.092C235.336 22.636 231.736 25.84 226.156 25.84H218.956V32.5ZM225.58 13.24H218.956V20.98H225.58C228.568 20.98 229.972 20.116 229.972 17.092C229.972 14.14 228.568 13.24 225.58 13.24ZM242.651 32.5H237.251V8.38H242.651V32.5ZM249.906 32.5H243.858L254.406 8.38H262.11L272.73 32.5H266.538L264.27 27.172H252.21L249.906 32.5ZM256.566 17.056L254.298 22.312H262.182L259.914 17.056L258.438 13.312H258.042L256.566 17.056Z" fill="#246AF3"/>
<path d="M69.7205 44.3357C67.3622 44.4939 71.4707 43.4973 72.4498 43.4224C77.9197 43.0044 83.4023 42.625 88.8961 42.281C102.671 41.4184 116.519 40.7901 130.386 40.3538C168.521 39.154 207.194 39.0962 245.239 40.973C253.527 41.3819 276.675 41.2453 282.154 45.0846C288.778 49.7261 254.45 49.6653 251.37 49.708C223.058 50.101 194.726 49.9348 166.432 50.6581C157.66 50.8824 148.194 50.9323 139.676 52.0634C132.667 52.9941 157.12 55.0961 160.39 55.3797C165.726 55.8426 171.082 56.2554 176.447 56.6403C186.258 57.3442 196.098 57.9597 205.957 58.5C195.951 58.1259 185.954 57.6726 175.98 57.1461C164.519 56.5411 152.699 56.0156 141.551 54.578C123.151 52.2052 148.593 49.6675 154.794 49.3045C159.707 49.0168 164.637 48.7889 169.57 48.5863C195.178 47.5346 220.907 47.0955 246.599 46.7898C256.008 46.6779 266.214 46.7969 275.409 45.694C278.35 45.3413 260.095 44.6684 250.924 44.074C244.787 43.6763 238.63 43.3496 232.464 43.067C222.04 42.5894 211.588 42.2404 201.128 41.9881C183.555 41.5642 165.948 41.4118 148.353 41.5407C122.037 41.7334 95.7747 42.5882 69.7205 44.3357Z" fill="#246AF3"/>
</svg>
