<svg width="271" height="53" viewBox="0 0 271 53" fill="none" xmlns="http://www.w3.org/2000/svg">
<path fill-rule="evenodd" clip-rule="evenodd" d="M17.7021 36.4509C15.983 36.6203 14.6389 38.0718 14.6389 39.8346C14.6389 41.5974 15.983 43.0486 17.7021 43.2179V52.0023C17.7021 52.311 17.5088 52.5865 17.2187 52.6919C16.9286 52.797 16.6031 52.7094 16.4054 52.4723L0.448446 33.3641C-0.0206562 32.8027 -0.131229 32.0245 0.161746 31.3547L6.89334 15.9677V15.9673C12.8628 15.9673 17.7021 20.8063 17.7021 26.7756V36.4509Z" fill="#00B18F"/>
<path fill-rule="evenodd" clip-rule="evenodd" d="M18.4227 36.4559V26.7756C18.4227 20.8063 23.2619 15.9673 29.2314 15.9673L35.963 31.3547C36.256 32.0245 36.1454 32.8027 35.6763 33.3641L19.7194 52.4723C19.5216 52.7094 19.1962 52.797 18.906 52.6919C18.6159 52.5865 18.4227 52.311 18.4227 52.0023V43.213C20.119 43.0223 21.4391 41.5814 21.4391 39.8346C21.4391 38.0878 20.119 36.6469 18.4227 36.4559Z" fill="#00B18F"/>
<path fill-rule="evenodd" clip-rule="evenodd" d="M27.8937 14.8056H27.1168C27.3749 14.795 27.6343 14.7949 27.8937 14.8056ZM8.22846 14.8056C8.48849 14.7949 8.74724 14.795 9.00535 14.8056H8.22846ZM8.22846 14.8056H6.8938V4.02432C6.8938 2.49991 8.13006 1.26416 9.65446 1.26416H14.2762V7.44988C15.4953 6.95883 17.0088 5.14788 18.1396 2.28818C19.1612 5.14788 20.5278 6.95883 21.628 7.44988V1.26416H26.4702C27.9946 1.26416 29.2309 2.49991 29.2309 4.02432V14.8056H27.8937L27.6132 14.7941C22.2752 14.5745 18.0611 10.1834 18.0611 4.84115C18.0611 10.1834 13.8469 14.5745 8.50893 14.7941L8.22846 14.8056Z" fill="#00B18F"/>
<path d="M70.6879 24.5H62.6599L56.9719 0.379999H63.0199L65.9359 14.06L66.7639 19.352H67.1599L68.2759 14.06L72.3079 0.379999H80.3359L84.3319 14.06L85.4479 19.352H85.8439L86.6719 14.06L89.5879 0.379999H95.4919L89.7679 24.5H81.7399L78.1399 12.44L76.4479 5.492H76.0519L74.3599 12.44L70.6879 24.5ZM102.756 24.5H97.3558V0.379999H110.676C116.616 0.379999 120 3.008 120 7.616C120 11.54 117.732 13.88 113.196 14.312V14.6C115.356 15.176 116.184 16.328 117.084 18.02L120.576 24.5H114.312L111 18.236C110.028 16.364 109.128 15.752 106.32 15.752H102.756V24.5ZM102.756 5.24V11.684H110.64C113.196 11.684 114.348 10.964 114.348 8.444C114.348 6.068 113.196 5.24 110.64 5.24H102.756ZM136.574 24.5H131.138V16.508L120.446 0.379999H127.106L131.714 7.436L133.73 10.676H134.126L136.142 7.436L140.75 0.379999H147.446L136.574 16.544V24.5ZM161.901 24.5H156.501V5.24H147.537V0.379999H170.865V5.24H161.901V24.5ZM185.221 24.86C177.229 24.86 172.261 19.964 172.261 12.44C172.261 4.916 177.229 0.0199997 185.221 0.0199997C193.393 0.0199997 198.325 4.916 198.325 12.44C198.325 19.964 193.393 24.86 185.221 24.86ZM185.221 19.676C190.513 19.676 192.565 17.804 192.565 12.44C192.565 7.076 190.513 5.204 185.221 5.204C179.929 5.204 177.985 7.076 177.985 12.44C177.985 17.804 179.929 19.676 185.221 19.676ZM206.08 24.5H200.68V0.379999H213.28C218.86 0.379999 222.46 3.548 222.46 9.092C222.46 14.636 218.86 17.84 213.28 17.84H206.08V24.5ZM212.704 5.24H206.08V12.98H212.704C215.692 12.98 217.096 12.116 217.096 9.092C217.096 6.14 215.692 5.24 212.704 5.24ZM229.775 24.5H224.375V0.379999H229.775V24.5ZM237.03 24.5H230.982L241.53 0.379999H249.234L259.854 24.5H253.662L251.394 19.172H239.334L237.03 24.5ZM243.69 9.056L241.422 14.312H249.306L247.038 9.056L245.562 5.312H245.166L243.69 9.056Z" fill="#00B18F"/>
<path d="M56.8445 36.3357C54.4863 36.4939 58.5947 35.4973 59.5738 35.4224C65.0438 35.0044 70.5263 34.625 76.0201 34.281C89.7954 33.4184 103.643 32.7901 117.51 32.3538C155.645 31.154 194.318 31.0962 232.363 32.973C240.651 33.3819 263.799 33.2453 269.278 37.0846C275.902 41.7261 241.574 41.6653 238.494 41.708C210.182 42.101 181.85 41.9348 153.556 42.6581C144.784 42.8824 135.318 42.9323 126.8 44.0634C119.791 44.9941 144.244 47.0961 147.514 47.3797C152.85 47.8426 158.206 48.2554 163.571 48.6403C173.382 49.3442 183.222 49.9597 193.081 50.5C183.075 50.1259 173.078 49.6726 163.104 49.1461C151.643 48.5411 139.823 48.0156 128.675 46.578C110.275 44.2052 135.717 41.6675 141.918 41.3045C146.831 41.0168 151.761 40.7889 156.694 40.5863C182.302 39.5346 208.031 39.0955 233.723 38.7898C243.132 38.6779 253.338 38.7969 262.533 37.694C265.474 37.3413 247.219 36.6684 238.048 36.074C231.911 35.6763 225.754 35.3496 219.588 35.067C209.164 34.5894 198.712 34.2404 188.252 33.9881C170.679 33.5642 153.072 33.4118 135.477 33.5407C109.161 33.7334 82.8988 34.5882 56.8445 36.3357Z" fill="#00B18F"/>
</svg>
