<svg width="215" height="51" viewBox="0 0 215 51" fill="none" xmlns="http://www.w3.org/2000/svg">
<path d="M14.6879 24.5H6.65993L0.971928 0.379999H7.01993L9.93593 14.06L10.7639 19.352H11.1599L12.2759 14.06L16.3079 0.379999H24.3359L28.3319 14.06L29.4479 19.352H29.8439L30.6719 14.06L33.5879 0.379999H39.4919L33.7679 24.5H25.7399L22.1399 12.44L20.4479 5.492H20.0519L18.3599 12.44L14.6879 24.5ZM46.7558 24.5H41.3558V0.379999H54.6758C60.6158 0.379999 63.9998 3.008 63.9998 7.616C63.9998 11.54 61.7318 13.88 57.1958 14.312V14.6C59.3558 15.176 60.1838 16.328 61.0838 18.02L64.5758 24.5H58.3118L54.9998 18.236C54.0278 16.364 53.1278 15.752 50.3198 15.752H46.7558V24.5ZM46.7558 5.24V11.684H54.6398C57.1958 11.684 58.3478 10.964 58.3478 8.444C58.3478 6.068 57.1958 5.24 54.6398 5.24H46.7558ZM80.5736 24.5H75.1376V16.508L64.4456 0.379999H71.1056L75.7136 7.436L77.7296 10.676H78.1256L80.1416 7.436L84.7496 0.379999H91.4456L80.5736 16.544V24.5ZM105.901 24.5H100.501V5.24H91.537V0.379999H114.865V5.24H105.901V24.5ZM129.221 24.86C121.229 24.86 116.261 19.964 116.261 12.44C116.261 4.916 121.229 0.0199997 129.221 0.0199997C137.393 0.0199997 142.325 4.916 142.325 12.44C142.325 19.964 137.393 24.86 129.221 24.86ZM129.221 19.676C134.513 19.676 136.565 17.804 136.565 12.44C136.565 7.076 134.513 5.204 129.221 5.204C123.929 5.204 121.985 7.076 121.985 12.44C121.985 17.804 123.929 19.676 129.221 19.676ZM150.08 24.5H144.68V0.379999H157.28C162.86 0.379999 166.46 3.548 166.46 9.092C166.46 14.636 162.86 17.84 157.28 17.84H150.08V24.5ZM156.704 5.24H150.08V12.98H156.704C159.692 12.98 161.096 12.116 161.096 9.092C161.096 6.14 159.692 5.24 156.704 5.24ZM173.775 24.5H168.375V0.379999H173.775V24.5ZM181.03 24.5H174.982L185.53 0.379999H193.234L203.854 24.5H197.662L195.394 19.172H183.334L181.03 24.5ZM187.69 9.056L185.422 14.312H193.306L191.038 9.056L189.562 5.312H189.166L187.69 9.056Z" fill="#00B18F"/>
<path d="M0.844492 36.3357C-1.51373 36.4939 2.59468 35.4973 3.57381 35.4224C9.04376 35.0044 14.5263 34.625 20.0201 34.281C33.7954 33.4184 47.6429 32.7901 61.5104 32.3538C99.645 31.154 138.318 31.0962 176.363 32.973C184.651 33.3819 207.799 33.2453 213.278 37.0846C219.902 41.7261 185.574 41.6653 182.494 41.708C154.182 42.101 125.85 41.9348 97.5558 42.6581C88.7836 42.8824 79.318 42.9323 70.8002 44.0634C63.7911 44.9941 88.2439 47.0961 91.5139 47.3797C96.85 47.8426 102.206 48.2554 107.571 48.6403C117.382 49.3442 127.222 49.9597 137.081 50.5C127.075 50.1259 117.078 49.6726 107.104 49.1461C95.6432 48.5411 83.8235 48.0156 72.6752 46.578C54.2755 44.2052 79.7174 41.6675 85.9177 41.3045C90.8315 41.0168 95.7611 40.7889 100.694 40.5863C126.302 39.5346 152.031 39.0955 177.723 38.7898C187.132 38.6779 197.338 38.7969 206.533 37.694C209.474 37.3413 191.219 36.6684 182.048 36.074C175.911 35.6763 169.754 35.3496 163.588 35.067C153.164 34.5894 142.712 34.2404 132.252 33.9881C114.679 33.5642 97.0724 33.4118 79.4775 33.5407C53.1614 33.7334 26.8988 34.5882 0.844492 36.3357Z" fill="#00B18F"/>
</svg>
