<svg width="1224" height="238" viewBox="0 0 1224 238" fill="none" xmlns="http://www.w3.org/2000/svg">
<path d="M36.5803 68H30.8203L45.1723 35.84H52.4683L66.8203 68H60.9643L57.2683 59.648H40.2763L36.5803 68ZM46.7083 45.2L42.3403 54.992H55.2043L50.8363 45.2L48.9643 40.64H48.5803L46.7083 45.2ZM82.6074 76.16H77.4234V44.144H82.1754V50.768H82.6074C83.5674 46.352 86.9274 43.664 92.5434 43.664C99.9354 43.664 104.111 48.704 104.111 56.096C104.111 63.488 100.031 68.48 92.5914 68.48C87.2154 68.48 83.7594 65.648 82.7994 61.28H82.6074V76.16ZM82.6074 56.48C82.6074 61.376 85.7274 63.776 90.8154 63.776C95.9514 63.776 98.9274 61.808 98.9274 56.096C98.9274 50.336 95.9034 48.416 90.9114 48.416C85.5834 48.416 82.6074 50.912 82.6074 56.048V56.48ZM112.889 68H107.705V35.84H112.889V68ZM124.697 68.48C119.753 68.48 116.633 66.176 116.633 62.24C116.633 58.544 119.609 56.624 124.313 56.096L135.161 54.944V53.552C135.161 49.616 133.433 48.224 128.873 48.224C124.457 48.224 122.297 49.664 122.297 53.168V53.36H117.161V53.168C117.161 47.744 121.673 43.664 129.257 43.664C136.841 43.664 140.249 47.792 140.249 53.504V68H135.497V62.048H135.161C133.913 66.08 130.121 68.48 124.697 68.48ZM121.817 61.904C121.817 63.824 123.113 64.736 126.089 64.736C131.513 64.736 135.161 62.72 135.161 58.016L125.801 59.072C123.113 59.408 121.817 60.032 121.817 61.904ZM156.925 68.48C149.053 68.48 143.917 63.44 143.917 56.096C143.917 48.656 149.053 43.664 156.925 43.664C164.077 43.664 169.309 47.696 169.309 53.648V54.128H164.173V53.84C164.173 50.144 161.485 48.32 156.829 48.32C151.453 48.32 149.053 50.864 149.053 56.096C149.053 61.232 151.453 63.824 156.829 63.824C161.485 63.824 164.173 62 164.173 58.304V57.968H169.309V58.496C169.309 64.448 164.077 68.48 156.925 68.48ZM185.142 68.48C177.318 68.48 172.182 64.064 172.182 56.096C172.182 48.656 177.27 43.664 185.046 43.664C192.438 43.664 197.478 47.744 197.478 54.992C197.478 55.856 197.43 56.528 197.286 57.248H177.03C177.222 61.856 179.478 64.304 184.998 64.304C189.99 64.304 192.054 62.672 192.054 59.84V59.456H197.238V59.888C197.238 64.976 192.246 68.48 185.142 68.48ZM184.95 47.744C179.67 47.744 177.366 50.096 177.078 54.368H192.582V54.272C192.582 49.856 190.038 47.744 184.95 47.744ZM220.988 68H214.556L207.404 44.144H212.78L216.764 57.68L217.868 63.824H218.252L220.028 57.2L225.02 44.144H231.644L236.684 57.2L238.46 63.824H238.844L239.948 57.68L243.932 44.144H249.212L241.964 68H235.532L230.3 54.272L228.476 48.416H228.092L226.268 54.272L220.988 68ZM257.029 68H251.845V35.84H257.029V51.44H257.317C258.133 47.408 261.061 43.664 267.157 43.664C273.733 43.664 276.949 47.984 276.949 53.792V68H271.813V55.04C271.813 50.24 269.653 48.32 264.709 48.32C259.045 48.32 257.029 51.392 257.029 56.432V68ZM293.611 68.48C285.787 68.48 280.651 64.064 280.651 56.096C280.651 48.656 285.739 43.664 293.515 43.664C300.907 43.664 305.947 47.744 305.947 54.992C305.947 55.856 305.899 56.528 305.755 57.248H285.499C285.691 61.856 287.947 64.304 293.467 64.304C298.459 64.304 300.523 62.672 300.523 59.84V59.456H305.707V59.888C305.707 64.976 300.715 68.48 293.611 68.48ZM293.419 47.744C288.139 47.744 285.835 50.096 285.547 54.368H301.051V54.272C301.051 49.856 298.507 47.744 293.419 47.744ZM315.014 68H309.83V44.144H314.582V50.576H314.918C315.638 46.736 318.23 43.664 323.126 43.664C328.55 43.664 330.902 47.552 330.902 52.064V55.184H325.766V53.072C325.766 49.664 324.326 48.08 320.774 48.08C316.694 48.08 315.014 50.336 315.014 54.608V68ZM346.158 68.48C338.334 68.48 333.198 64.064 333.198 56.096C333.198 48.656 338.286 43.664 346.062 43.664C353.454 43.664 358.494 47.744 358.494 54.992C358.494 55.856 358.446 56.528 358.302 57.248H338.046C338.238 61.856 340.494 64.304 346.014 64.304C351.006 64.304 353.07 62.672 353.07 59.84V59.456H358.254V59.888C358.254 64.976 353.262 68.48 346.158 68.48ZM345.966 47.744C340.686 47.744 338.382 50.096 338.094 54.368H353.598V54.272C353.598 49.856 351.054 47.744 345.966 47.744ZM377.588 68.48C372.644 68.48 369.524 66.176 369.524 62.24C369.524 58.544 372.5 56.624 377.204 56.096L388.052 54.944V53.552C388.052 49.616 386.324 48.224 381.764 48.224C377.348 48.224 375.188 49.664 375.188 53.168V53.36H370.052V53.168C370.052 47.744 374.564 43.664 382.148 43.664C389.732 43.664 393.14 47.792 393.14 53.504V68H388.388V62.048H388.052C386.804 66.08 383.012 68.48 377.588 68.48ZM374.708 61.904C374.708 63.824 376.004 64.736 378.98 64.736C384.404 64.736 388.052 62.72 388.052 58.016L378.692 59.072C376.004 59.408 374.708 60.032 374.708 61.904ZM407.703 68.48C400.983 68.48 397.719 64.016 397.719 58.496V44.144H402.855V57.104C402.855 61.568 404.919 63.824 409.959 63.824C415.239 63.824 417.687 61.136 417.687 55.952V44.144H422.823V68H418.071V60.608H417.783C417.015 64.64 413.847 68.48 407.703 68.48ZM443.181 68H437.709C432.573 68 429.405 65.744 429.405 59.936V48.464H425.373V44.144H429.405V38.912H434.541V44.144H443.181V48.464H434.541V59.648C434.541 62.576 435.885 63.344 438.861 63.344H443.181V68ZM451.607 68H446.423V35.84H451.607V51.44H451.895C452.711 47.408 455.639 43.664 461.735 43.664C468.311 43.664 471.527 47.984 471.527 53.792V68H466.391V55.04C466.391 50.24 464.231 48.32 459.287 48.32C453.623 48.32 451.607 51.392 451.607 56.432V68ZM488.381 68.48C480.461 68.48 475.133 63.44 475.133 56.096C475.133 48.656 480.461 43.664 488.381 43.664C496.349 43.664 501.677 48.656 501.677 56.096C501.677 63.44 496.349 68.48 488.381 68.48ZM488.381 63.872C494.189 63.872 496.589 61.136 496.589 56.096C496.589 51.008 494.189 48.224 488.381 48.224C482.621 48.224 480.221 51.008 480.221 56.096C480.221 61.136 482.621 63.872 488.381 63.872ZM510.623 68H505.439V44.144H510.191V50.576H510.527C511.247 46.736 513.839 43.664 518.735 43.664C524.159 43.664 526.511 47.552 526.511 52.064V55.184H521.375V53.072C521.375 49.664 519.935 48.08 516.383 48.08C512.303 48.08 510.623 50.336 510.623 54.608V68ZM541.047 68.48C533.367 68.48 528.999 65.456 528.999 59.936V59.792H534.183V60.176C534.183 63.296 536.055 64.304 541.047 64.304C545.703 64.304 547.095 63.344 547.095 61.232C547.095 59.264 545.943 58.64 542.535 58.16L536.007 57.296C531.495 56.72 528.759 54.8 528.759 50.816C528.759 46.64 532.551 43.664 539.895 43.664C547.191 43.664 551.607 46.592 551.607 52.256V52.4H546.471V52.112C546.471 49.28 545.031 47.792 539.751 47.792C535.383 47.792 533.847 48.752 533.847 51.008C533.847 52.88 534.807 53.552 538.407 54.032L543.927 54.8C549.591 55.52 552.183 57.44 552.183 61.376C552.183 65.84 547.767 68.48 541.047 68.48ZM579.775 68H574.303C569.167 68 565.999 65.744 565.999 59.936V48.464H561.967V44.144H565.999V38.912H571.135V44.144H579.775V48.464H571.135V59.648C571.135 62.576 572.479 63.344 575.455 63.344H579.775V68ZM595.017 68.48C587.193 68.48 582.057 64.064 582.057 56.096C582.057 48.656 587.145 43.664 594.921 43.664C602.313 43.664 607.353 47.744 607.353 54.992C607.353 55.856 607.305 56.528 607.161 57.248H586.905C587.097 61.856 589.353 64.304 594.873 64.304C599.865 64.304 601.929 62.672 601.929 59.84V59.456H607.113V59.888C607.113 64.976 602.121 68.48 595.017 68.48ZM594.825 47.744C589.545 47.744 587.241 50.096 586.953 54.368H602.457V54.272C602.457 49.856 599.913 47.744 594.825 47.744ZM618.244 68.48C613.3 68.48 610.18 66.176 610.18 62.24C610.18 58.544 613.156 56.624 617.86 56.096L628.708 54.944V53.552C628.708 49.616 626.98 48.224 622.42 48.224C618.004 48.224 615.844 49.664 615.844 53.168V53.36H610.708V53.168C610.708 47.744 615.22 43.664 622.804 43.664C630.388 43.664 633.796 47.792 633.796 53.504V68H629.044V62.048H628.708C627.46 66.08 623.668 68.48 618.244 68.48ZM615.364 61.904C615.364 63.824 616.66 64.736 619.636 64.736C625.06 64.736 628.708 62.72 628.708 58.016L619.348 59.072C616.66 59.408 615.364 60.032 615.364 61.904ZM643.607 68H638.423V44.144H643.175V51.344H643.463C644.087 47.36 646.679 43.664 652.631 43.664C658.055 43.664 660.983 46.976 661.655 51.536H661.943C662.567 47.456 665.255 43.664 671.303 43.664C677.495 43.664 680.615 47.888 680.615 53.648V68H675.479V55.04C675.479 50.336 673.607 48.32 668.999 48.32C663.911 48.32 662.087 50.912 662.087 56.192V68H656.951V55.04C656.951 50.336 655.127 48.32 650.519 48.32C645.383 48.32 643.607 50.912 643.607 56.192V68ZM703.391 68.48C696.671 68.48 693.407 64.016 693.407 58.496V44.144H698.543V57.104C698.543 61.568 700.607 63.824 705.647 63.824C710.927 63.824 713.375 61.136 713.375 55.952V44.144H718.511V68H713.759V60.608H713.471C712.703 64.64 709.535 68.48 703.391 68.48ZM728.404 76.16H723.22V44.144H727.972V50.768H728.404C729.364 46.352 732.724 43.664 738.34 43.664C745.732 43.664 749.908 48.704 749.908 56.096C749.908 63.488 745.828 68.48 738.388 68.48C733.012 68.48 729.556 65.648 728.596 61.28H728.404V76.16ZM728.404 56.48C728.404 61.376 731.524 63.776 736.612 63.776C741.748 63.776 744.724 61.808 744.724 56.096C744.724 50.336 741.7 48.416 736.708 48.416C731.38 48.416 728.404 50.912 728.404 56.048V56.48ZM773.129 68H766.697L759.545 44.144H764.921L768.905 57.68L770.009 63.824H770.393L772.169 57.2L777.161 44.144H783.785L788.825 57.2L790.601 63.824H790.985L792.089 57.68L796.073 44.144H801.353L794.105 68H787.673L782.441 54.272L780.617 48.416H780.233L778.409 54.272L773.129 68ZM809.17 41.36H803.986V35.84H809.17V41.36ZM809.17 68H803.986V44.144H809.17V68ZM829.618 68H824.146C819.01 68 815.842 65.744 815.842 59.936V48.464H811.81V44.144H815.842V38.912H820.978V44.144H829.618V48.464H820.978V59.648C820.978 62.576 822.322 63.344 825.298 63.344H829.618V68ZM838.045 68H832.861V35.84H838.045V51.44H838.333C839.149 47.408 842.077 43.664 848.173 43.664C854.749 43.664 857.965 47.984 857.965 53.792V68H852.829V55.04C852.829 50.24 850.669 48.32 845.725 48.32C840.061 48.32 838.045 51.392 838.045 56.432V68ZM882.11 68.48C874.43 68.48 870.062 65.456 870.062 59.936V59.792H875.246V60.176C875.246 63.296 877.118 64.304 882.11 64.304C886.766 64.304 888.158 63.344 888.158 61.232C888.158 59.264 887.006 58.64 883.598 58.16L877.07 57.296C872.558 56.72 869.822 54.8 869.822 50.816C869.822 46.64 873.614 43.664 880.958 43.664C888.254 43.664 892.67 46.592 892.67 52.256V52.4H887.534V52.112C887.534 49.28 886.094 47.792 880.814 47.792C876.446 47.792 874.91 48.752 874.91 51.008C874.91 52.88 875.87 53.552 879.47 54.032L884.99 54.8C890.654 55.52 893.246 57.44 893.246 61.376C893.246 65.84 888.83 68.48 882.11 68.48ZM902.17 68H896.986V35.84H902.17V53.6H908.986L916.138 44.144H922.186L913.21 55.616L922.138 68H916.042L908.986 58.256H902.17V68ZM929.92 41.36H924.736V35.84H929.92V41.36ZM929.92 68H924.736V44.144H929.92V68ZM939.904 68H934.72V35.84H939.904V68ZM949.889 68H944.705V35.84H949.889V68ZM966.689 68.48C958.865 68.48 953.729 64.064 953.729 56.096C953.729 48.656 958.817 43.664 966.593 43.664C973.985 43.664 979.025 47.744 979.025 54.992C979.025 55.856 978.977 56.528 978.833 57.248H958.577C958.769 61.856 961.025 64.304 966.545 64.304C971.537 64.304 973.601 62.672 973.601 59.84V59.456H978.785V59.888C978.785 64.976 973.793 68.48 966.689 68.48ZM966.497 47.744C961.217 47.744 958.913 50.096 958.625 54.368H974.129V54.272C974.129 49.856 971.585 47.744 966.497 47.744ZM993.42 68.48C985.884 68.48 981.708 63.44 981.708 56.096C981.708 48.656 985.836 43.664 993.084 43.664C998.748 43.664 1001.96 46.592 1002.92 50.624H1003.21V35.84H1008.4V68H1003.64V61.136H1003.31C1002.3 65.888 998.796 68.48 993.42 68.48ZM986.94 56.096C986.94 61.808 989.868 63.728 995.004 63.728C1000.09 63.728 1003.21 61.328 1003.21 56.336V55.952C1003.21 50.864 1000.24 48.368 994.908 48.368C989.916 48.368 986.94 50.336 986.94 56.096ZM1032.82 68H1026.38L1019.23 44.144H1024.61L1028.59 57.68L1029.7 63.824H1030.08L1031.86 57.2L1036.85 44.144H1043.47L1048.51 57.2L1050.29 63.824H1050.67L1051.78 57.68L1055.76 44.144H1061.04L1053.79 68H1047.36L1042.13 54.272L1040.3 48.416H1039.92L1038.1 54.272L1032.82 68ZM1068.86 68H1063.67V44.144H1068.43V50.576H1068.76C1069.48 46.736 1072.07 43.664 1076.97 43.664C1082.39 43.664 1084.75 47.552 1084.75 52.064V55.184H1079.61V53.072C1079.61 49.664 1078.17 48.08 1074.62 48.08C1070.54 48.08 1068.86 50.336 1068.86 54.608V68ZM1093.19 41.36H1088V35.84H1093.19V41.36ZM1093.19 68H1088V44.144H1093.19V68ZM1113.63 68H1108.16C1103.03 68 1099.86 65.744 1099.86 59.936V48.464H1095.83V44.144H1099.86V38.912H1104.99V44.144H1113.63V48.464H1104.99V59.648C1104.99 62.576 1106.34 63.344 1109.31 63.344H1113.63V68ZM1128.88 68.48C1121.05 68.48 1115.92 64.064 1115.92 56.096C1115.92 48.656 1121 43.664 1128.78 43.664C1136.17 43.664 1141.21 47.744 1141.21 54.992C1141.21 55.856 1141.16 56.528 1141.02 57.248H1120.76C1120.96 61.856 1123.21 64.304 1128.73 64.304C1133.72 64.304 1135.79 62.672 1135.79 59.84V59.456H1140.97V59.888C1140.97 64.976 1135.98 68.48 1128.88 68.48ZM1128.68 47.744C1123.4 47.744 1121.1 50.096 1120.81 54.368H1136.32V54.272C1136.32 49.856 1133.77 47.744 1128.68 47.744ZM1150.28 68H1145.1V44.144H1149.85V50.576H1150.18C1150.9 46.736 1153.5 43.664 1158.39 43.664C1163.82 43.664 1166.17 47.552 1166.17 52.064V55.184H1161.03V53.072C1161.03 49.664 1159.59 48.08 1156.04 48.08C1151.96 48.08 1150.28 50.336 1150.28 54.608V68ZM1180.7 68.48C1173.02 68.48 1168.66 65.456 1168.66 59.936V59.792H1173.84V60.176C1173.84 63.296 1175.71 64.304 1180.7 64.304C1185.36 64.304 1186.75 63.344 1186.75 61.232C1186.75 59.264 1185.6 58.64 1182.19 58.16L1175.66 57.296C1171.15 56.72 1168.42 54.8 1168.42 50.816C1168.42 46.64 1172.21 43.664 1179.55 43.664C1186.85 43.664 1191.26 46.592 1191.26 52.256V52.4H1186.13V52.112C1186.13 49.28 1184.69 47.792 1179.41 47.792C1175.04 47.792 1173.5 48.752 1173.5 51.008C1173.5 52.88 1174.46 53.552 1178.06 54.032L1183.58 54.8C1189.25 55.52 1191.84 57.44 1191.84 61.376C1191.84 65.84 1187.42 68.48 1180.7 68.48ZM58.8761 134H53.4041C48.2681 134 45.1001 131.744 45.1001 125.936V114.464H41.0681V110.144H45.1001V104.912H50.2361V110.144H58.8761V114.464H50.2361V125.648C50.2361 128.576 51.5801 129.344 54.5561 129.344H58.8761V134ZM74.3108 134.48C66.3908 134.48 61.0628 129.44 61.0628 122.096C61.0628 114.656 66.3908 109.664 74.3108 109.664C82.2788 109.664 87.6068 114.656 87.6068 122.096C87.6068 129.44 82.2788 134.48 74.3108 134.48ZM74.3108 129.872C80.1188 129.872 82.5188 127.136 82.5188 122.096C82.5188 117.008 80.1188 114.224 74.3108 114.224C68.5508 114.224 66.1508 117.008 66.1508 122.096C66.1508 127.136 68.5508 129.872 74.3108 129.872ZM111.62 134.48C103.748 134.48 98.6119 129.44 98.6119 122.096C98.6119 114.656 103.748 109.664 111.62 109.664C118.772 109.664 124.004 113.696 124.004 119.648V120.128H118.868V119.84C118.868 116.144 116.18 114.32 111.524 114.32C106.148 114.32 103.748 116.864 103.748 122.096C103.748 127.232 106.148 129.824 111.524 129.824C116.18 129.824 118.868 128 118.868 124.304V123.968H124.004V124.496C124.004 130.448 118.772 134.48 111.62 134.48ZM133.022 134H127.838V110.144H132.59V116.576H132.926C133.646 112.736 136.238 109.664 141.134 109.664C146.558 109.664 148.91 113.552 148.91 118.064V121.184H143.774V119.072C143.774 115.664 142.334 114.08 138.782 114.08C134.702 114.08 133.022 116.336 133.022 120.608V134ZM164.166 134.48C156.342 134.48 151.206 130.064 151.206 122.096C151.206 114.656 156.294 109.664 164.07 109.664C171.462 109.664 176.502 113.744 176.502 120.992C176.502 121.856 176.454 122.528 176.31 123.248H156.054C156.246 127.856 158.502 130.304 164.022 130.304C169.014 130.304 171.078 128.672 171.078 125.84V125.456H176.262V125.888C176.262 130.976 171.27 134.48 164.166 134.48ZM163.974 113.744C158.694 113.744 156.39 116.096 156.102 120.368H171.606V120.272C171.606 115.856 169.062 113.744 163.974 113.744ZM187.392 134.48C182.448 134.48 179.328 132.176 179.328 128.24C179.328 124.544 182.304 122.624 187.008 122.096L197.856 120.944V119.552C197.856 115.616 196.128 114.224 191.568 114.224C187.152 114.224 184.992 115.664 184.992 119.168V119.36H179.856V119.168C179.856 113.744 184.368 109.664 191.952 109.664C199.536 109.664 202.944 113.792 202.944 119.504V134H198.192V128.048H197.856C196.608 132.08 192.816 134.48 187.392 134.48ZM184.512 127.904C184.512 129.824 185.808 130.736 188.784 130.736C194.208 130.736 197.856 128.72 197.856 124.016L188.496 125.072C185.808 125.408 184.512 126.032 184.512 127.904ZM223.22 134H217.748C212.612 134 209.444 131.744 209.444 125.936V114.464H205.412V110.144H209.444V104.912H214.58V110.144H223.22V114.464H214.58V125.648C214.58 128.576 215.924 129.344 218.9 129.344H223.22V134ZM238.463 134.48C230.639 134.48 225.503 130.064 225.503 122.096C225.503 114.656 230.591 109.664 238.367 109.664C245.759 109.664 250.799 113.744 250.799 120.992C250.799 121.856 250.751 122.528 250.607 123.248H230.351C230.543 127.856 232.799 130.304 238.319 130.304C243.311 130.304 245.375 128.672 245.375 125.84V125.456H250.559V125.888C250.559 130.976 245.567 134.48 238.463 134.48ZM238.271 113.744C232.991 113.744 230.687 116.096 230.398 120.368H245.903V120.272C245.903 115.856 243.359 113.744 238.271 113.744ZM273.396 134.48C265.86 134.48 261.684 129.44 261.684 122.096C261.684 114.656 265.812 109.664 273.06 109.664C278.724 109.664 281.94 112.592 282.9 116.624H283.188V101.84H288.372V134H283.62V127.136H283.284C282.276 131.888 278.772 134.48 273.396 134.48ZM266.916 122.096C266.916 127.808 269.844 129.728 274.98 129.728C280.068 129.728 283.188 127.328 283.188 122.336V121.952C283.188 116.864 280.212 114.368 274.884 114.368C269.892 114.368 266.916 116.336 266.916 122.096ZM305.166 134.48C297.342 134.48 292.206 130.064 292.206 122.096C292.206 114.656 297.294 109.664 305.07 109.664C312.462 109.664 317.502 113.744 317.502 120.992C317.502 121.856 317.454 122.528 317.31 123.248H297.054C297.246 127.856 299.502 130.304 305.022 130.304C310.014 130.304 312.078 128.672 312.078 125.84V125.456H317.262V125.888C317.262 130.976 312.27 134.48 305.166 134.48ZM304.974 113.744C299.694 113.744 297.39 116.096 297.102 120.368H312.606V120.272C312.606 115.856 310.062 113.744 304.974 113.744ZM337.032 134H331.56C326.424 134 323.256 131.744 323.256 125.936V114.464H319.224V110.144H323.256V104.912H328.392V110.144H337.032V114.464H328.392V125.648C328.392 128.576 329.736 129.344 332.712 129.344H337.032V134ZM347.283 134.48C342.339 134.48 339.219 132.176 339.219 128.24C339.219 124.544 342.195 122.624 346.899 122.096L357.747 120.944V119.552C357.747 115.616 356.019 114.224 351.459 114.224C347.043 114.224 344.883 115.664 344.883 119.168V119.36H339.747V119.168C339.747 113.744 344.259 109.664 351.843 109.664C359.427 109.664 362.835 113.792 362.835 119.504V134H358.083V128.048H357.747C356.499 132.08 352.707 134.48 347.283 134.48ZM344.403 127.904C344.403 129.824 345.699 130.736 348.675 130.736C354.099 130.736 357.747 128.72 357.747 124.016L348.387 125.072C345.699 125.408 344.403 126.032 344.403 127.904ZM372.647 107.36H367.463V101.84H372.647V107.36ZM372.647 134H367.463V110.144H372.647V134ZM382.631 134H377.447V101.84H382.631V134ZM399.431 134.48C391.607 134.48 386.471 130.064 386.471 122.096C386.471 114.656 391.559 109.664 399.335 109.664C406.727 109.664 411.767 113.744 411.767 120.992C411.767 121.856 411.719 122.528 411.575 123.248H391.319C391.511 127.856 393.767 130.304 399.287 130.304C404.279 130.304 406.343 128.672 406.343 125.84V125.456H411.527V125.888C411.527 130.976 406.535 134.48 399.431 134.48ZM399.239 113.744C393.959 113.744 391.655 116.096 391.367 120.368H406.871V120.272C406.871 115.856 404.327 113.744 399.239 113.744ZM426.162 134.48C418.626 134.48 414.45 129.44 414.45 122.096C414.45 114.656 418.578 109.664 425.826 109.664C431.49 109.664 434.706 112.592 435.666 116.624H435.954V101.84H441.138V134H436.386V127.136H436.05C435.042 131.888 431.538 134.48 426.162 134.48ZM419.682 122.096C419.682 127.808 422.61 129.728 427.746 129.728C432.834 129.728 435.954 127.328 435.954 122.336V121.952C435.954 116.864 432.978 114.368 427.65 114.368C422.658 114.368 419.682 116.336 419.682 122.096ZM465.414 134.48C457.734 134.48 453.366 131.456 453.366 125.936V125.792H458.55V126.176C458.55 129.296 460.422 130.304 465.414 130.304C470.07 130.304 471.462 129.344 471.462 127.232C471.462 125.264 470.31 124.64 466.902 124.16L460.374 123.296C455.862 122.72 453.126 120.8 453.126 116.816C453.126 112.64 456.918 109.664 464.262 109.664C471.558 109.664 475.974 112.592 475.974 118.256V118.4H470.838V118.112C470.838 115.28 469.398 113.792 464.118 113.792C459.75 113.792 458.214 114.752 458.214 117.008C458.214 118.88 459.174 119.552 462.774 120.032L468.294 120.8C473.958 121.52 476.55 123.44 476.55 127.376C476.55 131.84 472.134 134.48 465.414 134.48ZM495.939 134H490.467C485.331 134 482.163 131.744 482.163 125.936V114.464H478.131V110.144H482.163V104.912H487.299V110.144H495.939V114.464H487.299V125.648C487.299 128.576 488.643 129.344 491.619 129.344H495.939V134ZM511.373 134.48C503.453 134.48 498.125 129.44 498.125 122.096C498.125 114.656 503.453 109.664 511.373 109.664C519.341 109.664 524.669 114.656 524.669 122.096C524.669 129.44 519.341 134.48 511.373 134.48ZM511.373 129.872C517.181 129.872 519.581 127.136 519.581 122.096C519.581 117.008 517.181 114.224 511.373 114.224C505.613 114.224 503.213 117.008 503.213 122.096C503.213 127.136 505.613 129.872 511.373 129.872ZM533.615 134H528.431V110.144H533.183V116.576H533.519C534.239 112.736 536.831 109.664 541.727 109.664C547.151 109.664 549.503 113.552 549.503 118.064V121.184H544.367V119.072C544.367 115.664 542.927 114.08 539.375 114.08C535.295 114.08 533.615 116.336 533.615 120.608V134ZM556.599 142.16H553.191V137.456H557.847C559.959 137.456 560.823 136.88 561.543 135.248L562.119 134L550.359 110.144H556.167L562.263 122.816L564.615 128.528H564.999L567.255 122.768L572.871 110.144H578.583L566.151 136.592C564.183 140.864 561.495 142.16 556.599 142.16ZM601.514 134.48C593.594 134.48 588.266 129.44 588.266 122.096C588.266 114.656 593.594 109.664 601.514 109.664C609.482 109.664 614.81 114.656 614.81 122.096C614.81 129.44 609.482 134.48 601.514 134.48ZM601.514 129.872C607.322 129.872 609.722 127.136 609.722 122.096C609.722 117.008 607.322 114.224 601.514 114.224C595.754 114.224 593.354 117.008 593.354 122.096C593.354 127.136 595.754 129.872 601.514 129.872ZM628.508 134.48C621.788 134.48 618.524 130.016 618.524 124.496V110.144H623.66V123.104C623.66 127.568 625.724 129.824 630.764 129.824C636.044 129.824 638.492 127.136 638.492 121.952V110.144H643.628V134H638.876V126.608H638.588C637.82 130.64 634.652 134.48 628.508 134.48ZM663.986 134H658.514C653.378 134 650.21 131.744 650.21 125.936V114.464H646.178V110.144H650.21V104.912H655.346V110.144H663.986V114.464H655.346V125.648C655.346 128.576 656.69 129.344 659.666 129.344H663.986V134ZM672.412 134H667.228V101.84H672.412V134ZM682.397 107.36H677.213V101.84H682.397V107.36ZM682.397 134H677.213V110.144H682.397V134ZM692.381 134H687.197V110.144H691.949V117.536H692.285C693.005 113.504 696.173 109.664 702.221 109.664C708.845 109.664 712.109 114.128 712.109 119.648V134H706.925V121.04C706.925 116.576 704.909 114.32 699.965 114.32C694.733 114.32 692.381 117.008 692.381 122.192V134ZM728.728 134.48C720.904 134.48 715.768 130.064 715.768 122.096C715.768 114.656 720.856 109.664 728.632 109.664C736.024 109.664 741.064 113.744 741.064 120.992C741.064 121.856 741.016 122.528 740.872 123.248H720.616C720.808 127.856 723.064 130.304 728.584 130.304C733.576 130.304 735.64 128.672 735.64 125.84V125.456H740.824V125.888C740.824 130.976 735.832 134.48 728.728 134.48ZM728.536 113.744C723.256 113.744 720.952 116.096 720.664 120.368H736.168V120.272C736.168 115.856 733.624 113.744 728.536 113.744ZM756.227 134.48C748.547 134.48 744.179 131.456 744.179 125.936V125.792H749.363V126.176C749.363 129.296 751.235 130.304 756.227 130.304C760.883 130.304 762.275 129.344 762.275 127.232C762.275 125.264 761.123 124.64 757.715 124.16L751.187 123.296C746.675 122.72 743.939 120.8 743.939 116.816C743.939 112.64 747.731 109.664 755.075 109.664C762.371 109.664 766.787 112.592 766.787 118.256V118.4H761.651V118.112C761.651 115.28 760.211 113.792 754.931 113.792C750.563 113.792 749.027 114.752 749.027 117.008C749.027 118.88 749.987 119.552 753.587 120.032L759.107 120.8C764.771 121.52 767.363 123.44 767.363 127.376C767.363 131.84 762.947 134.48 756.227 134.48ZM794.954 134H789.482C784.346 134 781.178 131.744 781.178 125.936V114.464H777.146V110.144H781.178V104.912H786.314V110.144H794.954V114.464H786.314V125.648C786.314 128.576 787.658 129.344 790.634 129.344H794.954V134ZM803.381 134H798.197V101.84H803.381V117.44H803.669C804.485 113.408 807.413 109.664 813.509 109.664C820.085 109.664 823.301 113.984 823.301 119.792V134H818.165V121.04C818.165 116.24 816.005 114.32 811.061 114.32C805.397 114.32 803.381 117.392 803.381 122.432V134ZM834.971 134.48C830.027 134.48 826.907 132.176 826.907 128.24C826.907 124.544 829.883 122.624 834.587 122.096L845.435 120.944V119.552C845.435 115.616 843.707 114.224 839.147 114.224C834.731 114.224 832.571 115.664 832.571 119.168V119.36H827.435V119.168C827.435 113.744 831.947 109.664 839.531 109.664C847.115 109.664 850.523 113.792 850.523 119.504V134H845.771V128.048H845.435C844.187 132.08 840.395 134.48 834.971 134.48ZM832.091 127.904C832.091 129.824 833.387 130.736 836.363 130.736C841.787 130.736 845.435 128.72 845.435 124.016L836.075 125.072C833.387 125.408 832.091 126.032 832.091 127.904ZM870.798 134H865.326C860.19 134 857.022 131.744 857.022 125.936V114.464H852.99V110.144H857.022V104.912H862.158V110.144H870.798V114.464H862.158V125.648C862.158 128.576 863.502 129.344 866.478 129.344H870.798V134ZM887.428 134H882.244V110.144H886.996V117.344H887.284C887.908 113.36 890.5 109.664 896.452 109.664C901.876 109.664 904.804 112.976 905.476 117.536H905.764C906.388 113.456 909.076 109.664 915.124 109.664C921.316 109.664 924.436 113.888 924.436 119.648V134H919.3V121.04C919.3 116.336 917.428 114.32 912.82 114.32C907.732 114.32 905.908 116.912 905.908 122.192V134H900.772V121.04C900.772 116.336 898.948 114.32 894.34 114.32C889.204 114.32 887.428 116.912 887.428 122.192V134ZM936.08 134.48C931.136 134.48 928.016 132.176 928.016 128.24C928.016 124.544 930.992 122.624 935.696 122.096L946.544 120.944V119.552C946.544 115.616 944.816 114.224 940.256 114.224C935.84 114.224 933.68 115.664 933.68 119.168V119.36H928.544V119.168C928.544 113.744 933.056 109.664 940.64 109.664C948.224 109.664 951.632 113.792 951.632 119.504V134H946.88V128.048H946.544C945.296 132.08 941.504 134.48 936.08 134.48ZM933.2 127.904C933.2 129.824 934.496 130.736 937.472 130.736C942.896 130.736 946.544 128.72 946.544 124.016L937.184 125.072C934.496 125.408 933.2 126.032 933.2 127.904ZM961.443 134H956.259V101.84H961.443V119.6H968.259L975.411 110.144H981.459L972.483 121.616L981.411 134H975.315L968.259 124.256H961.443V134ZM996.009 134.48C988.185 134.48 983.049 130.064 983.049 122.096C983.049 114.656 988.137 109.664 995.913 109.664C1003.31 109.664 1008.35 113.744 1008.35 120.992C1008.35 121.856 1008.3 122.528 1008.15 123.248H987.897C988.089 127.856 990.345 130.304 995.865 130.304C1000.86 130.304 1002.92 128.672 1002.92 125.84V125.456H1008.11V125.888C1008.11 130.976 1003.11 134.48 996.009 134.48ZM995.817 113.744C990.537 113.744 988.233 116.096 987.945 120.368H1003.45V120.272C1003.45 115.856 1000.91 113.744 995.817 113.744ZM1031.86 134H1025.42L1018.27 110.144H1023.65L1027.63 123.68L1028.74 129.824H1029.12L1030.9 123.2L1035.89 110.144H1042.51L1047.55 123.2L1049.33 129.824H1049.71L1050.82 123.68L1054.8 110.144H1060.08L1052.83 134H1046.4L1041.17 120.272L1039.34 114.416H1038.96L1037.14 120.272L1031.86 134ZM1067.9 134H1062.71V110.144H1067.46V116.576H1067.8C1068.52 112.736 1071.11 109.664 1076.01 109.664C1081.43 109.664 1083.78 113.552 1083.78 118.064V121.184H1078.65V119.072C1078.65 115.664 1077.21 114.08 1073.66 114.08C1069.58 114.08 1067.9 116.336 1067.9 120.608V134ZM1092.22 107.36H1087.04V101.84H1092.22V107.36ZM1092.22 134H1087.04V110.144H1092.22V134ZM1112.67 134H1107.2C1102.07 134 1098.9 131.744 1098.9 125.936V114.464H1094.87V110.144H1098.9V104.912H1104.03V110.144H1112.67V114.464H1104.03V125.648C1104.03 128.576 1105.38 129.344 1108.35 129.344H1112.67V134ZM1121.1 107.36H1115.92V101.84H1121.1V107.36ZM1121.1 134H1115.92V110.144H1121.1V134ZM1131.08 134H1125.9V110.144H1130.65V117.536H1130.99C1131.71 113.504 1134.88 109.664 1140.92 109.664C1147.55 109.664 1150.81 114.128 1150.81 119.648V134H1145.63V121.04C1145.63 116.576 1143.61 114.32 1138.67 114.32C1133.44 114.32 1131.08 117.008 1131.08 122.192V134ZM1165.8 131.84C1158.7 131.84 1154.47 127.376 1154.47 120.752C1154.47 114.128 1158.89 109.664 1166.14 109.664C1171.13 109.664 1174.87 111.92 1175.74 116.096H1176.02V110.144H1180.78V131.216C1180.78 139.232 1175.78 142.64 1167.96 142.64C1160.9 142.64 1156.01 139.328 1156.01 133.568H1161.14C1161.14 137.024 1163.16 138.32 1168.25 138.32C1173.67 138.32 1175.64 136.832 1175.64 131.504V125.648H1175.3C1174.44 129.248 1171.22 131.84 1165.8 131.84ZM1159.7 120.752C1159.7 125.648 1162.58 127.376 1167.48 127.376C1172.76 127.376 1175.64 125.168 1175.64 120.944V120.272C1175.64 116.24 1172.66 114.176 1167.62 114.176C1162.63 114.176 1159.7 115.856 1159.7 120.752ZM423.525 200.48C415.701 200.48 410.565 196.064 410.565 188.096C410.565 180.656 415.653 175.664 423.429 175.664C430.821 175.664 435.861 179.744 435.861 186.992C435.861 187.856 435.813 188.528 435.669 189.248H415.413C415.605 193.856 417.861 196.304 423.381 196.304C428.373 196.304 430.437 194.672 430.437 191.84V191.456H435.621V191.888C435.621 196.976 430.629 200.48 423.525 200.48ZM423.333 179.744C418.053 179.744 415.749 182.096 415.461 186.368H430.965V186.272C430.965 181.856 428.421 179.744 423.333 179.744ZM446.752 200.48C441.808 200.48 438.688 198.176 438.688 194.24C438.688 190.544 441.664 188.624 446.368 188.096L457.216 186.944V185.552C457.216 181.616 455.488 180.224 450.928 180.224C446.512 180.224 444.352 181.664 444.352 185.168V185.36H439.216V185.168C439.216 179.744 443.728 175.664 451.312 175.664C458.896 175.664 462.304 179.792 462.304 185.504V200H457.552V194.048H457.216C455.968 198.08 452.176 200.48 446.752 200.48ZM443.872 193.904C443.872 195.824 445.168 196.736 448.144 196.736C453.568 196.736 457.216 194.72 457.216 190.016L447.856 191.072C445.168 191.408 443.872 192.032 443.872 193.904ZM478.211 200.48C470.531 200.48 466.163 197.456 466.163 191.936V191.792H471.347V192.176C471.347 195.296 473.219 196.304 478.211 196.304C482.867 196.304 484.259 195.344 484.259 193.232C484.259 191.264 483.107 190.64 479.699 190.16L473.171 189.296C468.659 188.72 465.923 186.8 465.923 182.816C465.923 178.64 469.715 175.664 477.059 175.664C484.355 175.664 488.771 178.592 488.771 184.256V184.4H483.635V184.112C483.635 181.28 482.195 179.792 476.915 179.792C472.547 179.792 471.011 180.752 471.011 183.008C471.011 184.88 471.971 185.552 475.571 186.032L481.091 186.8C486.755 187.52 489.347 189.44 489.347 193.376C489.347 197.84 484.931 200.48 478.211 200.48ZM498.272 173.36H493.088V167.84H498.272V173.36ZM498.272 200H493.088V176.144H498.272V200ZM515.072 200.48C507.248 200.48 502.112 196.064 502.112 188.096C502.112 180.656 507.2 175.664 514.976 175.664C522.368 175.664 527.408 179.744 527.408 186.992C527.408 187.856 527.36 188.528 527.216 189.248H506.96C507.152 193.856 509.408 196.304 514.928 196.304C519.92 196.304 521.984 194.672 521.984 191.84V191.456H527.168V191.888C527.168 196.976 522.176 200.48 515.072 200.48ZM514.88 179.744C509.6 179.744 507.296 182.096 507.008 186.368H522.512V186.272C522.512 181.856 519.968 179.744 514.88 179.744ZM536.475 200H531.291V176.144H536.043V182.576H536.379C537.099 178.736 539.691 175.664 544.587 175.664C550.011 175.664 552.363 179.552 552.363 184.064V187.184H547.227V185.072C547.227 181.664 545.787 180.08 542.235 180.08C538.155 180.08 536.475 182.336 536.475 186.608V200ZM570.83 200.48C565.886 200.48 562.766 198.176 562.766 194.24C562.766 190.544 565.742 188.624 570.446 188.096L581.294 186.944V185.552C581.294 181.616 579.566 180.224 575.006 180.224C570.59 180.224 568.43 181.664 568.43 185.168V185.36H563.294V185.168C563.294 179.744 567.806 175.664 575.39 175.664C582.974 175.664 586.382 179.792 586.382 185.504V200H581.63V194.048H581.294C580.046 198.08 576.254 200.48 570.83 200.48ZM567.95 193.904C567.95 195.824 569.246 196.736 572.222 196.736C577.646 196.736 581.294 194.72 581.294 190.016L571.934 191.072C569.246 191.408 567.95 192.032 567.95 193.904ZM596.193 200H591.009V176.144H595.761V183.536H596.097C596.817 179.504 599.985 175.664 606.033 175.664C612.657 175.664 615.921 180.128 615.921 185.648V200H610.737V187.04C610.737 182.576 608.721 180.32 603.777 180.32C598.545 180.32 596.193 183.008 596.193 188.192V200ZM631.053 200.48C623.517 200.48 619.341 195.44 619.341 188.096C619.341 180.656 623.469 175.664 630.717 175.664C636.381 175.664 639.597 178.592 640.557 182.624H640.845V167.84H646.029V200H641.277V193.136H640.941C639.933 197.888 636.429 200.48 631.053 200.48ZM624.573 188.096C624.573 193.808 627.501 195.728 632.637 195.728C637.725 195.728 640.845 193.328 640.845 188.336V187.952C640.845 182.864 637.869 180.368 632.541 180.368C627.549 180.368 624.573 182.336 624.573 188.096ZM663.777 200H659.025V167.84H664.209V182.624H664.497C665.457 178.592 668.625 175.664 674.337 175.664C681.681 175.664 685.713 180.656 685.713 188.096C685.713 195.44 681.633 200.48 674.049 200.48C668.625 200.48 665.121 197.888 664.113 193.136H663.777V200ZM664.209 188.336C664.209 193.328 667.281 195.728 672.417 195.728C677.649 195.728 680.529 193.808 680.529 188.096C680.529 182.336 677.601 180.368 672.513 180.368C667.137 180.368 664.209 182.864 664.209 187.952V188.336ZM701.306 200.48C693.482 200.48 688.346 196.064 688.346 188.096C688.346 180.656 693.434 175.664 701.21 175.664C708.602 175.664 713.642 179.744 713.642 186.992C713.642 187.856 713.594 188.528 713.45 189.248H693.194C693.386 193.856 695.642 196.304 701.162 196.304C706.154 196.304 708.218 194.672 708.218 191.84V191.456H713.402V191.888C713.402 196.976 708.41 200.48 701.306 200.48ZM701.114 179.744C695.834 179.744 693.53 182.096 693.242 186.368H708.746V186.272C708.746 181.856 706.202 179.744 701.114 179.744ZM733.173 200H727.701C722.565 200 719.397 197.744 719.397 191.936V180.464H715.365V176.144H719.397V170.912H724.533V176.144H733.173V180.464H724.533V191.648C724.533 194.576 725.877 195.344 728.853 195.344H733.173V200ZM752.064 200H746.592C741.456 200 738.288 197.744 738.288 191.936V180.464H734.256V176.144H738.288V170.912H743.424V176.144H752.064V180.464H743.424V191.648C743.424 194.576 744.768 195.344 747.744 195.344H752.064V200ZM767.306 200.48C759.482 200.48 754.346 196.064 754.346 188.096C754.346 180.656 759.434 175.664 767.21 175.664C774.602 175.664 779.642 179.744 779.642 186.992C779.642 187.856 779.594 188.528 779.45 189.248H759.194C759.386 193.856 761.642 196.304 767.162 196.304C772.154 196.304 774.218 194.672 774.218 191.84V191.456H779.402V191.888C779.402 196.976 774.41 200.48 767.306 200.48ZM767.114 179.744C761.834 179.744 759.53 182.096 759.242 186.368H774.746V186.272C774.746 181.856 772.202 179.744 767.114 179.744ZM788.709 200H783.525V176.144H788.277V182.576H788.613C789.333 178.736 791.925 175.664 796.821 175.664C802.245 175.664 804.597 179.552 804.597 184.064V187.184H799.461V185.072C799.461 181.664 798.021 180.08 794.469 180.08C790.389 180.08 788.709 182.336 788.709 186.608V200ZM813.421 200H806.893V192.56H813.421V200Z" fill="#246AF3"/>
<rect x="1" y="1" width="1222" height="236" stroke="#246AF3" stroke-width="2" stroke-dasharray="10 10"/>
</svg>
