<svg width="372" height="96" viewBox="0 0 372 96" fill="none" xmlns="http://www.w3.org/2000/svg">
<g filter="url(#filter0_d_260_12939)">
<path d="M5.74146 1.42188H345.243C349.692 1.42188 353.606 4.36073 354.847 8.63292L366.036 47.1613C367.894 53.5588 363.095 59.9502 356.433 59.9502H5.74146V1.42188Z" fill="#4C9DFF"/>
</g>
<g filter="url(#filter1_d_260_12939)">
<path d="M5.74146 59.9494H25.2952V86.3794L5.74146 59.9494Z" fill="#4A81C4"/>
</g>
<path d="M82.852 45.126C73.128 45.126 67.1 39.142 67.1 29.946C67.1 20.75 73.128 14.766 82.852 14.766C92.004 14.766 97.9 19.342 97.9 26.822V27.482H90.552V26.822C90.552 22.95 88.352 21.102 82.984 21.102C76.516 21.102 74.096 23.39 74.096 29.946C74.096 36.502 76.516 38.79 82.984 38.79C88.352 38.79 90.552 36.942 90.552 33.07V32.41H97.9V33.07C97.9 40.55 92.048 45.126 82.852 45.126ZM112.508 45.126C104.984 45.126 99.924 40.638 99.924 33.686C99.924 26.646 104.984 22.202 112.508 22.202C120.032 22.202 125.092 26.646 125.092 33.686C125.092 40.638 120.032 45.126 112.508 45.126ZM112.508 39.274C116.952 39.274 118.536 37.558 118.536 33.686C118.536 29.814 116.952 28.01 112.508 28.01C108.02 28.01 106.48 29.814 106.48 33.686C106.48 37.558 108.02 39.274 112.508 39.274ZM134.387 44.686H127.787V22.642H133.903V29.418H134.299C134.871 25.722 137.511 22.202 143.275 22.202C149.303 22.202 152.163 26.074 152.163 30.958V44.686H145.563V33.158C145.563 29.638 144.111 28.142 140.063 28.142C135.883 28.142 134.387 29.814 134.387 33.554V44.686ZM171.034 44.686H165.578C160.43 44.686 157.306 42.266 157.306 36.722V28.098H153.83V22.642H157.306V18.374H163.906V22.642H171.034V28.098H163.906V35.974C163.906 38.174 164.742 38.746 167.074 38.746H171.034V44.686ZM180.106 44.686H173.506V22.642H179.622V28.494H180.018C180.634 24.93 182.966 22.202 187.41 22.202C192.338 22.202 194.362 25.59 194.362 29.902V33.554H187.762V31.266C187.762 28.846 186.794 27.79 184.11 27.79C181.162 27.79 180.106 29.154 180.106 31.926V44.686ZM203.528 45.126C198.776 45.126 195.916 42.926 195.916 39.23C195.916 35.974 198.336 33.95 203.044 33.466L212.504 32.498V31.662C212.504 28.802 211.228 28.01 207.708 28.01C204.364 28.01 203 28.89 203 31.398V31.574H196.356V31.442C196.356 25.986 200.932 22.202 208.192 22.202C215.54 22.202 219.016 25.986 219.016 31.75V44.686H212.856V39.626H212.504C211.492 43.058 208.412 45.126 203.528 45.126ZM202.56 38.79C202.56 39.978 203.484 40.462 205.42 40.462C209.908 40.462 212.328 39.406 212.504 36.282L204.848 37.162C203.264 37.294 202.56 37.734 202.56 38.79ZM234.11 45.126C226.542 45.126 221.702 40.638 221.702 33.686C221.702 26.646 226.542 22.202 234.11 22.202C241.194 22.202 246.034 25.986 246.034 31.706V32.322H239.478V31.97C239.478 29.154 237.41 28.142 233.978 28.142C230.062 28.142 228.258 29.594 228.258 33.686C228.258 37.734 230.062 39.186 233.978 39.186C237.41 39.186 239.478 38.174 239.478 35.358V35.006H246.034V35.622C246.034 41.298 241.194 45.126 234.11 45.126ZM264.405 44.686H258.949C253.801 44.686 250.677 42.266 250.677 36.722V28.098H247.201V22.642H250.677V18.374H257.277V22.642H264.405V28.098H257.277V35.974C257.277 38.174 258.113 38.746 260.445 38.746H264.405V44.686ZM280.266 44.686H273.666V15.206H289.946C297.206 15.206 301.342 18.418 301.342 24.05C301.342 28.846 298.57 31.706 293.026 32.234V32.586C295.666 33.29 296.678 34.698 297.778 36.766L302.046 44.686H294.39L290.342 37.03C289.154 34.742 288.054 33.994 284.622 33.994H280.266V44.686ZM280.266 21.146V29.022H289.902C293.026 29.022 294.434 28.142 294.434 25.062C294.434 22.158 293.026 21.146 289.902 21.146H280.266Z" fill="white"/>
<defs>
<filter id="filter0_d_260_12939" x="0.741455" y="0.421875" width="370.698" height="68.5283" filterUnits="userSpaceOnUse" color-interpolation-filters="sRGB">
<feFlood flood-opacity="0" result="BackgroundImageFix"/>
<feColorMatrix in="SourceAlpha" type="matrix" values="0 0 0 0 0 0 0 0 0 0 0 0 0 0 0 0 0 0 127 0" result="hardAlpha"/>
<feOffset dy="4"/>
<feGaussianBlur stdDeviation="2.5"/>
<feComposite in2="hardAlpha" operator="out"/>
<feColorMatrix type="matrix" values="0 0 0 0 0 0 0 0 0 0 0 0 0 0 0 0 0 0 0.1 0"/>
<feBlend mode="normal" in2="BackgroundImageFix" result="effect1_dropShadow_260_12939"/>
<feBlend mode="normal" in="SourceGraphic" in2="effect1_dropShadow_260_12939" result="shape"/>
</filter>
<filter id="filter1_d_260_12939" x="0.741455" y="58.9492" width="29.5537" height="36.4302" filterUnits="userSpaceOnUse" color-interpolation-filters="sRGB">
<feFlood flood-opacity="0" result="BackgroundImageFix"/>
<feColorMatrix in="SourceAlpha" type="matrix" values="0 0 0 0 0 0 0 0 0 0 0 0 0 0 0 0 0 0 127 0" result="hardAlpha"/>
<feOffset dy="4"/>
<feGaussianBlur stdDeviation="2.5"/>
<feComposite in2="hardAlpha" operator="out"/>
<feColorMatrix type="matrix" values="0 0 0 0 0 0 0 0 0 0 0 0 0 0 0 0 0 0 0.1 0"/>
<feBlend mode="normal" in2="BackgroundImageFix" result="effect1_dropShadow_260_12939"/>
<feBlend mode="normal" in="SourceGraphic" in2="effect1_dropShadow_260_12939" result="shape"/>
</filter>
</defs>
</svg>
