<svg width="397" height="96" viewBox="0 0 397 96" fill="none" xmlns="http://www.w3.org/2000/svg">
<g filter="url(#filter0_d_385_162)">
<path d="M5.74146 1.92188H369.967C374.416 1.92188 378.33 4.86073 379.571 9.13292L390.76 47.6613C392.618 54.0588 387.819 60.4502 381.157 60.4502H5.74146V1.92188Z" fill="#038E73"/>
</g>
<g filter="url(#filter1_d_385_162)">
<path d="M5.74146 60.4494H25.2952V86.8794L5.74146 60.4494Z" fill="#00B18F"/>
</g>
<path d="M82.852 45.626C73.128 45.626 67.1 39.642 67.1 30.446C67.1 21.25 73.128 15.266 82.852 15.266C92.004 15.266 97.9 19.842 97.9 27.322V27.982H90.552V27.322C90.552 23.45 88.352 21.602 82.984 21.602C76.516 21.602 74.096 23.89 74.096 30.446C74.096 37.002 76.516 39.29 82.984 39.29C88.352 39.29 90.552 37.442 90.552 33.57V32.91H97.9V33.57C97.9 41.05 92.048 45.626 82.852 45.626ZM112.508 45.626C104.984 45.626 99.924 41.138 99.924 34.186C99.924 27.146 104.984 22.702 112.508 22.702C120.032 22.702 125.092 27.146 125.092 34.186C125.092 41.138 120.032 45.626 112.508 45.626ZM112.508 39.774C116.952 39.774 118.536 38.058 118.536 34.186C118.536 30.314 116.952 28.51 112.508 28.51C108.02 28.51 106.48 30.314 106.48 34.186C106.48 38.058 108.02 39.774 112.508 39.774ZM134.387 45.186H127.787V23.142H133.903V29.918H134.299C134.871 26.222 137.511 22.702 143.275 22.702C149.303 22.702 152.163 26.574 152.163 31.458V45.186H145.563V33.658C145.563 30.138 144.111 28.642 140.063 28.642C135.883 28.642 134.387 30.314 134.387 34.054V45.186ZM171.034 45.186H165.578C160.43 45.186 157.306 42.766 157.306 37.222V28.598H153.83V23.142H157.306V18.874H163.906V23.142H171.034V28.598H163.906V36.474C163.906 38.674 164.742 39.246 167.074 39.246H171.034V45.186ZM180.106 45.186H173.506V23.142H179.622V28.994H180.018C180.634 25.43 182.966 22.702 187.41 22.702C192.338 22.702 194.362 26.09 194.362 30.402V34.054H187.762V31.766C187.762 29.346 186.794 28.29 184.11 28.29C181.162 28.29 180.106 29.654 180.106 32.426V45.186ZM203.528 45.626C198.776 45.626 195.916 43.426 195.916 39.73C195.916 36.474 198.336 34.45 203.044 33.966L212.504 32.998V32.162C212.504 29.302 211.228 28.51 207.708 28.51C204.364 28.51 203 29.39 203 31.898V32.074H196.356V31.942C196.356 26.486 200.932 22.702 208.192 22.702C215.54 22.702 219.016 26.486 219.016 32.25V45.186H212.856V40.126H212.504C211.492 43.558 208.412 45.626 203.528 45.626ZM202.56 39.29C202.56 40.478 203.484 40.962 205.42 40.962C209.908 40.962 212.328 39.906 212.504 36.782L204.848 37.662C203.264 37.794 202.56 38.234 202.56 39.29ZM234.11 45.626C226.542 45.626 221.702 41.138 221.702 34.186C221.702 27.146 226.542 22.702 234.11 22.702C241.194 22.702 246.034 26.486 246.034 32.206V32.822H239.478V32.47C239.478 29.654 237.41 28.642 233.978 28.642C230.062 28.642 228.258 30.094 228.258 34.186C228.258 38.234 230.062 39.686 233.978 39.686C237.41 39.686 239.478 38.674 239.478 35.858V35.506H246.034V36.122C246.034 41.798 241.194 45.626 234.11 45.626ZM264.405 45.186H258.949C253.801 45.186 250.677 42.766 250.677 37.222V28.598H247.201V23.142H250.677V18.874H257.277V23.142H264.405V28.598H257.277V36.474C257.277 38.674 258.113 39.246 260.445 39.246H264.405V45.186ZM288.758 45.626C279.034 45.626 273.006 39.642 273.006 30.446C273.006 21.25 279.034 15.266 288.758 15.266C297.91 15.266 303.806 19.842 303.806 27.322V27.982H296.458V27.322C296.458 23.45 294.258 21.602 288.89 21.602C282.422 21.602 280.002 23.89 280.002 30.446C280.002 37.002 282.422 39.29 288.89 39.29C294.258 39.29 296.458 37.442 296.458 33.57V32.91H303.806V33.57C303.806 41.05 297.954 45.626 288.758 45.626ZM331.614 45.186H306.666V15.706H331.614V21.646H313.266V27.41H330.954V33.306H313.266V39.246H331.614V45.186Z" fill="white"/>
<defs>
<filter id="filter0_d_385_162" x="0.741455" y="0.921875" width="395.422" height="68.5283" filterUnits="userSpaceOnUse" color-interpolation-filters="sRGB">
<feFlood flood-opacity="0" result="BackgroundImageFix"/>
<feColorMatrix in="SourceAlpha" type="matrix" values="0 0 0 0 0 0 0 0 0 0 0 0 0 0 0 0 0 0 127 0" result="hardAlpha"/>
<feOffset dy="4"/>
<feGaussianBlur stdDeviation="2.5"/>
<feComposite in2="hardAlpha" operator="out"/>
<feColorMatrix type="matrix" values="0 0 0 0 0 0 0 0 0 0 0 0 0 0 0 0 0 0 0.1 0"/>
<feBlend mode="normal" in2="BackgroundImageFix" result="effect1_dropShadow_385_162"/>
<feBlend mode="normal" in="SourceGraphic" in2="effect1_dropShadow_385_162" result="shape"/>
</filter>
<filter id="filter1_d_385_162" x="0.741455" y="59.4494" width="29.5537" height="36.43" filterUnits="userSpaceOnUse" color-interpolation-filters="sRGB">
<feFlood flood-opacity="0" result="BackgroundImageFix"/>
<feColorMatrix in="SourceAlpha" type="matrix" values="0 0 0 0 0 0 0 0 0 0 0 0 0 0 0 0 0 0 127 0" result="hardAlpha"/>
<feOffset dy="4"/>
<feGaussianBlur stdDeviation="2.5"/>
<feComposite in2="hardAlpha" operator="out"/>
<feColorMatrix type="matrix" values="0 0 0 0 0 0 0 0 0 0 0 0 0 0 0 0 0 0 0.1 0"/>
<feBlend mode="normal" in2="BackgroundImageFix" result="effect1_dropShadow_385_162"/>
<feBlend mode="normal" in="SourceGraphic" in2="effect1_dropShadow_385_162" result="shape"/>
</filter>
</defs>
</svg>
