<svg width="266" height="81" viewBox="0 0 266 81" fill="none" xmlns="http://www.w3.org/2000/svg">
<g filter="url(#filter0_d_260_14768)">
<path d="M5.51648 1.49704L240.773 1.49704C244.907 1.49704 248.615 4.04127 250.103 7.89871L259.388 31.9725C261.914 38.5238 257.079 45.5708 250.057 45.5708H5.51648V1.49704Z" fill="#038E73"/>
</g>
<g filter="url(#filter1_d_260_14768)">
<path d="M5.51648 45.57H25.0702V72L5.51648 45.57Z" fill="#00B18F"/>
</g>
<path d="M60.499 32.8139C54.311 32.8139 50.475 29.0059 50.475 23.1539C50.475 17.3019 54.311 13.4939 60.499 13.4939C66.323 13.4939 70.075 16.4059 70.075 21.1659V21.5859H65.399V21.1659C65.399 18.7019 63.999 17.5259 60.583 17.5259C56.467 17.5259 54.927 18.9819 54.927 23.1539C54.927 27.3259 56.467 28.7819 60.583 28.7819C63.999 28.7819 65.399 27.6059 65.399 25.1419V24.7219H70.075V25.1419C70.075 29.9019 66.351 32.8139 60.499 32.8139ZM79.371 32.8139C74.583 32.8139 71.363 29.9579 71.363 25.5339C71.363 21.0539 74.583 18.2259 79.371 18.2259C84.159 18.2259 87.379 21.0539 87.379 25.5339C87.379 29.9579 84.159 32.8139 79.371 32.8139ZM79.371 29.0899C82.199 29.0899 83.207 27.9979 83.207 25.5339C83.207 23.0699 82.199 21.9219 79.371 21.9219C76.515 21.9219 75.535 23.0699 75.535 25.5339C75.535 27.9979 76.515 29.0899 79.371 29.0899ZM93.2942 32.5339H89.0942V18.5059H92.9862V22.8179H93.2382C93.6022 20.4659 95.2822 18.2259 98.9502 18.2259C102.786 18.2259 104.606 20.6899 104.606 23.7979V32.5339H100.406V25.1979C100.406 22.9579 99.4822 22.0059 96.9062 22.0059C94.2462 22.0059 93.2942 23.0699 93.2942 25.4499V32.5339ZM116.615 32.5339H113.143C109.867 32.5339 107.879 30.9939 107.879 27.4659V21.9779H105.667V18.5059H107.879V15.7899H112.079V18.5059H116.615V21.9779H112.079V26.9899C112.079 28.3899 112.611 28.7539 114.095 28.7539H116.615V32.5339ZM122.388 32.5339H118.188V18.5059H122.08V22.2299H122.332C122.724 19.9619 124.208 18.2259 127.036 18.2259C130.172 18.2259 131.46 20.3819 131.46 23.1259V25.4499H127.26V23.9939C127.26 22.4539 126.644 21.7819 124.936 21.7819C123.06 21.7819 122.388 22.6499 122.388 24.4139V32.5339ZM137.293 32.8139C134.269 32.8139 132.449 31.4139 132.449 29.0619C132.449 26.9899 133.989 25.7019 136.985 25.3939L143.005 24.7779V24.2459C143.005 22.4259 142.193 21.9219 139.953 21.9219C137.825 21.9219 136.957 22.4819 136.957 24.0779V24.1899H132.729V24.1059C132.729 20.6339 135.641 18.2259 140.261 18.2259C144.937 18.2259 147.149 20.6339 147.149 24.3019V32.5339H143.229V29.3139H143.005C142.361 31.4979 140.401 32.8139 137.293 32.8139ZM136.677 28.7819C136.677 29.5379 137.265 29.8459 138.497 29.8459C141.353 29.8459 142.893 29.1739 143.005 27.1859L138.133 27.7459C137.125 27.8299 136.677 28.1099 136.677 28.7819ZM156.754 32.8139C151.938 32.8139 148.858 29.9579 148.858 25.5339C148.858 21.0539 151.938 18.2259 156.754 18.2259C161.262 18.2259 164.342 20.6339 164.342 24.2739V24.6659H160.17V24.4419C160.17 22.6499 158.854 22.0059 156.67 22.0059C154.178 22.0059 153.03 22.9299 153.03 25.5339C153.03 28.1099 154.178 29.0339 156.67 29.0339C158.854 29.0339 160.17 28.3899 160.17 26.5979V26.3739H164.342V26.7659C164.342 30.3779 161.262 32.8139 156.754 32.8139ZM176.033 32.5339H172.561C169.285 32.5339 167.297 30.9939 167.297 27.4659V21.9779H165.085V18.5059H167.297V15.7899H171.497V18.5059H176.033V21.9779H171.497V26.9899C171.497 28.3899 172.029 28.7539 173.513 28.7539H176.033V32.5339ZM186.126 32.5339H181.926V13.7739H192.286C196.906 13.7739 199.538 15.8179 199.538 19.4019C199.538 22.4539 197.774 24.2739 194.246 24.6099V24.8339C195.926 25.2819 196.57 26.1779 197.27 27.4939L199.986 32.5339H195.114L192.538 27.6619C191.782 26.2059 191.082 25.7299 188.898 25.7299H186.126V32.5339ZM186.126 17.5539V22.5659H192.258C194.246 22.5659 195.142 22.0059 195.142 20.0459C195.142 18.1979 194.246 17.5539 192.258 17.5539H186.126ZM217.189 32.5339H201.313V13.7739H217.189V17.5539H205.513V21.2219H216.769V24.9739H205.513V28.7539H217.189V32.5339Z" fill="white"/>
<defs>
<filter id="filter0_d_260_14768" x="0.516479" y="0.49704" width="264.55" height="54.0738" filterUnits="userSpaceOnUse" color-interpolation-filters="sRGB">
<feFlood flood-opacity="0" result="BackgroundImageFix"/>
<feColorMatrix in="SourceAlpha" type="matrix" values="0 0 0 0 0 0 0 0 0 0 0 0 0 0 0 0 0 0 127 0" result="hardAlpha"/>
<feOffset dy="4"/>
<feGaussianBlur stdDeviation="2.5"/>
<feComposite in2="hardAlpha" operator="out"/>
<feColorMatrix type="matrix" values="0 0 0 0 0 0 0 0 0 0 0 0 0 0 0 0 0 0 0.1 0"/>
<feBlend mode="normal" in2="BackgroundImageFix" result="effect1_dropShadow_260_14768"/>
<feBlend mode="normal" in="SourceGraphic" in2="effect1_dropShadow_260_14768" result="shape"/>
</filter>
<filter id="filter1_d_260_14768" x="0.516479" y="44.57" width="29.5537" height="36.43" filterUnits="userSpaceOnUse" color-interpolation-filters="sRGB">
<feFlood flood-opacity="0" result="BackgroundImageFix"/>
<feColorMatrix in="SourceAlpha" type="matrix" values="0 0 0 0 0 0 0 0 0 0 0 0 0 0 0 0 0 0 127 0" result="hardAlpha"/>
<feOffset dy="4"/>
<feGaussianBlur stdDeviation="2.5"/>
<feComposite in2="hardAlpha" operator="out"/>
<feColorMatrix type="matrix" values="0 0 0 0 0 0 0 0 0 0 0 0 0 0 0 0 0 0 0.1 0"/>
<feBlend mode="normal" in2="BackgroundImageFix" result="effect1_dropShadow_260_14768"/>
<feBlend mode="normal" in="SourceGraphic" in2="effect1_dropShadow_260_14768" result="shape"/>
</filter>
</defs>
</svg>
