<svg width="237" height="170" viewBox="0 0 237 170" fill="none" xmlns="http://www.w3.org/2000/svg">
<rect x="67.9799" y="26.077" width="49.8097" height="7" rx="3.5" fill="black"/>
<rect x="61.5077" y="41.4999" width="56.2819" height="7" rx="3.5" fill="black"/>
<rect x="54.4191" y="56.9229" width="63.3705" height="7" rx="3.5" fill="black"/>
<ellipse cx="137.581" cy="45" rx="45" ry="45" fill="white"/>
<circle cx="137.581" cy="45" r="38.815" fill="#F3EA79"/>
<path d="M137.581 83.815C159.018 83.815 176.396 66.4369 176.396 45C176.396 23.563 159.018 6.18494 137.581 6.18494C116.144 6.18494 98.7659 23.563 98.7659 45C98.7659 66.4369 116.144 83.815 137.581 83.815Z" stroke="black" stroke-width="2" stroke-linecap="round" stroke-linejoin="round"/>
<path d="M133.268 27.7488V49.3128H154.832" stroke="black" stroke-width="2" stroke-linecap="round" stroke-linejoin="round"/>
<path d="M5.18181 134H2.15781V115.24H17.0818V117.956H5.18181V123.78H16.6618V126.468H5.18181V134ZM23.4177 134.28C20.5337 134.28 18.7137 132.936 18.7137 130.64C18.7137 128.484 20.4497 127.364 23.1937 127.056L29.5217 126.384V125.572C29.5217 123.276 28.5137 122.464 25.8537 122.464C23.2777 122.464 22.0177 123.304 22.0177 125.348V125.46H19.0217V125.348C19.0217 122.184 21.6537 119.804 26.0777 119.804C30.5017 119.804 32.4897 122.212 32.4897 125.544V134H29.7177V130.528H29.5217C28.7937 132.88 26.5817 134.28 23.4177 134.28ZM21.7377 130.444C21.7377 131.564 22.4937 132.096 24.2297 132.096C27.3937 132.096 29.5217 130.92 29.5217 128.176L24.0617 128.792C22.4937 128.988 21.7377 129.352 21.7377 130.444ZM41.7691 134.28C37.2891 134.28 34.7411 132.516 34.7411 129.296V129.212H37.7651V129.436C37.7651 131.256 38.8571 131.844 41.7691 131.844C44.4851 131.844 45.2971 131.284 45.2971 130.052C45.2971 128.904 44.6251 128.54 42.6371 128.26L38.8291 127.756C36.1971 127.42 34.6011 126.3 34.6011 123.976C34.6011 121.54 36.8131 119.804 41.0971 119.804C45.3531 119.804 47.9291 121.512 47.9291 124.816V124.9H44.9331V124.732C44.9331 123.08 44.0931 122.212 41.0131 122.212C38.4651 122.212 37.5691 122.772 37.5691 124.088C37.5691 125.18 38.1291 125.572 40.2291 125.852L43.4491 126.3C46.7531 126.72 48.2651 127.84 48.2651 130.136C48.2651 132.74 45.6891 134.28 41.7691 134.28ZM59.5749 134H56.3829C53.3869 134 51.5389 132.684 51.5389 129.296V122.604H49.1869V120.084H51.5389V117.032H54.5349V120.084H59.5749V122.604H54.5349V129.128C54.5349 130.836 55.3189 131.284 57.0549 131.284H59.5749V134ZM75.5756 134H72.5796V117.956H65.1876V115.24H82.9396V117.956H75.5756V134ZM90.5046 134.28C86.5846 134.28 84.6806 131.676 84.6806 128.456V120.084H87.6766V127.644C87.6766 130.248 88.8806 131.564 91.8206 131.564C94.9006 131.564 96.3286 129.996 96.3286 126.972V120.084H99.3246V134H96.5526V129.688H96.3846C95.9366 132.04 94.0886 134.28 90.5046 134.28ZM105.096 134H102.072V120.084H104.844V123.836H105.04C105.46 121.596 106.972 119.804 109.828 119.804C112.992 119.804 114.364 122.072 114.364 124.704V126.524H111.368V125.292C111.368 123.304 110.528 122.38 108.456 122.38C106.076 122.38 105.096 123.696 105.096 126.188V134ZM119.287 134H116.263V120.084H119.035V124.396H119.231C119.651 122.044 121.499 119.804 125.027 119.804C128.891 119.804 130.795 122.408 130.795 125.628V134H127.771V126.44C127.771 123.836 126.595 122.52 123.711 122.52C120.659 122.52 119.287 124.088 119.287 127.112V134ZM137.578 134.28C134.694 134.28 132.874 132.936 132.874 130.64C132.874 128.484 134.61 127.364 137.354 127.056L143.682 126.384V125.572C143.682 123.276 142.674 122.464 140.014 122.464C137.438 122.464 136.178 123.304 136.178 125.348V125.46H133.182V125.348C133.182 122.184 135.814 119.804 140.238 119.804C144.662 119.804 146.65 122.212 146.65 125.544V134H143.878V130.528H143.682C142.954 132.88 140.742 134.28 137.578 134.28ZM135.898 130.444C135.898 131.564 136.654 132.096 138.39 132.096C141.554 132.096 143.682 130.92 143.682 128.176L138.222 128.792C136.654 128.988 135.898 129.352 135.898 130.444ZM152.373 134H149.349V120.084H152.121V123.836H152.317C152.737 121.596 154.249 119.804 157.105 119.804C160.269 119.804 161.641 122.072 161.641 124.704V126.524H158.645V125.292C158.645 123.304 157.805 122.38 155.733 122.38C153.353 122.38 152.373 123.696 152.373 126.188V134ZM170.653 134.28C166.033 134.28 162.925 131.34 162.925 127.056C162.925 122.716 166.033 119.804 170.653 119.804C175.301 119.804 178.409 122.716 178.409 127.056C178.409 131.34 175.301 134.28 170.653 134.28ZM170.653 131.592C174.041 131.592 175.441 129.996 175.441 127.056C175.441 124.088 174.041 122.464 170.653 122.464C167.293 122.464 165.893 124.088 165.893 127.056C165.893 129.996 167.293 131.592 170.653 131.592ZM186.399 134.28C182.479 134.28 180.575 131.676 180.575 128.456V120.084H183.571V127.644C183.571 130.248 184.775 131.564 187.715 131.564C190.795 131.564 192.223 129.996 192.223 126.972V120.084H195.219V134H192.447V129.688H192.279C191.831 132.04 189.983 134.28 186.399 134.28ZM200.99 134H197.966V120.084H200.738V124.396H200.934C201.354 122.044 203.202 119.804 206.73 119.804C210.594 119.804 212.498 122.408 212.498 125.628V134H209.474V126.44C209.474 123.836 208.298 122.52 205.414 122.52C202.362 122.52 200.99 124.088 200.99 127.112V134ZM221.325 134.28C216.929 134.28 214.493 131.34 214.493 127.056C214.493 122.716 216.901 119.804 221.129 119.804C224.433 119.804 226.309 121.512 226.869 123.864H227.037V115.24H230.061V134H227.289V129.996H227.093C226.505 132.768 224.461 134.28 221.325 134.28ZM217.545 127.056C217.545 130.388 219.253 131.508 222.249 131.508C225.217 131.508 227.037 130.108 227.037 127.196V126.972C227.037 124.004 225.301 122.548 222.193 122.548C219.281 122.548 217.545 123.696 217.545 127.056ZM95.1947 164H92.1987V147.956H84.8067V145.24H102.559V147.956H95.1947V164ZM107.352 148.46H104.328V145.24H107.352V148.46ZM107.352 164H104.328V150.084H107.352V164ZM113.176 164H110.152V150.084H112.924V154.284H113.092C113.456 151.96 114.968 149.804 118.44 149.804C121.604 149.804 123.312 151.736 123.704 154.396H123.872C124.236 152.016 125.804 149.804 129.332 149.804C132.944 149.804 134.764 152.268 134.764 155.628V164H131.768V156.44C131.768 153.696 130.676 152.52 127.988 152.52C125.02 152.52 123.956 154.032 123.956 157.112V164H120.96V156.44C120.96 153.696 119.896 152.52 117.208 152.52C114.212 152.52 113.176 154.032 113.176 157.112V164ZM144.468 164.28C139.904 164.28 136.908 161.704 136.908 157.056C136.908 152.716 139.876 149.804 144.412 149.804C148.724 149.804 151.664 152.184 151.664 156.412C151.664 156.916 151.636 157.308 151.552 157.728H139.736C139.848 160.416 141.164 161.844 144.384 161.844C147.296 161.844 148.5 160.892 148.5 159.24V159.016H151.524V159.268C151.524 162.236 148.612 164.28 144.468 164.28ZM144.356 152.184C141.276 152.184 139.932 153.556 139.764 156.048H148.808V155.992C148.808 153.416 147.324 152.184 144.356 152.184Z" fill="black"/>
</svg>
