<svg width="210" height="170" viewBox="0 0 210 170" fill="none" xmlns="http://www.w3.org/2000/svg">
<path d="M67.7651 3C67.7651 1.89543 68.6606 1 69.7651 1H111.858L130.506 23.1441V80.9232C130.506 82.0278 129.61 82.9232 128.506 82.9232H69.7651C68.6606 82.9232 67.7651 82.0278 67.7651 80.9232V3Z" fill="white" stroke="black" stroke-width="2"/>
<path d="M128.657 90C136.708 90 143.235 83.4735 143.235 75.4221C143.235 67.3708 136.708 60.8443 128.657 60.8443C120.606 60.8443 114.079 67.3708 114.079 75.4221C114.079 83.4735 120.606 90 128.657 90Z" fill="#00B18F" stroke="black" stroke-linecap="round" stroke-linejoin="round"/>
<path fill-rule="evenodd" clip-rule="evenodd" d="M78.5514 38.6024H119.814H78.5514Z" fill="white"/>
<path d="M78.5514 38.6024H119.814" stroke="black" stroke-width="2" stroke-miterlimit="10" stroke-linecap="round" stroke-linejoin="round"/>
<path fill-rule="evenodd" clip-rule="evenodd" d="M78.5514 48.3068H119.814H78.5514Z" fill="white"/>
<path d="M78.5514 48.3068H119.814" stroke="black" stroke-width="2" stroke-miterlimit="10" stroke-linecap="round" stroke-linejoin="round"/>
<path fill-rule="evenodd" clip-rule="evenodd" d="M78.5514 58.011H119.814H78.5514Z" fill="white"/>
<path d="M78.5514 58.011H119.814" stroke="black" stroke-width="2" stroke-miterlimit="10" stroke-linecap="round" stroke-linejoin="round"/>
<path d="M112.323 22.8534V1.19891L130.1 22.8534H112.323Z" fill="white" stroke="black" stroke-width="2" stroke-linejoin="round"/>
<path d="M120.341 76.4441L123.174 73.6115L126.077 76.5148L126.148 76.5855L126.219 76.5148L134.14 68.5867L136.973 71.4193L126.148 82.2576L120.341 76.4441ZM134.211 70.3481L134.14 70.2768L134.069 70.3479L126.148 78.2833L123.244 75.4145L123.175 75.3459L123.105 75.4137L122.111 76.3721L122.038 76.4429L122.11 76.5148L126.077 80.4755L126.148 80.5461L126.219 80.4754L135.204 71.49L135.275 71.4195L135.205 71.3488L134.211 70.3481Z" fill="black" stroke="#00B18F" stroke-width="0.2"/>
<path d="M135.435 71.4078L126.141 80.7023C124.475 79.0367 121.867 76.4372 121.867 76.4372L123.162 75.1799L126.136 78.1137L134.139 70.1115L135.435 71.4078Z" fill="white"/>
<path d="M4.424 134H1.4V115.24H10.584C14.756 115.24 17.612 117.62 17.612 121.792C17.612 125.936 14.756 128.344 10.584 128.344H4.424V134ZM10.304 117.956H4.424V125.628H10.304C13.132 125.628 14.588 124.564 14.588 121.792C14.588 119.02 13.132 117.956 10.304 117.956ZM22.4435 134H19.4195V115.24H22.4435V134ZM29.3318 134.28C26.4478 134.28 24.6278 132.936 24.6278 130.64C24.6278 128.484 26.3638 127.364 29.1078 127.056L35.4358 126.384V125.572C35.4358 123.276 34.4278 122.464 31.7678 122.464C29.1918 122.464 27.9318 123.304 27.9318 125.348V125.46H24.9358V125.348C24.9358 122.184 27.5678 119.804 31.9918 119.804C36.4158 119.804 38.4038 122.212 38.4038 125.544V134H35.6318V130.528H35.4358C34.7078 132.88 32.4958 134.28 29.3318 134.28ZM27.6518 130.444C27.6518 131.564 28.4078 132.096 30.1438 132.096C33.3078 132.096 35.4358 130.92 35.4358 128.176L29.9758 128.792C28.4078 128.988 27.6518 129.352 27.6518 130.444ZM47.1511 132.74C43.0071 132.74 40.5431 130.136 40.5431 126.272C40.5431 122.408 43.1191 119.804 47.3471 119.804C50.2591 119.804 52.4431 121.12 52.9471 123.556H53.1151V120.084H55.8871V132.376C55.8871 137.052 52.9751 139.04 48.4111 139.04C44.2951 139.04 41.4391 137.108 41.4391 133.748H44.4351C44.4351 135.764 45.6111 136.52 48.5791 136.52C51.7431 136.52 52.8911 135.652 52.8911 132.544V129.128H52.6951C52.1911 131.228 50.3151 132.74 47.1511 132.74ZM43.5951 126.272C43.5951 129.128 45.2751 130.136 48.1311 130.136C51.2111 130.136 52.8911 128.848 52.8911 126.384V125.992C52.8911 123.64 51.1551 122.436 48.2151 122.436C45.3031 122.436 43.5951 123.416 43.5951 126.272ZM61.7092 118.46H58.6852V115.24H61.7092V118.46ZM61.7092 134H58.6852V120.084H61.7092V134ZM68.5974 134.28C65.7134 134.28 63.8934 132.936 63.8934 130.64C63.8934 128.484 65.6294 127.364 68.3734 127.056L74.7014 126.384V125.572C74.7014 123.276 73.6934 122.464 71.0334 122.464C68.4574 122.464 67.1974 123.304 67.1974 125.348V125.46H64.2014V125.348C64.2014 122.184 66.8334 119.804 71.2574 119.804C75.6814 119.804 77.6694 122.212 77.6694 125.544V134H74.8974V130.528H74.7014C73.9734 132.88 71.7614 134.28 68.5974 134.28ZM66.9174 130.444C66.9174 131.564 67.6734 132.096 69.4094 132.096C72.5734 132.096 74.7014 130.92 74.7014 128.176L69.2414 128.792C67.6734 128.988 66.9174 129.352 66.9174 130.444ZM83.3928 134H80.3688V120.084H83.1408V123.836H83.3368C83.7568 121.596 85.2688 119.804 88.1248 119.804C91.2888 119.804 92.6608 122.072 92.6608 124.704V126.524H89.6648V125.292C89.6648 123.304 88.8248 122.38 86.7528 122.38C84.3728 122.38 83.3928 123.696 83.3928 126.188V134ZM97.5842 118.46H94.5602V115.24H97.5842V118.46ZM97.5842 134H94.5602V120.084H97.5842V134ZM106.964 134.28C102.484 134.28 99.9364 132.516 99.9364 129.296V129.212H102.96V129.436C102.96 131.256 104.052 131.844 106.964 131.844C109.68 131.844 110.492 131.284 110.492 130.052C110.492 128.904 109.82 128.54 107.832 128.26L104.024 127.756C101.392 127.42 99.7964 126.3 99.7964 123.976C99.7964 121.54 102.008 119.804 106.292 119.804C110.548 119.804 113.124 121.512 113.124 124.816V124.9H110.128V124.732C110.128 123.08 109.288 122.212 106.208 122.212C103.66 122.212 102.764 122.772 102.764 124.088C102.764 125.18 103.324 125.572 105.424 125.852L108.644 126.3C111.948 126.72 113.46 127.84 113.46 130.136C113.46 132.74 110.884 134.28 106.964 134.28ZM118.666 134H115.642V120.084H118.414V124.284H118.582C118.946 121.96 120.458 119.804 123.93 119.804C127.094 119.804 128.802 121.736 129.194 124.396H129.362C129.726 122.016 131.294 119.804 134.822 119.804C138.434 119.804 140.254 122.268 140.254 125.628V134H137.258V126.44C137.258 123.696 136.166 122.52 133.478 122.52C130.51 122.52 129.446 124.032 129.446 127.112V134H126.45V126.44C126.45 123.696 125.386 122.52 122.698 122.52C119.702 122.52 118.666 124.032 118.666 127.112V134ZM151.303 127.056H142.399V124.48H151.303V127.056ZM157.629 134H154.605V122.604H152.505V120.084H154.633C154.969 117.032 157.293 115.24 161.241 115.24H162.613V117.48H160.765C158.553 117.48 157.405 118.068 157.573 120.084H162.613V122.604H157.629V134ZM167.311 134H164.287V120.084H167.059V123.836H167.255C167.675 121.596 169.187 119.804 172.043 119.804C175.207 119.804 176.579 122.072 176.579 124.704V126.524H173.583V125.292C173.583 123.304 172.743 122.38 170.671 122.38C168.291 122.38 167.311 123.696 167.311 126.188V134ZM185.478 134.28C180.914 134.28 177.918 131.704 177.918 127.056C177.918 122.716 180.886 119.804 185.422 119.804C189.734 119.804 192.674 122.184 192.674 126.412C192.674 126.916 192.646 127.308 192.562 127.728H180.746C180.858 130.416 182.174 131.844 185.394 131.844C188.306 131.844 189.51 130.892 189.51 129.24V129.016H192.534V129.268C192.534 132.236 189.622 134.28 185.478 134.28ZM185.366 122.184C182.286 122.184 180.942 123.556 180.774 126.048H189.818V125.992C189.818 123.416 188.334 122.184 185.366 122.184ZM201.939 134.28C197.375 134.28 194.379 131.704 194.379 127.056C194.379 122.716 197.347 119.804 201.883 119.804C206.195 119.804 209.135 122.184 209.135 126.412C209.135 126.916 209.107 127.308 209.023 127.728H197.207C197.319 130.416 198.635 131.844 201.855 131.844C204.767 131.844 205.971 130.892 205.971 129.24V129.016H208.995V129.268C208.995 132.236 206.083 134.28 201.939 134.28ZM201.827 122.184C198.747 122.184 197.403 123.556 197.235 126.048H206.279V125.992C206.279 123.416 204.795 122.184 201.827 122.184ZM68.1296 164.28C62.2496 164.28 58.3576 160.472 58.3576 154.62C58.3576 148.768 62.2496 144.96 68.1296 144.96C74.0656 144.96 77.9296 148.768 77.9296 154.62C77.9296 160.472 74.0656 164.28 68.1296 164.28ZM68.1296 161.368C72.5816 161.368 74.7376 159.296 74.7376 154.62C74.7376 149.944 72.5816 147.844 68.1296 147.844C63.6776 147.844 61.5496 149.944 61.5496 154.62C61.5496 159.296 63.6776 161.368 68.1296 161.368ZM85.9597 164.28C82.0397 164.28 80.1357 161.676 80.1357 158.456V150.084H83.1317V157.644C83.1317 160.248 84.3357 161.564 87.2757 161.564C90.3557 161.564 91.7837 159.996 91.7837 156.972V150.084H94.7797V164H92.0077V159.688H91.8397C91.3917 162.04 89.5437 164.28 85.9597 164.28ZM106.655 164H103.463C100.467 164 98.619 162.684 98.619 159.296V152.604H96.267V150.084H98.619V147.032H101.615V150.084H106.655V152.604H101.615V159.128C101.615 160.836 102.399 161.284 104.135 161.284H106.655V164ZM111.57 164H108.546V145.24H111.57V164ZM117.395 148.46H114.371V145.24H117.395V148.46ZM117.395 164H114.371V150.084H117.395V164ZM123.219 164H120.195V150.084H122.967V154.396H123.163C123.583 152.044 125.431 149.804 128.959 149.804C132.823 149.804 134.727 152.408 134.727 155.628V164H131.703V156.44C131.703 153.836 130.527 152.52 127.643 152.52C124.591 152.52 123.219 154.088 123.219 157.112V164ZM144.421 164.28C139.857 164.28 136.861 161.704 136.861 157.056C136.861 152.716 139.829 149.804 144.365 149.804C148.677 149.804 151.617 152.184 151.617 156.412C151.617 156.916 151.589 157.308 151.505 157.728H139.689C139.801 160.416 141.117 161.844 144.337 161.844C147.249 161.844 148.453 160.892 148.453 159.24V159.016H151.477V159.268C151.477 162.236 148.565 164.28 144.421 164.28ZM144.309 152.184C141.229 152.184 139.885 153.556 139.717 156.048H148.761V155.992C148.761 153.416 147.277 152.184 144.309 152.184Z" fill="black"/>
</svg>
