<svg width="259" height="135" viewBox="0 0 259 135" fill="none" xmlns="http://www.w3.org/2000/svg">
<path d="M140.6 22.2838V23.7838H142.1H170.9C172.063 23.7838 173 24.721 173 25.8838V72.6838C173 73.8466 172.063 74.7838 170.9 74.7838H124.1C122.937 74.7838 122 73.8466 122 72.6838V59.9713V58.4713H120.5H92.6H91.1V59.9713V89.0713H86V2.07129H91.1V5.97129V7.47129H92.6H138.5C139.663 7.47129 140.6 8.40847 140.6 9.57129V22.2838ZM91.1 51.8713V53.3713H92.6H134H135.5V51.8713V14.0713V12.5713H134H92.6H91.1V14.0713V51.8713ZM166.4 69.6838H167.9V68.1838V30.3838V28.8838H166.4H142.1H140.6V30.3838V58.4713H128.6H127.1V59.9713V68.1838V69.6838H128.6H166.4Z" fill="black" stroke="white" stroke-width="3"/>
<rect x="89.6102" y="11.0763" width="47.3898" height="43.7721" fill="#00B18F"/>
<path d="M139.107 27.3699H169.404V71.1426H125.594V56.979H139.107V27.3699Z" fill="#00B18F"/>
<path d="M13.643 129.851C8.043 129.851 5.187 127.387 5.187 123.439V123.271H8.211V123.719C8.211 125.959 9.527 127.079 13.643 127.079C17.227 127.079 18.487 126.295 18.487 124.531C18.487 122.907 17.535 122.291 15.155 121.843L10.563 121.087C7.399 120.527 5.159 119.071 5.159 115.991C5.159 113.275 7.399 110.531 13.223 110.531C18.711 110.531 21.203 113.275 21.203 116.943V117.111H18.207V116.747C18.207 114.451 16.835 113.303 12.943 113.303C9.527 113.303 8.183 114.143 8.183 115.823C8.183 117.447 9.135 117.979 11.347 118.455L15.911 119.239C19.663 119.911 21.511 121.619 21.511 124.363C21.511 127.219 19.187 129.851 13.643 129.851ZM32.7858 129.571H29.5938C26.5978 129.571 24.7498 128.255 24.7498 124.867V118.175H22.3978V115.655H24.7498V112.603H27.7458V115.655H32.7858V118.175H27.7458V124.699C27.7458 126.407 28.5298 126.855 30.2658 126.855H32.7858V129.571ZM37.7013 129.571H34.6773V115.655H37.4493V119.407H37.6453C38.0653 117.167 39.5773 115.375 42.4333 115.375C45.5973 115.375 46.9693 117.643 46.9693 120.275V122.095H43.9733V120.863C43.9733 118.875 43.1333 117.951 41.0613 117.951C38.6813 117.951 37.7013 119.267 37.7013 121.759V129.571ZM52.9568 129.851C50.0728 129.851 48.2528 128.507 48.2528 126.211C48.2528 124.055 49.9888 122.935 52.7328 122.627L59.0608 121.955V121.143C59.0608 118.847 58.0528 118.035 55.3928 118.035C52.8168 118.035 51.5568 118.875 51.5568 120.919V121.031H48.5608V120.919C48.5608 117.755 51.1928 115.375 55.6168 115.375C60.0408 115.375 62.0288 117.783 62.0288 121.115V129.571H59.2568V126.099H59.0608C58.3328 128.451 56.1208 129.851 52.9568 129.851ZM51.2768 126.015C51.2768 127.135 52.0328 127.667 53.7688 127.667C56.9328 127.667 59.0608 126.491 59.0608 123.747L53.6008 124.363C52.0328 124.559 51.2768 124.923 51.2768 126.015ZM73.8561 129.571H70.6641C67.6681 129.571 65.8201 128.255 65.8201 124.867V118.175H63.4681V115.655H65.8201V112.603H68.8161V115.655H73.8561V118.175H68.8161V124.699C68.8161 126.407 69.6001 126.855 71.3361 126.855H73.8561V129.571ZM82.7477 129.851C78.1837 129.851 75.1877 127.275 75.1877 122.627C75.1877 118.287 78.1557 115.375 82.6917 115.375C87.0037 115.375 89.9437 117.755 89.9437 121.983C89.9437 122.487 89.9157 122.879 89.8317 123.299H78.0157C78.1277 125.987 79.4437 127.415 82.6637 127.415C85.5757 127.415 86.7797 126.463 86.7797 124.811V124.587H89.8037V124.839C89.8037 127.807 86.8917 129.851 82.7477 129.851ZM82.6357 117.755C79.5557 117.755 78.2117 119.127 78.0437 121.619H87.0877V121.563C87.0877 118.987 85.6037 117.755 82.6357 117.755ZM98.2566 128.311C94.1126 128.311 91.6486 125.707 91.6486 121.843C91.6486 117.979 94.2246 115.375 98.4526 115.375C101.365 115.375 103.549 116.691 104.053 119.127H104.221V115.655H106.993V127.947C106.993 132.623 104.081 134.611 99.5166 134.611C95.4006 134.611 92.5446 132.679 92.5446 129.319H95.5406C95.5406 131.335 96.7166 132.091 99.6846 132.091C102.849 132.091 103.997 131.223 103.997 128.115V124.699H103.801C103.297 126.799 101.421 128.311 98.2566 128.311ZM94.7006 121.843C94.7006 124.699 96.3806 125.707 99.2366 125.707C102.317 125.707 103.997 124.419 103.997 121.955V121.563C103.997 119.211 102.261 118.007 99.3206 118.007C96.4086 118.007 94.7006 118.987 94.7006 121.843ZM112.815 114.031H109.791V110.811H112.815V114.031ZM112.815 129.571H109.791V115.655H112.815V129.571ZM122.643 129.851C118.051 129.851 115.055 126.911 115.055 122.627C115.055 118.287 118.051 115.375 122.643 115.375C126.815 115.375 129.867 117.727 129.867 121.199V121.479H126.871V121.311C126.871 119.155 125.303 118.091 122.587 118.091C119.451 118.091 118.051 119.575 118.051 122.627C118.051 125.623 119.451 127.135 122.587 127.135C125.303 127.135 126.871 126.071 126.871 123.915V123.719H129.867V124.027C129.867 127.499 126.815 129.851 122.643 129.851ZM146.1 129.851C140.22 129.851 136.328 126.043 136.328 120.191C136.328 114.339 140.22 110.531 146.1 110.531C152.036 110.531 155.9 114.339 155.9 120.191C155.9 126.043 152.036 129.851 146.1 129.851ZM146.1 126.939C150.552 126.939 152.708 124.867 152.708 120.191C152.708 115.515 150.552 113.415 146.1 113.415C141.648 113.415 139.52 115.515 139.52 120.191C139.52 124.867 141.648 126.939 146.1 126.939ZM163.93 129.851C160.01 129.851 158.106 127.247 158.106 124.027V115.655H161.102V123.215C161.102 125.819 162.306 127.135 165.246 127.135C168.326 127.135 169.754 125.567 169.754 122.543V115.655H172.75V129.571H169.978V125.259H169.81C169.362 127.611 167.514 129.851 163.93 129.851ZM184.626 129.571H181.434C178.438 129.571 176.59 128.255 176.59 124.867V118.175H174.238V115.655H176.59V112.603H179.586V115.655H184.626V118.175H179.586V124.699C179.586 126.407 180.37 126.855 182.106 126.855H184.626V129.571ZM189.541 129.571H186.517V110.811H189.541V129.571ZM195.365 114.031H192.341V110.811H195.365V114.031ZM195.365 129.571H192.341V115.655H195.365V129.571ZM201.19 129.571H198.166V115.655H200.938V119.967H201.134C201.554 117.615 203.402 115.375 206.93 115.375C210.794 115.375 212.698 117.979 212.698 121.199V129.571H209.674V122.011C209.674 119.407 208.498 118.091 205.614 118.091C202.562 118.091 201.19 119.659 201.19 122.683V129.571ZM218.416 114.031H215.392V110.811H218.416V114.031ZM218.416 129.571H215.392V115.655H218.416V129.571ZM224.24 129.571H221.216V115.655H223.988V119.967H224.184C224.604 117.615 226.452 115.375 229.98 115.375C233.844 115.375 235.748 117.979 235.748 121.199V129.571H232.724V122.011C232.724 119.407 231.548 118.091 228.664 118.091C225.612 118.091 224.24 119.659 224.24 122.683V129.571ZM244.491 128.311C240.347 128.311 237.883 125.707 237.883 121.843C237.883 117.979 240.459 115.375 244.687 115.375C247.599 115.375 249.783 116.691 250.287 119.127H250.455V115.655H253.227V127.947C253.227 132.623 250.315 134.611 245.751 134.611C241.635 134.611 238.779 132.679 238.779 129.319H241.775C241.775 131.335 242.951 132.091 245.919 132.091C249.083 132.091 250.231 131.223 250.231 128.115V124.699H250.035C249.531 126.799 247.655 128.311 244.491 128.311ZM240.935 121.843C240.935 124.699 242.615 125.707 245.471 125.707C248.551 125.707 250.231 124.419 250.231 121.955V121.563C250.231 119.211 248.495 118.007 245.555 118.007C242.643 118.007 240.935 118.987 240.935 121.843Z" fill="black"/>
</svg>
