<svg width="243" height="171" viewBox="0 0 243 171" fill="none" xmlns="http://www.w3.org/2000/svg">
<mask id="path-1-inside-1_1_195" fill="white">
<path d="M114 64.3213L99 49.3213L104.287 44.0338L114 53.7088L138.713 28.9963L144 34.3213M121.5 4.32129L87.75 19.3213V41.8213C87.75 62.6338 102.15 82.0963 121.5 86.8213C140.85 82.0963 155.25 62.6338 155.25 41.8213V19.3213L121.5 4.32129Z"/>
</mask>
<path d="M114 64.3213L99 49.3213L104.287 44.0338L114 53.7088L138.713 28.9963L144 34.3213M121.5 4.32129L87.75 19.3213V41.8213C87.75 62.6338 102.15 82.0963 121.5 86.8213C140.85 82.0963 155.25 62.6338 155.25 41.8213V19.3213L121.5 4.32129Z" fill="#5EA7FF"/>
<path d="M99 49.3213L97.5858 47.9071L96.1716 49.3213L97.5858 50.7355L99 49.3213ZM104.287 44.0338L105.699 42.6168L104.285 41.2081L102.873 42.6196L104.287 44.0338ZM114 53.7088L112.589 55.1257L114.003 56.5345L115.414 55.123L114 53.7088ZM138.713 28.9963L140.132 27.5871L138.718 26.1629L137.298 27.5821L138.713 28.9963ZM121.5 4.32129L122.312 2.49367L121.5 2.13265L120.688 2.49367L121.5 4.32129ZM87.75 19.3213L86.9377 17.4937L85.75 18.0215V19.3213H87.75ZM121.5 86.8213L121.026 88.7642L121.5 88.8801L121.974 88.7642L121.5 86.8213ZM155.25 19.3213H157.25V18.0215L156.062 17.4937L155.25 19.3213ZM115.414 62.9071L100.414 47.9071L97.5858 50.7355L112.586 65.7355L115.414 62.9071ZM100.414 50.7355L105.702 45.448L102.873 42.6196L97.5858 47.9071L100.414 50.7355ZM102.876 45.4507L112.589 55.1257L115.411 52.2918L105.699 42.6168L102.876 45.4507ZM115.414 55.123L140.127 30.4105L137.298 27.5821L112.586 52.2946L115.414 55.123ZM137.293 30.4055L142.581 35.7305L145.419 32.9121L140.132 27.5871L137.293 30.4055ZM120.688 2.49367L86.9377 17.4937L88.5623 21.1489L122.312 6.14891L120.688 2.49367ZM85.75 19.3213V41.8213H89.75V19.3213H85.75ZM85.75 41.8213C85.75 63.4726 100.702 83.8014 121.026 88.7642L121.974 84.8784C103.598 80.3911 89.75 61.7949 89.75 41.8213H85.75ZM121.974 88.7642C142.298 83.8014 157.25 63.4726 157.25 41.8213H153.25C153.25 61.7949 139.402 80.3911 121.026 84.8784L121.974 88.7642ZM157.25 41.8213V19.3213H153.25V41.8213H157.25ZM156.062 17.4937L122.312 2.49367L120.688 6.14891L154.438 21.1489L156.062 17.4937Z" fill="black" mask="url(#path-1-inside-1_1_195)"/>
<path d="M113.253 65.7406L145.743 33.2505" stroke="black" stroke-width="2"/>
<path d="M4.84588 134.571H1.82188V115.811H11.0059C15.1779 115.811 18.0339 118.191 18.0339 122.363C18.0339 126.507 15.1779 128.915 11.0059 128.915H4.84588V134.571ZM10.7259 118.527H4.84588V126.199H10.7259C13.5539 126.199 15.0099 125.135 15.0099 122.363C15.0099 119.591 13.5539 118.527 10.7259 118.527ZM22.8654 134.571H19.8414V120.655H22.6134V124.407H22.8094C23.2294 122.167 24.7414 120.375 27.5974 120.375C30.7614 120.375 32.1334 122.643 32.1334 125.275V127.095H29.1374V125.863C29.1374 123.875 28.2974 122.951 26.2254 122.951C23.8454 122.951 22.8654 124.267 22.8654 126.759V134.571ZM41.0328 134.851C36.4688 134.851 33.4728 132.275 33.4728 127.627C33.4728 123.287 36.4408 120.375 40.9768 120.375C45.2888 120.375 48.2288 122.755 48.2288 126.983C48.2288 127.487 48.2008 127.879 48.1168 128.299H36.3008C36.4128 130.987 37.7288 132.415 40.9488 132.415C43.8608 132.415 45.0648 131.463 45.0648 129.811V129.587H48.0888V129.839C48.0888 132.807 45.1768 134.851 41.0328 134.851ZM40.9208 122.755C37.8408 122.755 36.4968 124.127 36.3288 126.619H45.3728V126.563C45.3728 123.987 43.8888 122.755 40.9208 122.755ZM53.5178 134.571H50.4938V120.655H53.2658V124.855H53.4338C53.7978 122.531 55.3098 120.375 58.7818 120.375C61.9458 120.375 63.6538 122.307 64.0458 124.967H64.2138C64.5778 122.587 66.1458 120.375 69.6738 120.375C73.2858 120.375 75.1058 122.839 75.1058 126.199V134.571H72.1098V127.011C72.1098 124.267 71.0178 123.091 68.3298 123.091C65.3618 123.091 64.2978 124.603 64.2978 127.683V134.571H61.3018V127.011C61.3018 124.267 60.2378 123.091 57.5498 123.091C54.5538 123.091 53.5178 124.603 53.5178 127.683V134.571ZM80.8342 119.031H77.8102V115.811H80.8342V119.031ZM80.8342 134.571H77.8102V120.655H80.8342V134.571ZM89.4304 134.851C85.5104 134.851 83.6064 132.247 83.6064 129.027V120.655H86.6024V128.215C86.6024 130.819 87.8064 132.135 90.7464 132.135C93.8264 132.135 95.2544 130.567 95.2544 127.543V120.655H98.2504V134.571H95.4784V130.259H95.3104C94.8624 132.611 93.0144 134.851 89.4304 134.851ZM104.022 134.571H100.998V120.655H103.77V124.855H103.938C104.302 122.531 105.814 120.375 109.286 120.375C112.45 120.375 114.158 122.307 114.55 124.967H114.718C115.082 122.587 116.65 120.375 120.178 120.375C123.79 120.375 125.61 122.839 125.61 126.199V134.571H122.614V127.011C122.614 124.267 121.522 123.091 118.834 123.091C115.866 123.091 114.802 124.603 114.802 127.683V134.571H111.806V127.011C111.806 124.267 110.742 123.091 108.054 123.091C105.058 123.091 104.022 124.603 104.022 127.683V134.571ZM146.284 134.571H141.832L136.876 115.811H140.236L143.288 127.683L144.128 131.659H144.352L145.36 127.683L149.14 115.811H153.536L157.568 127.683L158.632 131.659H158.856L159.64 127.683L162.44 115.811H165.744L161.04 134.571H156.588L152.808 123.651L151.436 118.835H151.184L149.84 123.651L146.284 134.571ZM170.549 134.571H167.525V120.655H170.297V124.407H170.493C170.913 122.167 172.425 120.375 175.281 120.375C178.445 120.375 179.817 122.643 179.817 125.275V127.095H176.821V125.863C176.821 123.875 175.981 122.951 173.909 122.951C171.529 122.951 170.549 124.267 170.549 126.759V134.571ZM184.74 119.031H181.716V115.811H184.74V119.031ZM184.74 134.571H181.716V120.655H184.74V134.571ZM196.669 134.571H193.477C190.481 134.571 188.633 133.255 188.633 129.867V123.175H186.281V120.655H188.633V117.603H191.629V120.655H196.669V123.175H191.629V129.699C191.629 131.407 192.413 131.855 194.149 131.855H196.669V134.571ZM201.584 119.031H198.56V115.811H201.584V119.031ZM201.584 134.571H198.56V120.655H201.584V134.571ZM207.408 134.571H204.384V120.655H207.156V124.967H207.352C207.772 122.615 209.62 120.375 213.148 120.375C217.012 120.375 218.916 122.979 218.916 126.199V134.571H215.892V127.011C215.892 124.407 214.716 123.091 211.832 123.091C208.78 123.091 207.408 124.659 207.408 127.683V134.571ZM227.659 133.311C223.515 133.311 221.051 130.707 221.051 126.843C221.051 122.979 223.627 120.375 227.855 120.375C230.767 120.375 232.951 121.691 233.455 124.127H233.623V120.655H236.395V132.947C236.395 137.623 233.483 139.611 228.919 139.611C224.803 139.611 221.947 137.679 221.947 134.319H224.943C224.943 136.335 226.119 137.091 229.087 137.091C232.251 137.091 233.399 136.223 233.399 133.115V129.699H233.203C232.699 131.799 230.823 133.311 227.659 133.311ZM224.103 126.843C224.103 129.699 225.783 130.707 228.639 130.707C231.719 130.707 233.399 129.419 233.399 126.955V126.563C233.399 124.211 231.663 123.007 228.723 123.007C225.811 123.007 224.103 123.987 224.103 126.843ZM70.9672 164.851C65.3672 164.851 62.5112 162.387 62.5112 158.439V158.271H65.5352V158.719C65.5352 160.959 66.8512 162.079 70.9672 162.079C74.5512 162.079 75.8112 161.295 75.8112 159.531C75.8112 157.907 74.8592 157.291 72.4792 156.843L67.8872 156.087C64.7232 155.527 62.4832 154.071 62.4832 150.991C62.4832 148.275 64.7232 145.531 70.5472 145.531C76.0352 145.531 78.5272 148.275 78.5272 151.943V152.111H75.5312V151.747C75.5312 149.451 74.1592 148.303 70.2672 148.303C66.8512 148.303 65.5072 149.143 65.5072 150.823C65.5072 152.447 66.4592 152.979 68.6712 153.455L73.2352 154.239C76.9872 154.911 78.8352 156.619 78.8352 159.363C78.8352 162.219 76.5112 164.851 70.9672 164.851ZM87.982 164.851C83.418 164.851 80.422 162.275 80.422 157.627C80.422 153.287 83.39 150.375 87.926 150.375C92.238 150.375 95.178 152.755 95.178 156.983C95.178 157.487 95.15 157.879 95.066 158.299H83.25C83.362 160.987 84.678 162.415 87.898 162.415C90.81 162.415 92.014 161.463 92.014 159.811V159.587H95.038V159.839C95.038 162.807 92.126 164.851 87.982 164.851ZM87.87 152.755C84.79 152.755 83.446 154.127 83.278 156.619H92.322V156.563C92.322 153.987 90.838 152.755 87.87 152.755ZM100.467 164.571H97.443V150.655H100.215V154.407H100.411C100.831 152.167 102.343 150.375 105.199 150.375C108.363 150.375 109.735 152.643 109.735 155.275V157.095H106.739V155.863C106.739 153.875 105.899 152.951 103.827 152.951C101.447 152.951 100.467 154.267 100.467 156.759V164.571ZM120.566 164.571H116.87L110.374 150.655H113.706L118.662 161.631H118.886L123.842 150.655H127.118L120.566 164.571ZM131.694 149.031H128.67V145.811H131.694V149.031ZM131.694 164.571H128.67V150.655H131.694V164.571ZM141.522 164.851C136.93 164.851 133.934 161.911 133.934 157.627C133.934 153.287 136.93 150.375 141.522 150.375C145.694 150.375 148.746 152.727 148.746 156.199V156.479H145.75V156.311C145.75 154.155 144.182 153.091 141.466 153.091C138.33 153.091 136.93 154.575 136.93 157.627C136.93 160.623 138.33 162.135 141.466 162.135C144.182 162.135 145.75 161.071 145.75 158.915V158.719H148.746V159.027C148.746 162.499 145.694 164.851 141.522 164.851ZM157.982 164.851C153.418 164.851 150.422 162.275 150.422 157.627C150.422 153.287 153.39 150.375 157.926 150.375C162.238 150.375 165.178 152.755 165.178 156.983C165.178 157.487 165.15 157.879 165.066 158.299H153.25C153.362 160.987 154.678 162.415 157.898 162.415C160.81 162.415 162.014 161.463 162.014 159.811V159.587H165.038V159.839C165.038 162.807 162.126 164.851 157.982 164.851ZM157.87 152.755C154.79 152.755 153.446 154.127 153.278 156.619H162.322V156.563C162.322 153.987 160.838 152.755 157.87 152.755ZM174.023 164.851C169.543 164.851 166.995 163.087 166.995 159.867V159.783H170.019V160.007C170.019 161.827 171.111 162.415 174.023 162.415C176.739 162.415 177.551 161.855 177.551 160.623C177.551 159.475 176.879 159.111 174.891 158.831L171.083 158.327C168.451 157.991 166.855 156.871 166.855 154.547C166.855 152.111 169.067 150.375 173.351 150.375C177.607 150.375 180.183 152.083 180.183 155.387V155.471H177.187V155.303C177.187 153.651 176.347 152.783 173.267 152.783C170.719 152.783 169.823 153.343 169.823 154.659C169.823 155.751 170.383 156.143 172.483 156.423L175.703 156.871C179.007 157.291 180.519 158.411 180.519 160.707C180.519 163.311 177.943 164.851 174.023 164.851Z" fill="black"/>
</svg>
